<svg width="499" height="12" viewBox="0 0 499 12" fill="none" xmlns="http://www.w3.org/2000/svg">
<path d="M98.5838 9.40143L98.4314 9.46538L98.4974 9.62078L98.6701 9.55683L98.5838 9.40143ZM162.319 7.59968L162.376 7.77348C162.491 7.72775 162.603 7.68203 162.717 7.6363C162.584 7.62715 162.452 7.60883 162.319 7.59968ZM380.853 7.21565C380.965 7.21565 381.085 7.22483 381.182 7.20654L381.173 7.1333C381.081 7.15159 380.987 7.16078 380.895 7.16992L380.853 7.21565ZM210.651 7.59968L210.548 7.52663C210.45 7.52663 210.351 7.54481 210.253 7.55396L210.363 7.6363C210.457 7.61801 210.553 7.60883 210.651 7.59968ZM217.425 1.74664L217.373 1.60035L217.117 1.60946L217.247 1.72842L217.425 1.74664ZM417.991 11.5963L417.856 11.5413L417.625 11.587L417.717 11.6237C417.809 11.6145 417.9 11.6055 417.991 11.5963ZM432.397 8.52333L432.348 8.44116H432.092L432.22 8.51422L432.397 8.52333ZM245.945 2.27714L245.76 2.36859L245.853 2.43254L246.053 2.3502L245.945 2.27714ZM256.359 2.83497L256.308 2.69779L256.052 2.7069L256.181 2.81675L256.359 2.83497ZM230.359 1.80147C230.266 1.75575 230.192 1.69173 230.071 1.66429C229.986 1.63686 229.838 1.67358 229.719 1.67358L229.788 1.83809C230.121 1.8198 230.241 1.81062 230.359 1.80147ZM430.107 8.45027C430.2 8.43198 430.355 8.42284 430.371 8.40455L430.335 8.27648C430.215 8.29477 430.095 8.31313 429.93 8.34971L430.107 8.45027ZM161.935 0.621861L162.14 0.51201C161.977 0.475429 161.819 0.420663 161.647 0.393227C161.6 0.384082 161.505 0.457102 161.381 0.521119C161.591 0.557701 161.758 0.603571 161.935 0.621861ZM382.578 7.18814L382.351 7.1058C382.185 7.09665 382.004 7.1058 381.829 7.1058C381.927 7.14238 382.023 7.17899 382.159 7.23387C382.32 7.21558 382.449 7.19729 382.578 7.18814ZM126.612 0.960169C126.717 0.887006 126.879 0.813843 126.912 0.731535C126.96 0.612644 126.916 0.484645 126.911 0.356609C126.766 0.438918 126.622 0.521262 126.452 0.621861C126.511 0.749897 126.561 0.850425 126.612 0.960169ZM135.805 0.521119C136.083 0.466247 136.359 0.402372 136.636 0.3475L136.418 0.182812C136.224 0.182812 136.033 0.228467 135.926 0.246758C135.86 0.402229 135.833 0.466247 135.805 0.521119ZM0.720093 11.1482C0.687586 11.0201 0.566733 10.8829 0.424515 10.7915L0.00800772 10.9286C-0.0295786 11.0567 0.073014 11.1848 0.15225 11.4134C0.471226 11.2671 0.732283 11.1939 0.720093 11.1482ZM260.401 4.68227L260.51 4.7555L260.696 4.65494L260.601 4.59082L260.401 4.68227ZM264.49 3.79524L264.664 3.74951L264.425 3.67628L264.266 3.71289L264.49 3.79524ZM81.6902 9.24585C81.5978 9.26414 81.5003 9.28243 81.4037 9.29158L81.5074 9.38303C81.6059 9.38303 81.7045 9.3556 81.802 9.33731L81.6902 9.24585ZM284.372 6.17304C284.466 6.16389 284.563 6.15468 284.662 6.14553L284.559 6.08158C284.46 6.08158 284.362 6.09995 284.263 6.10909L284.372 6.17304ZM289.477 6.40167L289.368 6.33773L289.182 6.42918L289.277 6.48402L289.477 6.40167ZM290.926 4.85607L290.825 4.79212C290.726 4.79212 290.628 4.8103 290.529 4.81945L290.631 4.87446C290.729 4.87446 290.828 4.86521 290.926 4.85607ZM95.4641 4.14283L95.3605 4.06049C95.2619 4.06049 95.1634 4.08796 95.0649 4.09711L95.1695 4.18856C95.2681 4.17942 95.3656 4.16113 95.4641 4.14283ZM96.0868 2.04851L96.2402 1.98438L96.1732 1.82898L96.0208 1.88382L96.0868 2.04851ZM292.608 8.87093L292.505 8.81609C292.407 8.81609 292.309 8.82516 292.21 8.83431L292.312 8.88915C292.41 8.88915 292.509 8.88007 292.608 8.87093ZM104.723 8.44116C104.816 8.42287 104.914 8.40444 105.01 8.38615L104.906 8.30398C104.808 8.31313 104.71 8.33142 104.612 8.34971L104.723 8.44116ZM336.887 9.71223L336.995 9.76725L337.181 9.69401L337.087 9.63917L336.887 9.71223ZM112.74 6.39256L112.912 6.32844L112.673 6.23698L112.514 6.292L112.74 6.39256ZM116.437 3.47515L116.611 3.42031L116.37 3.31975L116.212 3.37459L116.437 3.47515ZM348.147 7.50823L348.255 7.57235L348.441 7.49001L348.347 7.44428L348.147 7.50823ZM121.783 1.67358L121.955 1.60946L121.716 1.518L121.557 1.56373L121.783 1.67358ZM121.907 5.57859L121.821 5.4323L121.668 5.48713L121.734 5.64253L121.907 5.57859ZM349.676 6.86805L349.85 6.84072L349.612 6.7766L349.453 6.80411L349.676 6.86805ZM125.104 7.53574L125.258 7.4809L125.192 7.32532L125.038 7.38016L125.104 7.53574ZM350.904 7.60879L350.823 7.51734L350.667 7.54485L350.729 7.64541L350.904 7.60879ZM350.385 8.6698L350.539 8.64229L350.477 8.54173L350.323 8.57835L350.385 8.6698ZM129.047 3.75862L129.158 3.85007L129.342 3.722L129.245 3.64895L129.047 3.75862ZM354.911 10.1147L354.803 10.0598L354.617 10.1331L354.71 10.1879L354.911 10.1147ZM129.921 7.31621L129.835 7.16992L129.682 7.22476L129.748 7.37105L129.921 7.31621ZM132.402 1.77414L132.513 1.85649L132.697 1.73753L132.6 1.65518L132.402 1.77414ZM364.012 7.83743L363.838 7.87404L364.075 7.92888L364.235 7.90155L364.012 7.83743ZM365.287 8.64229L365.206 8.55084L365.052 8.57835L365.113 8.6698L365.287 8.64229ZM371.128 7.54485C371.035 7.54485 370.936 7.55392 370.84 7.56307L370.94 7.60879C371.039 7.60879 371.139 7.59972 371.236 7.59057L371.128 7.54485ZM139.243 1.42655L139.328 1.57284L139.482 1.518L139.417 1.37171L139.243 1.42655ZM140.263 1.96616L140.348 2.11245L140.502 2.06672L140.436 1.91132L140.263 1.96616ZM140.785 1.45406L140.7 1.30777L140.546 1.3626L140.611 1.50889L140.785 1.45406ZM141.459 3.5391C141.364 3.55739 141.268 3.56653 141.17 3.58482L141.274 3.65806C141.372 3.65806 141.471 3.6397 141.569 3.63055L141.459 3.5391ZM142.249 2.88981L142.164 2.74352L142.01 2.79836L142.076 2.94465L142.249 2.88981ZM146.486 6.68514L146.382 6.61209C146.284 6.61209 146.185 6.63024 146.088 6.64853L146.191 6.72176C146.29 6.72176 146.388 6.70343 146.486 6.68514ZM148.824 2.33198L148.72 2.25874C148.621 2.25874 148.524 2.27707 148.425 2.29536L148.528 2.36859C148.626 2.36859 148.725 2.35027 148.824 2.33198ZM373.983 8.72464L374.158 8.69713L373.92 8.63318L373.76 8.66051L373.983 8.72464ZM150.528 5.88957L150.443 5.74328L150.289 5.79811L150.354 5.9444L150.528 5.88957ZM153.936 5.2585C154.03 5.24021 154.127 5.23106 154.225 5.21277L154.121 5.13954C154.024 5.13954 153.925 5.15787 153.827 5.17616L153.936 5.2585ZM155.592 5.28601L155.419 5.34084L155.659 5.4323L155.818 5.38657L155.592 5.28601ZM375.862 8.07535L375.755 8.02033L375.568 8.08446L375.662 8.1393L375.862 8.07535ZM157.119 5.13954L157.034 5.00236L156.88 5.04808L156.945 5.19455L157.119 5.13954ZM376.022 7.87404L375.941 7.7917L375.786 7.81921L375.848 7.90155L376.022 7.87404ZM158.118 5.03897L158.228 5.13043L158.412 5.01165L158.317 4.9293L158.118 5.03897ZM375.437 10.4256C375.531 10.4256 375.629 10.4166 375.726 10.4074L375.625 10.3617C375.526 10.3617 375.427 10.3708 375.329 10.3799L375.437 10.4256ZM378.052 7.53574L377.951 7.49001C377.853 7.49001 377.755 7.49912 377.656 7.49912L377.758 7.54485C377.855 7.55399 377.954 7.54488 378.052 7.53574ZM379.043 7.69114C378.948 7.70028 378.851 7.70953 378.753 7.70953L378.855 7.75526C378.953 7.76441 379.052 7.75512 379.151 7.74597L379.043 7.69114ZM162.235 6.53885L162.408 6.48402L162.169 6.39256L162.01 6.4474L162.235 6.53885ZM163.426 5.16705L163.323 5.09381C163.224 5.09381 163.127 5.11217 163.028 5.12132L163.132 5.20366C163.229 5.19452 163.328 5.17619 163.426 5.16705ZM379.65 7.9839C379.556 7.99304 379.458 8.00211 379.361 8.00211L379.462 8.04784C379.561 8.04784 379.66 8.03873 379.758 8.03873L379.65 7.9839ZM167.283 0.996786L167.457 0.951059L167.217 0.859606L167.059 0.905333L167.283 0.996786ZM168.396 6.92289L168.311 6.78571L168.158 6.84072L168.223 6.9779L168.396 6.92289ZM173.804 2.92643C173.898 2.91728 173.995 2.89896 174.093 2.88981L173.989 2.81675C173.891 2.81675 173.793 2.83494 173.694 2.84408L173.804 2.92643ZM379.109 10.3067L379.028 10.2245L378.873 10.2518L378.934 10.3342L379.109 10.3067ZM380.685 8.63318C380.778 8.62404 380.875 8.62393 380.973 8.61478L380.871 8.56906C380.774 8.56906 380.674 8.57831 380.576 8.58746L380.685 8.63318ZM380.647 9.44716L380.566 9.36481L380.411 9.39214L380.473 9.4836L380.647 9.44716ZM382.643 9.40143L382.798 9.37392L382.736 9.29158L382.582 9.31909L382.643 9.40143ZM175.167 6.51135C175.074 6.52964 174.977 6.54793 174.88 6.55707L174.983 6.63031C175.081 6.63031 175.18 6.61198 175.278 6.59369L175.167 6.51135ZM383.422 9.30069L383.53 9.34642L383.717 9.28247L383.623 9.23674L383.422 9.30069ZM181.8 5.90779L181.716 5.77061L181.562 5.82544L181.626 5.96262L181.8 5.90779ZM183.417 6.01764L183.307 5.93529L183.124 6.04497L183.218 6.12731L183.417 6.01764ZM187.284 1.58213L187.182 1.50889C187.083 1.50889 186.985 1.52725 186.886 1.5364L186.989 1.60946C187.087 1.60946 187.186 1.59127 187.284 1.58213ZM387.603 10.2061L387.522 10.1238L387.368 10.1513L387.429 10.2336L387.603 10.2061ZM390.201 7.52663C390.106 7.52663 390.009 7.5357 389.911 7.54485L390.013 7.59057C390.112 7.59057 390.21 7.5815 390.309 7.57235L390.201 7.52663ZM391.431 8.81609L391.511 8.88915L391.667 8.87093L391.606 8.77947L391.431 8.81609ZM193.835 5.87117C193.741 5.88031 193.644 5.89864 193.547 5.90779L193.65 5.98102C193.748 5.98102 193.847 5.96266 193.944 5.95351L193.835 5.87117ZM394.383 8.999L394.538 8.97149L394.476 8.88915L394.321 8.91665L394.383 8.999ZM201.615 3.12755L201.512 3.0545C201.414 3.0545 201.315 3.07268 201.217 3.08183L201.319 3.15506C201.418 3.15506 201.517 3.1367 201.615 3.12755ZM396.947 8.05695C396.854 8.0661 396.756 8.07535 396.659 8.07535L396.76 8.12108C396.858 8.12108 396.957 8.11179 397.056 8.11179L396.947 8.05695ZM202.7 3.59411L202.783 3.722L202.938 3.67628L202.874 3.5391L202.7 3.59411ZM400.778 10.9286L400.953 10.892L400.716 10.8463L400.556 10.8647L400.778 10.9286ZM400.851 10.7C400.945 10.7 401.042 10.6909 401.14 10.6818L401.038 10.6452C400.94 10.636 400.842 10.6543 400.742 10.6543L400.851 10.7ZM206.242 2.79836C206.148 2.8075 206.051 2.82583 205.954 2.83497L206.056 2.90821C206.155 2.90821 206.253 2.88984 206.352 2.8807L206.242 2.79836ZM211.185 2.15818L211.358 2.11245L211.119 2.021L210.96 2.06672L211.185 2.15818ZM209.985 5.21277L210.138 5.16705L210.074 5.02987L209.921 5.07559L209.985 5.21277ZM216.393 6.28271L216.476 6.41078L216.63 6.36506L216.566 6.23698L216.393 6.28271ZM218.056 5.37746L217.953 5.30423C217.854 5.30423 217.756 5.32259 217.658 5.33173L217.761 5.40479C217.858 5.40479 217.957 5.38661 218.056 5.37746ZM223.17 4.9109C223.076 4.92919 222.978 4.93838 222.882 4.94752L222.984 5.01165C223.082 5.01165 223.181 5.00243 223.279 4.98414L223.17 4.9109ZM414.528 9.58434C414.622 9.57519 414.72 9.56594 414.818 9.56594L414.716 9.52021C414.618 9.52021 414.519 9.52947 414.421 9.53861L414.528 9.58434ZM226.831 3.70378L226.722 3.63055L226.537 3.73129L226.631 3.79524L226.831 3.70378ZM415.722 10.9286L415.83 10.9744L416.017 10.9195L415.923 10.8738L415.722 10.9286ZM233.188 2.80747L233.104 2.67957L232.951 2.7253L233.014 2.85319L233.188 2.80747ZM421.464 11.4225L421.382 11.3493L421.228 11.3677L421.289 11.4407L421.464 11.4225ZM423.345 10.5537L423.17 10.5719L423.407 10.6268L423.567 10.5994L423.345 10.5537ZM236.739 3.99637L236.63 3.92331L236.444 4.02387L236.54 4.08782L236.739 3.99637ZM436.852 9.60256L436.75 9.56594C436.651 9.56594 436.553 9.5659 436.454 9.57505L436.556 9.61167C436.654 9.61167 436.753 9.60256 436.852 9.60256ZM242.318 7.41677L242.492 7.37105L242.253 7.29799L242.093 7.33443L242.318 7.41677ZM244.016 4.12444C244.11 4.10615 244.207 4.09696 244.305 4.08782L244.202 4.02387C244.104 4.02387 244.005 4.04224 243.907 4.05138L244.016 4.12444ZM446.718 8.98989L446.892 8.97149L446.656 8.92576L446.495 8.94416L446.718 8.98989ZM246.988 5.18527L246.879 5.12132L246.693 5.21277L246.788 5.27672L246.988 5.18527ZM449.316 9.44716L449.236 9.38303L449.081 9.40143L449.142 9.46538L449.316 9.44716ZM249.938 3.13684L250.047 3.2099L250.232 3.10933L250.138 3.04539L249.938 3.13684ZM464.536 9.3557L464.643 9.39214L464.83 9.34642L464.737 9.30998L464.536 9.3557ZM470.871 9.99588L471.046 9.97748L470.809 9.93176L470.65 9.95015L470.871 9.99588ZM493.591 10.5353L493.49 10.4989C493.392 10.4989 493.293 10.508 493.195 10.508L493.295 10.5353C493.394 10.5353 493.492 10.5353 493.591 10.5353ZM251.887 7.49001C251.793 7.5083 251.696 7.51748 251.599 7.52663L251.701 7.59057C251.799 7.59057 251.897 7.57221 251.996 7.56307L251.887 7.49001ZM128.314 5.46891C128.165 5.49635 127.991 5.51453 127.816 5.54197C127.902 5.5877 127.981 5.67004 128.076 5.67004C128.25 5.67919 128.433 5.64257 128.612 5.63342C128.527 5.5877 128.441 5.54208 128.314 5.46891ZM351.044 9.31909C350.989 9.3008 350.867 9.27325 350.724 9.25496L350.532 9.33731L350.7 9.46538C350.771 9.43794 350.842 9.40139 351.044 9.31909ZM81.9696 2.96304C82.3018 2.92646 82.4206 2.91735 82.5405 2.90821C82.445 2.84419 82.3688 2.76188 82.2479 2.7253C82.1616 2.69786 82.0153 2.74348 81.8964 2.75263C81.9259 2.84408 81.9564 2.92646 81.9696 2.96304ZM89.3974 1.97527C89.5346 1.89296 89.687 1.85635 89.6971 1.80147C89.7154 1.70087 89.6494 1.60038 89.6189 1.49978L89.366 1.64607C89.3345 1.74667 89.3812 1.84724 89.3974 1.97527ZM91.6384 2.42343C91.804 2.39599 91.9777 2.37763 91.9848 2.3502C92.0112 2.25874 91.9828 2.14911 91.9757 2.04851C91.8772 2.0668 91.7085 2.07591 91.6933 2.10334C91.6445 2.20394 91.6547 2.30454 91.6384 2.42343ZM103.654 0.402336C103.863 0.448064 104.031 0.493754 104.207 0.5029L104.413 0.393227C104.248 0.3475 104.091 0.292592 103.917 0.265156C103.87 0.25601 103.778 0.329173 103.654 0.402336ZM105.152 3.97815C105.086 3.88669 105.041 3.8226 104.997 3.76773C104.894 3.85004 104.758 3.92331 104.703 4.01476L104.823 4.19767C104.939 4.12451 105.054 4.04216 105.152 3.97815ZM436.225 10.8097C436.364 10.7822 436.517 10.764 436.53 10.7457L436.462 10.6177L436.205 10.6725L436.225 10.8097ZM350.221 10.005C350.263 9.9867 350.355 9.95012 350.449 9.91354C350.35 9.8861 350.25 9.84941 350.153 9.84941C350.018 9.84941 349.885 9.87685 349.751 9.89514C349.849 9.92257 349.948 9.94097 350.221 10.005ZM376.239 8.45027C376.28 8.43198 376.373 8.39537 376.466 8.36793C376.368 8.34049 376.268 8.30398 376.171 8.30398C376.035 8.30398 375.903 8.33142 375.769 8.34971C375.867 8.368 375.965 8.3954 376.239 8.45027ZM250.715 5.67915C250.853 5.63342 251.007 5.59695 251.017 5.56037L250.946 5.34084L250.69 5.44141C250.656 5.51457 250.701 5.5877 250.715 5.67915ZM232.347 6.87716L232.218 6.66692L231.964 6.7766L232.038 7.00523C232.127 6.96865 232.215 6.93203 232.347 6.87716ZM127.63 6.01764C127.839 6.06336 128.007 6.10906 128.184 6.1182L128.388 6.00835C128.224 5.96262 128.067 5.90789 127.893 5.88046C127.847 5.88046 127.754 5.95362 127.63 6.01764ZM389.53 9.92265C389.68 9.9135 389.856 9.90428 390.03 9.89514C389.946 9.8677 389.869 9.82208 389.774 9.82208C389.601 9.81294 389.417 9.83119 389.237 9.83119C389.321 9.85863 389.406 9.88606 389.53 9.92265ZM129.892 2.41432C129.971 2.30458 130.058 2.2223 130.086 2.13085L129.87 2.021C129.786 2.10331 129.682 2.18569 129.632 2.27714C129.618 2.29543 129.766 2.3503 129.892 2.41432ZM131.063 6.26449C131.396 6.22791 131.514 6.2188 131.634 6.20966C131.539 6.14564 131.464 6.0724 131.344 6.04497C131.257 6.01753 131.111 6.05418 130.991 6.07247L131.063 6.26449ZM235.086 2.92643C235.419 2.90814 235.538 2.89896 235.658 2.88981C235.564 2.84408 235.489 2.78006 235.37 2.75263C235.284 2.72519 235.137 2.76174 235.017 2.76174L235.086 2.92643ZM422.51 11.322C422.68 11.3128 422.795 11.3036 422.911 11.2853C422.763 11.2579 422.627 11.2304 422.461 11.2121C422.372 11.203 422.234 11.2305 422.118 11.2396C422.256 11.2671 422.393 11.2945 422.51 11.322ZM136.152 5.93529C136.289 5.87128 136.441 5.82544 136.451 5.77972C136.471 5.68826 136.406 5.59681 136.375 5.50535L136.122 5.64253C136.09 5.72484 136.136 5.82555 136.152 5.93529ZM237.658 3.99637C237.867 4.03295 238.033 4.06956 238.21 4.07871L238.416 3.98726C238.254 3.95067 238.096 3.91413 237.923 3.88669C237.877 3.87755 237.782 3.94149 237.658 3.99637ZM143.313 7.08758C143.391 6.97783 143.478 6.89556 143.507 6.80411L143.29 6.70354C143.207 6.78585 143.103 6.86809 143.052 6.9504C143.039 6.97783 143.187 7.02356 143.313 7.08758ZM144.317 6.95951C144.252 6.8772 144.208 6.81325 144.164 6.75838C144.061 6.83154 143.925 6.9047 143.869 6.98701L143.988 7.16081C144.104 7.08765 144.22 7.02352 144.317 6.95951ZM145.338 6.58458C145.206 6.52056 145.127 6.43829 145.032 6.43829C144.858 6.42914 144.675 6.46576 144.495 6.47491C144.581 6.52063 144.657 6.59365 144.755 6.6028C144.928 6.62109 145.115 6.59373 145.338 6.58458ZM302.133 7.85582C302.078 7.83753 301.956 7.80088 301.813 7.78259L301.622 7.88315L301.791 8.02033C301.861 7.9929 301.932 7.95642 302.133 7.85582ZM420.59 10.6361C420.798 10.6635 420.964 10.6909 421.14 10.7L421.348 10.6452C421.186 10.6177 421.03 10.5902 420.858 10.581C420.811 10.5719 420.716 10.6086 420.59 10.6361ZM251.722 3.24652C252.054 3.21908 252.174 3.21904 252.293 3.2099C252.199 3.16417 252.125 3.10015 252.005 3.07272C251.92 3.05443 251.772 3.08197 251.653 3.09111L251.722 3.24652ZM418.735 9.4836L418.611 9.3557L418.355 9.41965L418.423 9.55683C418.514 9.53854 418.603 9.52018 418.735 9.4836ZM159.156 7.29799C159.117 7.22483 159.07 7.14238 159.025 7.06007L158.773 7.18814C158.753 7.27045 158.818 7.36197 158.848 7.44428C158.936 7.4077 159.026 7.36201 159.156 7.29799ZM388.464 10.2885L388.315 10.1788C388.211 10.2154 388.073 10.2518 388.015 10.3067L388.13 10.3981C388.246 10.3616 388.364 10.325 388.464 10.2885ZM416.084 8.45027C416.417 8.44113 416.537 8.43188 416.656 8.43188C416.563 8.40444 416.49 8.35871 416.37 8.34042C416.286 8.33128 416.138 8.34971 416.018 8.34971L416.084 8.45027ZM385.071 9.79457C385.278 9.82201 385.444 9.84955 385.621 9.8587L385.829 9.80368C385.666 9.77625 385.51 9.73977 385.337 9.73063C385.291 9.72148 385.196 9.76714 385.071 9.79457ZM296.415 4.92019C296.283 4.87446 296.205 4.81949 296.11 4.81034C295.936 4.8012 295.753 4.81959 295.573 4.82874C295.658 4.86532 295.731 4.92016 295.831 4.9293C296.002 4.93845 296.189 4.92934 296.415 4.92019ZM411.77 8.36793C411.715 8.34964 411.589 8.33142 411.463 8.30398L411.264 8.37704L411.431 8.4776C411.502 8.45931 411.573 8.43195 411.77 8.36793ZM174.386 6.24627C174.427 6.21884 174.519 6.16382 174.611 6.0998C174.511 6.06322 174.41 6.00835 174.314 6.00835C174.178 6.00835 174.046 6.06326 173.913 6.09069C174.012 6.12728 174.111 6.15482 174.386 6.24627ZM270.419 3.83186C270.476 3.95989 270.497 4.01476 270.517 4.06049C270.631 4.02391 270.781 3.99637 270.844 3.95064L270.796 3.81346C270.642 3.8226 270.487 3.83186 270.419 3.83186ZM401.595 8.26737C401.803 8.2948 401.969 8.32217 402.144 8.33131L402.353 8.27648C402.191 8.25819 402.035 8.22153 401.862 8.20324C401.815 8.20324 401.721 8.23993 401.595 8.26737ZM186.701 6.08158C186.781 5.98099 186.868 5.90775 186.896 5.82544L186.681 5.72488L186.442 5.95351C186.428 5.98095 186.575 6.02671 186.701 6.08158ZM189.16 7.25226C189.3 7.26141 189.465 7.27963 189.472 7.27048L189.588 7.02363L189.34 7.00523C189.268 7.0784 189.223 7.16081 189.16 7.25226ZM191.068 5.96262C191.237 5.93519 191.353 5.917 191.469 5.88957C191.318 5.84384 191.18 5.77982 191.015 5.75239C190.924 5.74324 190.788 5.7889 190.672 5.81633C190.811 5.86206 190.951 5.9169 191.068 5.96262ZM194.488 3.24652C194.658 3.20993 194.773 3.19157 194.889 3.17328C194.739 3.12755 194.601 3.06354 194.435 3.0361C194.345 3.02695 194.208 3.07282 194.093 3.09111C194.232 3.14599 194.371 3.20079 194.488 3.24652ZM381.772 9.67579L381.647 9.57505C381.47 9.5659 381.283 9.56594 381.099 9.56594L381.19 9.64828C381.362 9.66657 381.55 9.66665 381.772 9.67579ZM198.252 2.47827C198.419 2.45083 198.592 2.44172 198.6 2.42343C198.627 2.34112 198.601 2.25889 198.595 2.17658C198.496 2.18572 198.328 2.18558 198.312 2.21302C198.262 2.29532 198.27 2.37767 198.252 2.47827ZM201.156 5.05737C201.322 5.02994 201.496 5.02065 201.504 5.00236C201.532 4.92005 201.505 4.83781 201.499 4.7555C201.4 4.76465 201.231 4.77383 201.216 4.79212C201.167 4.87443 201.174 4.95677 201.156 5.05737ZM399.376 9.04472C399.514 9.00814 399.669 8.98982 399.68 8.96238L399.612 8.81609L399.355 8.88915L399.376 9.04472ZM370.006 8.56906L370.154 8.68802C370.259 8.65144 370.397 8.60567 370.456 8.55995L370.34 8.45938C370.223 8.49597 370.105 8.53248 370.006 8.56906ZM206.682 5.1031C206.723 5.07566 206.814 5.02079 206.907 4.96592C206.807 4.92934 206.706 4.87446 206.61 4.87446C206.474 4.87446 206.342 4.92008 206.209 4.94752C206.308 4.9841 206.407 5.01165 206.682 5.1031ZM207.689 7.02363C207.855 6.99619 208.029 6.98691 208.036 6.96862L208.031 6.72176C207.933 6.73091 207.764 6.74005 207.749 6.76749C207.699 6.84065 207.706 6.92303 207.689 7.02363ZM369.055 10.3251L368.93 10.2245C368.752 10.2154 368.565 10.2245 368.382 10.2245L368.474 10.3067C368.645 10.325 368.833 10.3251 369.055 10.3251ZM225.606 6.30111C225.551 6.28282 225.428 6.23709 225.284 6.20966L225.095 6.33773L225.265 6.51135C225.335 6.46562 225.405 6.42 225.606 6.30111ZM353.895 8.77947C354.034 8.78862 354.199 8.79769 354.205 8.79769L354.327 8.63318L354.079 8.61478L353.895 8.77947ZM467.672 9.71223C467.812 9.68479 467.966 9.66657 467.977 9.64828L467.91 9.53861L467.653 9.58434L467.672 9.71223ZM157.071 1.05162C156.9 1.0882 156.714 1.12486 156.528 1.17058C156.692 1.20717 156.853 1.28022 157.024 1.28937C157.22 1.29851 157.426 1.25286 157.627 1.22542C157.47 1.17969 157.314 1.13393 157.071 1.05162ZM170.622 3.29224C170.578 3.15506 170.56 3.09097 170.541 3.0361C170.281 3.10012 170.021 3.16413 169.761 3.21901L170.021 3.33797C170.223 3.34711 170.427 3.31053 170.622 3.29224ZM194.194 5.56948C194.151 5.44144 194.132 5.38661 194.114 5.33173C193.854 5.38661 193.594 5.45048 193.334 5.50535L193.594 5.62432C193.795 5.62432 193.999 5.58777 194.194 5.56948ZM199.542 2.59723L199.795 2.5515C199.76 2.4509 199.738 2.34105 199.618 2.25874C199.571 2.23131 199.282 2.2771 199.103 2.28625C199.246 2.38685 199.389 2.48748 199.542 2.59723ZM237.148 7.16992C237.401 7.13334 237.516 7.11498 237.631 7.09669C237.445 6.99609 237.259 6.90467 237.073 6.81321L236.891 6.94129C236.941 7.02359 237.062 7.09676 237.148 7.16992ZM161.994 2.07583C161.902 1.9478 161.86 1.89296 161.818 1.83809C161.592 1.92954 161.365 2.01189 161.138 2.10334C161.238 2.13078 161.355 2.20394 161.436 2.1948C161.635 2.17651 161.817 2.11242 161.994 2.07583ZM382.92 10.6361C383.207 10.6269 383.327 10.6268 383.448 10.6268C383.328 10.5445 383.208 10.4713 383.089 10.3981L382.834 10.4623L382.92 10.6361ZM253.589 3.4112C253.498 3.3106 253.457 3.26477 253.416 3.2099C253.189 3.28306 252.96 3.35626 252.732 3.42942C252.832 3.45686 252.948 3.5118 253.029 3.50266C253.228 3.48437 253.412 3.44779 253.589 3.4112ZM369.042 7.45339C369.287 7.41681 369.511 7.3803 369.737 7.34372C369.587 7.31628 369.369 7.24312 369.301 7.25226C369.119 7.2797 368.995 7.34368 368.868 7.39856L369.042 7.45339ZM393.125 9.63006L393.188 9.81297C393.318 9.76725 393.494 9.73063 393.564 9.6849L393.573 9.52932C393.417 9.5659 393.262 9.59348 393.125 9.63006ZM399.566 10.8829C399.738 10.8646 399.926 10.8373 400.113 10.819C399.949 10.8007 399.791 10.7548 399.62 10.7548C399.424 10.7457 399.218 10.7732 399.017 10.7823C399.172 10.8098 399.326 10.8372 399.566 10.8829ZM403.218 10.8097L402.988 10.6634L402.744 10.7915L402.86 10.9561C402.961 10.9104 403.062 10.8737 403.218 10.8097ZM413.437 11.1482L413.269 11.0201C413.039 11.0658 412.811 11.1115 412.581 11.1573C412.681 11.1756 412.795 11.2121 412.877 11.203C413.076 11.1939 413.26 11.1665 413.437 11.1482ZM423.594 9.75796L423.52 9.63006C423.258 9.6575 422.996 9.68479 422.735 9.71223L422.992 9.77636C423.194 9.7855 423.398 9.7671 423.594 9.75796ZM110.726 2.7069C110.652 2.61545 110.57 2.51492 110.487 2.41432C110.403 2.50577 110.264 2.58812 110.25 2.67957C110.234 2.78932 110.33 2.89906 110.377 2.99966C110.475 2.91735 110.574 2.83494 110.726 2.7069ZM124.172 1.72842L124.425 1.67358C124.39 1.56384 124.365 1.43566 124.244 1.3442C124.197 1.30762 123.908 1.36253 123.729 1.38082C123.874 1.49057 124.019 1.60953 124.172 1.72842ZM135.258 0.969279C135.213 0.822952 135.195 0.768044 135.176 0.704027C134.917 0.768044 134.656 0.832206 134.396 0.896223L134.657 1.02412C134.86 1.03326 135.063 0.996715 135.258 0.969279ZM137.838 1.49067C137.998 1.54555 138.155 1.62771 138.343 1.66429C138.424 1.68258 138.568 1.62775 138.682 1.60946C138.497 1.49057 138.314 1.38093 138.129 1.26204C138.063 1.31691 137.998 1.36264 137.838 1.49067ZM367.113 7.33443C367.326 7.3893 367.506 7.45343 367.729 7.49001C367.88 7.51745 368.093 7.49912 368.277 7.49912C368.02 7.40766 367.762 7.31621 367.505 7.22476C367.417 7.25219 367.329 7.27956 367.113 7.33443ZM244.561 6.52974C244.837 6.43829 245.053 6.39249 245.139 6.31933L244.944 6.13642C244.751 6.173 244.519 6.20047 244.38 6.26449C244.322 6.28278 244.457 6.38342 244.561 6.52974ZM93.6813 3.46604C93.856 3.63066 93.9871 3.74955 94.1191 3.87758C94.3376 3.79527 94.5569 3.713 94.7764 3.63984C94.5458 3.56668 94.3263 3.47519 94.0805 3.42031C93.9728 3.40202 93.8093 3.44775 93.6813 3.46604ZM114.936 3.81346C115.28 3.69457 115.63 3.63055 115.68 3.5391C115.726 3.44764 115.446 3.31057 115.31 3.19168C115.184 3.27399 115.006 3.34704 114.945 3.44764C114.883 3.5391 114.934 3.65799 114.936 3.81346ZM383.798 9.05383C384.044 9.0264 384.224 8.99889 384.402 8.9806C384.264 8.91658 384.154 8.81598 383.981 8.79769C383.792 8.78855 383.546 8.86185 383.326 8.89843C383.464 8.94416 383.602 8.98982 383.798 9.05383ZM201.856 6.91378C201.705 6.82232 201.554 6.73087 201.404 6.63942C201.276 6.70343 201.078 6.76756 201.038 6.84072C200.995 6.92303 201.098 7.02359 201.138 7.12419C201.357 7.06018 201.576 6.99609 201.856 6.91378ZM332.884 6.69425C332.651 6.6028 332.542 6.52971 332.37 6.49313C332.275 6.47484 332.071 6.52964 331.917 6.55707C332.013 6.62109 332.074 6.6944 332.221 6.74927C332.283 6.76756 332.528 6.72169 332.884 6.69425ZM411.844 10.6543C411.736 10.5811 411.659 10.5354 411.581 10.4805C411.36 10.5171 411.14 10.5537 410.918 10.5903C411.055 10.6452 411.191 10.6999 411.328 10.7639C411.48 10.7274 411.632 10.7 411.844 10.6543ZM402.621 10.1879C402.894 10.2519 403.053 10.316 403.135 10.316C403.329 10.2977 403.486 10.2518 403.659 10.2152C403.552 10.1786 403.445 10.1147 403.339 10.1147C403.145 10.1147 402.953 10.1513 402.621 10.1879ZM372.318 9.95926C372.135 9.96841 372.041 9.95923 372.023 9.96837L371.961 10.0507C372.095 10.1147 372.243 10.1696 372.423 10.2245C372.491 10.2428 372.659 10.2336 372.782 10.2336L372.732 10.1056C372.612 10.0507 372.431 9.99584 372.318 9.95926ZM238.996 7.05096C239.217 6.93207 239.4 6.86802 239.444 6.78571L239.155 6.63031C238.961 6.66689 238.764 6.72183 238.651 6.795C238.61 6.82243 238.8 6.91378 238.996 7.05096ZM248.294 3.21901C248.415 3.17328 248.56 3.14588 248.556 3.11844C248.536 2.98126 247.795 2.75274 247.382 2.77103L247.15 2.85319C247.534 2.97208 247.918 3.10012 248.294 3.21901ZM147.919 7.53574L148.057 7.54485C148.442 7.49912 148.927 7.13334 148.87 6.94129L148.769 6.85894C148.669 6.85894 148.532 6.86809 148.48 6.90467C148.259 7.05099 148.047 7.19732 147.867 7.36194L147.919 7.53574ZM269.283 6.17304C269.504 5.99013 269.662 5.88039 269.77 5.7615L269.652 5.62432C269.384 5.72491 269.103 5.82555 268.865 5.93529C268.836 5.94444 269.039 6.03586 269.283 6.17304ZM366.242 8.43188C366.377 8.32213 366.526 8.24904 366.528 8.18502C366.53 8.13015 366.363 8.06613 366.272 8.00211C366.1 8.0387 365.768 8.08449 365.785 8.12108C365.843 8.20338 366.029 8.2947 366.242 8.43188ZM404.778 11.2487L404.676 11.2121C404.194 11.2213 403.716 11.2395 403.235 11.2578L403.303 11.3311C403.624 11.3951 404.484 11.3677 404.735 11.2853L404.778 11.2487ZM172.451 6.85894C172.684 6.79492 172.931 6.74009 173.143 6.66692L172.947 6.46562C172.6 6.52049 172.265 6.59376 171.928 6.66692C172.071 6.71265 172.214 6.76749 172.451 6.85894ZM413.614 8.55995C413.175 8.52337 412.921 8.49604 412.662 8.48689L412.445 8.53262C412.562 8.59664 412.705 8.70624 412.847 8.70624C413.197 8.71538 413.55 8.66969 413.901 8.6514C413.773 8.60567 413.645 8.56909 413.614 8.55995ZM176.353 6.69425C176.697 6.46562 176.916 6.32844 177.134 6.19126C176.983 6.14553 176.836 6.05408 176.68 6.05408C176.186 6.04493 176.3 6.25538 176.221 6.39256C176.185 6.44744 176.273 6.52049 176.353 6.69425ZM151.724 5.04808C151.388 5.0115 151.192 4.97503 151 4.97503C150.841 4.98417 150.66 5.02983 150.542 5.0847L150.524 5.2585C150.653 5.32252 150.848 5.38661 151.007 5.37746C151.181 5.36832 151.337 5.27686 151.516 5.24028C151.697 5.2037 151.895 5.18537 152.086 5.15794C151.926 5.11221 151.765 5.06638 151.724 5.04808ZM371.371 8.25826L371.555 8.23986L371.446 8.02033C371.313 7.8923 371.078 7.91973 370.762 7.97461C370.581 8.00204 370.312 7.99297 370.082 8.00211C370.296 8.0387 370.518 8.07521 370.725 8.11179C370.93 8.15751 371.12 8.20338 371.371 8.25826ZM203.037 6.57547C203.432 6.44744 203.822 6.31944 204.213 6.20055C204.112 6.16396 204.006 6.0998 203.913 6.0998C203.539 6.11809 203.166 6.14557 202.799 6.18215L202.652 6.292C202.73 6.37431 202.858 6.44744 203.037 6.57547ZM237.738 3.32886C237.852 3.30142 238.033 3.27392 238.03 3.25562C237.99 3.07272 237.928 2.88977 237.849 2.71601L237.583 2.68868C237.399 2.71612 237.075 2.79832 237.086 2.80747C237.276 2.98123 237.51 3.1551 237.738 3.32886ZM135.301 4.73728C135.107 4.47207 134.887 4.17027 134.66 3.86847L134.534 3.84097L134.326 3.99637C134.478 4.27073 134.658 4.55438 134.849 4.82874C134.868 4.85617 135.022 4.86518 135.116 4.86518C135.149 4.86518 135.187 4.81959 135.301 4.73728ZM108.345 4.26162C108.429 4.30734 108.503 4.36222 108.598 4.3988C109.097 4.60914 109.278 3.79531 109.87 4.28001L110.019 4.21589C110.027 4.11529 110.085 3.97815 109.989 3.93242C109.511 3.70378 108.518 3.91409 108.345 4.26162ZM241.204 7.50823C241.232 7.49908 241.421 7.49908 241.585 7.4625L240.953 6.96862C240.785 7.03263 240.608 7.10583 240.515 7.18814C240.263 7.40763 240.573 7.48079 241.204 7.50823ZM171.92 5.49624C171.993 5.6883 172.036 5.8621 172.143 6.03586L172.512 6.12731C172.695 6.07244 172.979 5.96266 172.948 5.90779C172.858 5.76146 172.605 5.63346 172.467 5.48713C172.394 5.41397 172.427 5.31334 172.411 5.22188C172.262 5.30419 172.115 5.3865 171.92 5.49624ZM158.159 1.3442C158.561 1.36249 158.891 1.37175 159.211 1.40833C159.347 1.41747 159.466 1.47227 159.591 1.518C159.661 1.36253 159.747 1.21617 159.783 1.06984L159.506 0.969279C159.047 1.02415 158.589 1.07913 158.151 1.17058L158.159 1.3442ZM259.913 3.5391C259.883 3.75858 259.854 3.93246 259.853 4.10622L260.227 4.12444C260.465 4.01469 260.777 3.8958 260.835 3.75862C260.879 3.65802 260.578 3.53006 260.43 3.42031C260.2 3.47519 259.969 3.52995 259.913 3.5391ZM249.668 6.50224C249.578 6.65771 249.457 6.81329 249.423 6.9779C249.414 7.01448 249.685 7.09669 249.836 7.09669C249.962 7.10583 250.232 6.99619 250.215 6.9779C249.943 6.72183 250.053 6.46573 250.24 6.20966L250.145 6.14553C250.044 6.14553 249.877 6.15471 249.858 6.18215C249.771 6.28275 249.727 6.39249 249.668 6.50224ZM170.16 6.80411C170.412 6.75838 170.711 6.65778 170.979 6.66692C171.433 6.69436 171.674 6.5938 171.567 6.42918C171.503 6.33773 171.047 6.24624 170.775 6.25538C170.486 6.25538 170.195 6.3742 169.934 6.45651L169.852 6.63942C169.876 6.68514 170.008 6.7218 170.16 6.80411ZM384.352 8.02033C384.357 8.02033 384.47 7.9381 384.679 7.91066C385.023 7.85579 384.911 7.81914 384.765 7.74597C384.611 7.66366 384.501 7.61797 384.203 7.69114C383.833 7.77344 383.42 7.81914 382.917 7.74597C382.826 7.73683 382.678 7.76437 382.557 7.76437L382.73 7.84671C383.201 7.90159 383.682 7.95632 384.352 8.02033ZM396.818 8.83431C397.075 8.8526 397.33 8.88 397.59 8.88915C397.741 8.89829 397.9 8.87096 398.056 8.86182C397.951 8.81609 397.883 8.75207 397.732 8.72464C397.555 8.68805 397.31 8.6788 397.087 8.66051C396.945 8.65137 396.765 8.67894 396.648 8.6698C396.43 8.64236 396.253 8.58742 396.039 8.55084L395.786 8.61478L395.863 8.75196C396.159 8.79769 396.496 8.80687 396.818 8.83431ZM394.128 8.64229C394.328 8.64229 394.634 8.66062 394.815 8.63318C394.924 8.61489 394.875 8.51429 394.83 8.45027C394.693 8.25822 395.253 8.41366 395.366 8.36793C395.493 8.3222 395.524 8.249 395.596 8.19413C395.422 8.17584 395.207 8.13011 395.083 8.14841C394.718 8.18499 394.287 8.22168 394.069 8.30398C393.649 8.45946 392.812 8.15762 392.579 8.40455C392.551 8.44113 392.719 8.49589 392.845 8.52333C392.915 8.54162 393.084 8.53248 393.208 8.52333C393.359 8.52333 393.536 8.50508 393.656 8.51422C393.818 8.54166 393.937 8.58742 394.128 8.64229ZM416.128 9.13618C416.913 9.14532 417.292 9.14529 417.368 9.09956C417.549 8.98067 417.632 8.85267 417.193 8.77036C416.917 8.71549 416.209 8.66976 416.185 8.67891C415.706 8.96242 415.51 8.73378 415.293 8.63318C415.186 8.58746 415.187 8.53251 415.139 8.46849C414.936 8.53251 414.713 8.58738 414.543 8.6514L414.669 8.74286C414.982 8.8526 415.298 8.96231 415.645 9.07205C415.758 9.09949 415.964 9.11789 416.128 9.13618ZM373.131 7.83743C373.059 7.96546 372.962 8.03877 372.982 8.12108C373.018 8.24911 374.13 8.46853 374.574 8.41366C375.054 8.34964 375.179 8.19424 374.836 8.07535C374.402 7.91988 374.485 7.81013 374.949 7.70953C374.809 7.65466 374.566 7.55392 374.545 7.56307C374.029 7.65452 373.534 7.75512 373.131 7.83743ZM368.138 7.90155C368.688 7.94728 368.965 7.99304 369.224 7.9839C369.41 7.9839 369.739 7.90148 369.716 7.87404C369.63 7.79174 369.424 7.70946 369.262 7.6363C368.976 7.70032 368.689 7.77344 368.205 8.10268L368.34 8.04784L368.436 7.92888C367.751 7.92888 367.612 7.74612 367.31 7.61808L366.067 7.72775L366.107 7.83743C366.789 7.92888 367.484 8.0113 368.138 7.90155ZM391.107 10.3067C391.306 10.2335 391.412 10.197 391.479 10.1604L391.571 10.0598C391.418 10.0781 391.197 10.0781 391.127 10.1147C391.05 10.1421 391.108 10.2061 392.362 10.1147C392.494 10.1238 392.624 10.1422 392.757 10.1422C392.879 10.1513 393.004 10.1422 393.128 10.1331C393.028 10.1056 392.923 10.0689 392.831 10.0323C392.727 9.99574 392.586 9.95926 392.55 9.91354C392.502 9.85866 392.692 9.74895 392.236 9.81297C391.981 9.8587 391.82 9.94097 391.618 10.005C391.734 10.0324 391.839 10.069 391.97 10.0873C392.085 10.1056 392.23 10.1055 391.107 10.3067ZM213.434 2.30447C213.373 2.19473 213.329 2.1217 213.283 2.0394C213.172 2.1217 213.087 2.21316 212.937 2.26803C212.883 2.29547 212.677 2.24059 212.535 2.2223C212.406 2.21316 212.23 2.19483 212.152 2.23141L212.105 2.38681C212.386 2.45083 212.688 2.53325 212.987 2.54239C213.131 2.55154 213.285 2.38692 212.907 1.99367L213.085 2.01189L213.033 1.87471H212.777C212.821 1.91129 212.865 1.95694 213.434 2.30447ZM177.273 3.01788C177.393 3.13677 177.512 3.2557 177.631 3.37459C177.803 3.29228 178.115 3.20075 178.112 3.11844C178.108 3.0087 177.857 2.9081 177.712 2.79836C177.592 2.85323 177.472 2.91728 177.945 3.52088L177.809 3.39281L177.591 3.45693L177.791 3.5666C177.805 3.5666 177.889 3.53917 177.273 3.01788ZM119.139 5.15794C119.394 4.98417 119.624 4.82867 119.845 4.66405L119.892 4.56349C119.599 4.6275 119.293 4.69141 119.018 4.77372L118.901 4.96592C118.905 5.01165 119.012 5.05734 119.836 4.28912C119.964 4.4446 120.02 4.5726 120.081 4.5726C120.302 4.5726 120.525 4.53609 120.746 4.50865C120.671 4.39891 120.649 4.25251 120.504 4.20678C120.395 4.16105 120.127 4.2434 119.139 5.15794ZM336.891 9.03561C336.831 9.11792 336.762 9.16354 336.781 9.20012L336.97 9.3282C337.173 9.28247 337.538 9.23678 337.541 9.18191C337.548 9.10874 337.295 9.03554 337.151 8.96238C337.038 8.98982 336.925 9.02636 336.778 8.92576L336.954 8.94416L336.905 8.83431H336.649C336.692 8.87089 336.734 8.89843 336.891 9.03561ZM231.449 2.97215C231.303 2.86241 231.157 2.7527 231.012 2.64296L230.792 2.7069C230.689 2.83494 230.611 2.97223 231.082 2.99966C231.19 3.00881 231.309 2.9813 230.649 2.60634L230.826 2.62456L230.775 2.48738H230.519C230.562 2.52396 230.605 2.56976 231.449 2.97215ZM160.836 2.98126C161.063 2.96297 161.295 2.94475 161.528 2.91732C161.415 2.87159 161.309 2.79839 161.189 2.78925C160.915 2.7801 160.634 2.80747 160.355 2.80747C160.5 2.86234 160.644 2.91721 161.571 2.71601C161.726 2.82576 161.824 2.9265 161.977 2.99966C162.033 3.01795 162.213 2.98126 162.337 2.98126C162.265 2.88066 162.237 2.76185 162.103 2.68868C162.031 2.6521 161.777 2.69776 160.836 2.98126ZM497.815 10.2885L497.773 10.316C497.884 10.316 498.004 10.3251 498.102 10.316L498.093 10.2702C498.001 10.2794 497.907 10.2793 497.306 10.4714C497.505 10.4256 497.611 10.4074 497.68 10.3799L497.773 10.316C497.619 10.3251 497.397 10.325 497.329 10.3433C497.251 10.3616 497.309 10.3982 497.815 10.2885ZM175.9 3.49337L175.86 3.57571C175.972 3.57571 176.092 3.57578 176.189 3.55749L176.177 3.42942C176.085 3.45686 175.992 3.47522 175.405 4.00565C175.602 3.87762 175.707 3.81353 175.772 3.74951L175.86 3.57571C175.708 3.60315 175.486 3.62144 175.419 3.66717C175.342 3.73118 175.403 3.83175 175.9 3.49337ZM226.405 6.93218L226.269 6.81321L226.051 6.86805L226.25 6.96862C226.264 6.97776 226.348 6.94121 225.914 6.7766L226.092 6.795L226.04 6.65781H225.784C225.828 6.6944 225.87 6.74012 226.405 6.93218ZM169.185 2.56972L169.049 2.43254L168.832 2.50577L169.032 2.61545C169.045 2.61545 169.129 2.58798 168.693 2.39592L168.871 2.41432L168.818 2.25874L168.562 2.26803C168.606 2.30461 168.65 2.35023 169.185 2.56972ZM376.239 7.64541L376.106 7.56307L375.888 7.59968L376.085 7.66381C376.098 7.67295 376.182 7.65466 375.752 7.52663L375.928 7.54485L375.879 7.44428H375.624C375.666 7.47172 375.709 7.49908 376.239 7.64541ZM154.183 1.49978L154.046 1.37171L153.829 1.43566L154.029 1.55462C154.042 1.55462 154.126 1.51804 153.69 1.32598L153.868 1.3442L153.814 1.1888H153.558C153.603 1.23453 153.647 1.28029 154.183 1.49978ZM363.847 7.54485C363.938 7.5357 364.03 7.51737 364.121 7.50823L363.986 7.44428L363.753 7.49912C363.742 7.49912 363.811 7.52659 364.204 7.39856L364.163 7.45339C364.274 7.45339 364.394 7.45343 364.492 7.44428L364.483 7.36194C364.389 7.38023 364.297 7.38937 363.847 7.54485ZM133.426 3.68556L133.604 3.70378L133.55 3.52999L133.294 3.5391C133.339 3.58482 133.383 3.63055 133.919 3.85918L133.782 3.722L133.565 3.79524L133.766 3.9142C133.779 3.9142 133.863 3.87762 133.426 3.68556ZM369.19 10.7091C368.471 10.7548 368.026 11.1482 367.115 10.8647C366.941 11.1848 366.046 10.9743 365.522 11.0383C365.122 11.084 364.35 11.0476 364.098 10.9561C363.494 10.7367 363.372 10.8555 362.984 11.0019C362.686 11.1208 362.106 11.2395 361.73 10.9835C360.926 10.9835 360.098 10.947 359.328 11.0019C358.767 11.0293 358.681 10.9012 358.394 10.8738C358.134 10.8464 357.738 11.0109 357.373 11.0201C356.996 11.0384 356.491 11.0109 356.208 10.9377C355.413 10.7365 354.674 10.6268 353.811 10.892C352.558 10.7365 350.934 10.8829 350.065 10.4165C349.984 10.3708 349.567 10.3434 349.421 10.3708C348.668 10.4988 347.935 10.5903 347.021 10.5446C346.619 10.5263 346.48 10.8006 345.83 10.7457C345.615 10.7274 345.309 10.8098 345.109 10.7823C344.829 10.7549 344.611 10.6634 344.367 10.6085L344.292 10.819C343.669 10.8464 342.975 10.9103 342.42 10.8554C341.316 10.7365 340.186 10.7822 339.132 10.8097C338.305 10.828 338.672 10.7458 338.678 10.6361C338.689 10.4074 338.5 10.3707 337.895 10.4805C337.151 10.6085 337.698 10.6269 338.035 10.6909C338.128 10.7092 338.082 10.8007 338.099 10.8647C337.966 10.8647 337.814 10.8737 337.703 10.8554C336.974 10.7365 334.941 10.5537 334.405 10.5171C334.001 10.4897 333.655 10.3342 333.274 10.3251C332.866 10.3251 332.389 10.5079 332.046 10.4805C331.232 10.4073 330.376 10.5537 329.543 10.3251C328.967 10.1696 327.929 10.1238 327.096 10.261C326.539 10.3524 326.117 10.3982 325.821 10.1604C325.789 10.133 325.571 10.1331 325.438 10.1331C324.868 10.1239 324.277 10.1695 323.734 10.1238C323.262 10.0872 322.868 9.94087 322.395 9.89514C321.714 9.82197 321.017 9.72141 320.306 9.93176C320.097 9.99577 319.415 9.97755 319.206 9.91354C318.574 9.70319 317.785 9.80376 317.126 9.78547C316.444 9.76717 315.786 9.88599 315.244 9.62078C315.131 9.5659 314.528 9.63003 314.153 9.63917C313.792 9.64832 313.47 9.64828 313.613 9.37392L313.549 9.47449C313.827 9.42876 314.105 9.39214 314.382 9.34642L314.168 9.23674C313.974 9.23674 313.782 9.27332 313.613 9.37392C313.088 9.43794 312.622 9.40143 312.167 9.3557C311.79 9.31912 311.594 9.33727 311.422 9.4836C311.258 9.62992 310.933 9.57509 310.656 9.47449C310.496 9.41961 310.247 9.39214 310.037 9.34642C309.472 9.7671 308.014 9.3282 307.369 9.69401C307.338 9.7123 307.114 9.66661 306.995 9.6849C306.393 9.73063 306.275 9.25503 305.523 9.5111C305.064 9.66657 304.544 9.59334 304.046 9.62078C303.667 9.63907 303.321 9.66657 302.918 9.64828C302.295 9.62085 301.533 9.38314 301.108 9.76725C300.402 9.64836 299.601 9.84037 298.839 9.63917C298.487 9.54772 297.991 9.34652 297.205 9.45627C296.839 9.51114 295.994 9.48363 295.617 9.24585C295.543 9.20012 295.282 9.16365 295.12 9.1728C293.816 9.20938 293.515 9.20009 292.283 9.07205C291.658 9.01718 290.993 8.89843 290.403 9.12707C290.325 9.1545 290.188 9.16361 290.078 9.18191C289.782 8.77951 288.815 9.23667 288.478 9.02633C288.022 8.74282 287.595 8.88011 287.184 8.999C286.6 9.17276 285.959 9.24589 285.332 9.09956C284.192 8.85264 283.205 9.30083 282.117 9.1728C281.533 9.36485 280.838 9.25503 280.43 9.14529C279.745 8.98067 279.188 8.83427 278.339 8.9806C278.205 8.99889 277.866 8.84356 277.532 8.76125L277.621 8.77036L277.57 8.64229L277.315 8.6514C277.358 8.67884 277.401 8.71553 277.532 8.76125C276.735 8.88014 276.097 8.82524 275.461 8.81609C274.423 8.81609 273.325 8.63315 272.353 8.8252C271.162 9.05383 270.43 8.85271 269.579 8.57835C269.289 8.47775 268.906 8.2674 268.156 8.48689C266.985 8.83442 265.433 8.58746 264.079 8.72464L263.944 8.59656L263.839 8.38615L263.581 8.496C262.459 9.00814 262.197 9.03551 260.895 8.60567C260.499 8.47764 260.294 8.34046 260.076 8.6514L259.554 8.66051C259.333 8.45017 259.043 8.55077 258.666 8.56906C258.309 8.5782 257.853 8.33135 257.565 8.36793C257.246 8.40451 257.035 8.56906 256.552 8.61478C255.295 8.75196 254.005 8.5234 252.785 8.73375C252.044 8.15759 251.381 8.8984 250.59 8.77036C250.367 8.74293 249.88 8.88922 249.644 8.68802C249.366 8.45024 249.127 8.34057 248.727 8.6698C248.676 8.70638 248.094 8.6698 247.795 8.62407C247.4 8.5692 246.9 8.35882 246.695 8.40455C246.183 8.52344 245.771 8.45027 245.343 8.40455C244.891 8.35882 244.334 8.69724 243.99 8.34971C243.714 8.07535 242.993 8.53258 242.757 8.22164C242.089 8.23079 241.421 8.24911 240.754 8.25826C240.58 8.68809 239.932 8.39544 239.503 8.39544C238.902 8.40458 238.376 8.03877 237.667 8.34971C237.603 8.37715 237.035 8.13937 236.795 8.1668C235.766 8.29484 235.037 8.23982 234.541 7.7917C234.367 7.63623 233.665 7.77348 233.622 8.04784C233.585 8.27648 233.006 8.31299 232.976 8.2947C232.182 7.78255 231.006 8.29477 230.021 8.09357C229.191 7.91981 228.167 7.75526 227.114 7.89244C226.99 7.91073 226.785 7.75512 226.607 7.74597C225.957 7.73683 225.527 7.41677 224.742 7.55396C224.16 7.65455 223.31 7.46254 222.987 7.86493L222.819 7.91066L222.7 7.86493L222.589 7.7917C221.989 7.76426 221.383 7.75523 220.784 7.71864C220.574 7.7095 218.792 7.53577 218.738 7.57235C218.096 7.9839 217.518 7.59972 216.938 7.54485C216.163 7.47168 215.352 7.38026 214.642 7.53574C213.634 7.76437 212.768 7.52655 211.941 7.40766C211.462 7.34365 211.399 6.95047 211.53 6.65781L211.307 6.45651C211.117 6.50224 210.923 6.54793 210.741 6.6028L210.693 6.69425C210.517 7.06007 210.321 6.85898 210.04 6.71265L209.42 6.78571C209.261 6.91374 209.306 7.08758 209.159 7.22476C208.718 7.61801 207.85 7.78266 207.149 7.49001C206.586 7.26137 206.322 7.29792 205.829 7.45339C205.31 7.60886 204.775 7.89237 204.201 7.45339C204.114 7.38023 203.549 7.38945 203.28 7.43517C202.774 7.53577 202.409 7.50819 202.038 7.33443C201.5 7.0875 201.612 7.3893 201.565 7.47161C201.521 7.55392 201.609 7.65452 201.639 7.74597C201.467 7.71854 201.279 7.6911 201.125 7.65452C200.968 7.60879 200.851 7.49001 200.706 7.49001C200.109 7.47172 200.344 6.95036 199.676 7.09669C198.987 7.25216 198.927 6.95958 198.562 6.89556C197.903 6.76752 197.342 6.95043 196.751 7.03274C196.72 7.56317 195.975 7.43503 195.361 7.33443C194.388 7.16067 193.644 7.24308 192.993 7.62719C192.86 7.7095 192.115 8.07521 192.337 7.51734C192.193 7.50819 191.98 7.47168 191.918 7.49912C191.397 7.74604 190.822 7.64537 190.222 7.60879C189.383 7.56307 188.595 7.30714 187.69 7.4809C187.355 7.54492 186.983 7.57235 186.627 7.61808C186.66 7.43517 186.699 7.25226 186.723 7.06936L186.677 6.89556C186.561 6.94129 186.436 6.97787 186.332 7.03274C185.968 7.19736 185.618 7.37112 185.246 7.53574C185.16 7.57232 185 7.57228 184.874 7.59057L184.884 7.41677C184.831 7.37105 184.675 7.34365 184.563 7.31621C184.534 7.70032 183.765 7.54477 183.369 7.65452C182.822 7.80084 182.486 7.49919 182.051 7.38945C181.814 7.33457 181.395 7.35279 181.124 7.40766C180.683 7.49912 180.215 7.76437 180.298 7.26137C179.637 7.39856 179.222 7.16067 178.7 7.06007C178.521 7.02349 178.136 7.1881 177.882 7.2887C177.743 7.33443 177.625 7.50826 177.589 7.49912C176.146 7.27048 174.874 7.88326 173.434 7.71864C173.031 7.67292 172.552 7.72772 172.127 7.78259C171.476 7.85575 170.685 8.1667 170.632 7.50823C170.631 7.50823 170.344 7.49905 170.208 7.51734C169.602 7.60879 169.007 7.76426 168.396 7.7917C167.767 7.80999 167.149 7.61808 166.468 7.80099C166.301 7.84671 165.92 7.67292 165.625 7.62719C165.073 7.52659 164.513 7.44425 163.951 7.36194L163.796 7.52663C163.927 7.59979 164.115 7.65459 164.281 7.72775C164.092 7.72775 163.897 7.74601 163.712 7.73686C163.378 7.70943 163.048 7.67288 162.717 7.6363L162.659 7.4625C162.546 7.50823 162.432 7.55396 162.319 7.59968C161.978 7.25216 161.141 7.47168 160.665 7.27048L160.383 7.29799C160.566 7.99304 159.391 7.63634 158.866 7.76437C158.427 7.86497 157.892 7.89241 157.397 7.90155C157.003 7.9107 156.343 7.89233 156.251 7.78259C155.67 7.12412 155.008 7.50834 154.323 7.70953L153.991 7.6363C154.148 7.17903 153.662 7.41674 153.407 7.51734C153.229 7.59965 153.118 7.73693 153.058 7.85582C152.94 8.08446 152.504 8.13019 152.353 7.99301C151.76 7.47172 150.93 7.80088 150.273 7.87404C149.489 7.94721 148.819 8.19417 148.036 7.81921C147.793 7.70032 147.065 7.85586 146.567 7.84671C146.033 7.82842 145.511 7.71864 144.981 7.71864C144.86 7.71864 144.147 7.74601 144.442 8.10268C144.584 8.2673 143.828 8.2947 143.846 8.06606C143.878 7.65452 143.642 7.82839 143.23 7.90155C143.114 7.91984 142.806 7.49004 142.611 7.93817C141.777 7.99304 140.944 8.05695 140.123 7.91977L140.184 7.77348L140.164 7.81921C140.275 7.81006 140.395 7.81914 140.493 7.7917L140.48 7.66381C140.388 7.6821 140.295 7.70946 140.184 7.77348C139.274 7.7369 138.41 7.60883 137.459 7.73686C137.123 7.78259 136.98 7.85586 136.741 7.93817C136.254 8.10279 135.622 8.27651 134.966 8.13019L134.853 7.94728C135.466 7.73693 134.802 7.64541 134.703 7.69114C134.013 8.02037 133.103 7.91973 132.324 8.06606C130.704 8.36786 130.651 8.37708 129.363 8.18502C128.091 7.99297 126.987 8.368 125.786 8.39544C125.332 8.40458 125.38 8.32213 125.458 8.20324C125.658 7.90144 125.492 7.75523 124.868 7.71864C124.407 7.70035 123.93 7.57235 123.856 7.9839C123.84 8.0662 123.483 8.23082 123.398 8.21253C122.722 8.07535 122.822 8.9258 121.904 8.50511L121.992 8.51422L121.938 8.34971L121.682 8.35882C121.727 8.40455 121.77 8.45024 121.904 8.50511C121.312 8.85264 120.689 8.56906 120.053 8.4776L120.01 8.2947C120.003 8.15751 120.005 8.02048 120.004 7.89244C119.88 7.99304 119.748 8.09353 119.633 8.19413C119.354 8.45935 118.808 8.53262 118.204 8.39544L118.067 8.33131C117.604 8.27644 117.143 8.20331 116.673 8.18502C115.789 8.14844 116.947 8.53251 116.42 8.55995C115.511 8.61482 114.424 8.81613 113.732 8.62407C112.967 8.42287 112.59 9.21845 111.915 8.68802C111.547 8.39537 110.858 8.36789 110.133 8.55995C109.762 8.66055 109.086 8.38619 108.925 8.83431C108.794 8.79773 108.667 8.75211 108.532 8.71553C108.363 8.67894 108.056 8.59649 108.034 8.61478C107.538 9.00804 106.684 8.65147 106.123 8.90754C105.986 8.97156 105.735 9.03554 105.593 9.00811C103.613 8.65144 101.625 9.33731 99.6494 9.06294C98.6691 9.38303 97.6411 8.97145 96.6008 9.16351C96.1691 9.24582 95.5911 9.10867 95.1187 9.33731C94.9684 9.41961 94.4554 9.42872 94.434 9.39214C94.0714 8.87086 93.3176 9.20012 92.9438 9.29158C92.2367 9.4562 91.6405 9.35567 91.0167 9.27336C90.8603 9.25507 90.6876 9.09034 90.6733 8.9806C90.6378 8.70624 90.4214 8.77954 90.2122 8.89843C89.9856 9.01732 89.8424 9.19098 89.5956 9.29158C89.3436 9.40132 89.0074 9.49288 88.7098 9.49288C87.1687 9.50203 85.6215 9.52032 84.0896 9.44716C83.5106 9.42887 83.0687 9.55683 82.8574 9.73974C82.3952 10.133 81.8558 9.59348 81.4556 9.8587C81.0848 9.44716 80.5484 9.63921 80.0009 9.72152C79.3954 9.82212 78.6498 10.0233 78.1784 9.90443C77.51 9.74895 76.8111 9.80368 76.3499 9.89514C75.5921 10.0506 75.0303 9.86781 74.3985 9.82208C73.8458 9.77636 73.342 9.71223 72.9072 9.98659C72.313 10.3616 72.1616 10.3891 72.0356 10.0507C71.931 9.77636 71.6801 9.75799 71.3835 9.74885C71.0107 9.7397 70.6195 9.84041 70.262 9.81297C69.9948 9.79468 69.7886 9.59345 69.5153 9.54772C69.301 9.51114 68.9475 9.53847 68.791 9.62078C68.3187 9.8677 67.8381 9.84948 67.2855 9.78547C67.0661 9.75803 66.7278 9.79457 66.5673 9.88603C66.0858 10.1421 65.5809 10.0782 65.0578 10.005C64.0267 9.85866 63.023 9.98663 62.0295 10.1604C60.326 10.453 58.6224 10.5537 56.8843 10.3342C56.2585 10.2519 55.4966 9.97748 55.076 10.5719C54.8231 10.4805 54.5844 10.3434 54.3132 10.3251C54.0348 10.2976 53.7138 10.4348 53.4284 10.4165C52.8239 10.3891 52.2307 10.2976 51.6323 10.2336C51.4332 10.2062 51.0838 10.1421 51.0564 10.1695C50.2945 11.02 49.1679 10.2153 48.2648 10.4348C47.2459 10.6908 46.3164 10.2702 45.329 10.2794C44.7896 10.2794 44.1039 9.86781 43.7382 10.3251C43.3532 10.8098 42.8057 10.3343 42.3577 10.5446C41.0645 11.1665 39.4168 11.0933 37.9509 11.1482C36.4962 11.203 35.0151 11.5322 33.5472 11.2578C32.9651 11.6602 32.9103 10.8738 32.4745 11.0933C32.0326 11.3128 31.612 11.2305 31.1488 11.1939C30.5769 11.1573 29.8648 10.8188 29.5092 11.4499C29.4899 11.4773 29.1415 11.4681 28.9545 11.4499C28.2881 11.3767 27.6248 11.3037 26.9595 11.2305C26.4952 11.1756 26.0208 11.0567 25.5677 11.0933C25.2833 11.1116 25.0334 11.3493 24.7632 11.4865C24.0125 11.8706 23.1541 11.5322 22.3099 11.6603C21.2189 11.8249 19.9542 11.7243 18.8388 11.5597C17.8991 11.4225 17.0133 11.6693 16.1142 11.5413C15.1898 11.4224 14.2593 11.3037 13.3207 11.2305C12.9661 11.2031 12.5578 11.3768 12.2144 11.3402C11.8701 11.2945 11.5917 11.0202 11.2575 11.0019C10.3016 10.947 9.33146 10.956 8.36945 10.9835C8.14901 10.9926 8.01692 11.1481 7.7782 10.9469C7.2337 10.4987 6.39768 10.3708 5.53624 10.3251C4.92876 10.2976 4.71138 10.1421 4.9115 9.74885C4.95518 9.66654 4.8038 9.44712 4.75605 9.45627C3.97182 9.49285 3.74731 9.09042 3.43138 8.77947C3.03012 8.38622 2.66242 8.02959 1.76034 7.99301C1.37331 7.98386 0.960876 7.81921 1.48505 7.31621C2.20326 6.62116 1.48811 5.80726 0.961902 5.11221C0.609403 4.65494 -0.0173984 4.25254 1.03908 3.83186L1.12236 3.59411C0.400097 3.24659 1.74714 3.0361 1.25242 2.67028C0.905001 2.41421 1.03707 2.09423 1.49522 1.91132C1.7502 1.81073 2.14229 1.8382 2.37898 1.71931C2.50596 1.66444 2.37493 1.4174 2.47144 1.28937C2.54559 1.18877 2.88384 1.05169 2.95089 1.07913C3.80623 1.4358 4.13032 0.512081 4.96433 0.768152C5.50273 0.932769 6.10917 0.905261 6.67297 0.740644C7.02343 1.2162 7.65834 0.832098 8.14391 0.923552C8.72802 1.0333 9.3345 1.10646 9.93995 1.15219C10.2386 1.17962 10.6104 1.14308 10.8552 1.05162C11.3753 0.841279 11.6598 0.768152 11.5612 1.27115L12.185 1.3626C12.3993 1.15226 12.4684 0.905369 13.0444 1.0334C13.7606 1.19802 14.4808 1.24375 15.1157 0.850496C15.1705 0.82306 15.586 1.06077 15.8593 1.09735C16.0645 1.12479 16.3581 0.951096 16.5328 0.987677C17.38 1.18888 18.4731 0.960169 19.1059 1.55462L19.6728 1.62785C20.5383 1.15229 21.7024 1.52711 22.6329 1.20702C23.3115 0.969243 24.0551 0.868715 24.879 1.0059C25.2782 1.06991 25.7495 0.960097 26.1884 0.932662C27.062 0.941807 27.4988 0.941878 28.3725 0.960169C28.854 1.22539 29.495 0.512046 29.942 1.05162C30.3727 1.57291 30.8867 1.02426 31.3591 1.0334C32.1291 1.04255 32.9042 1.01511 33.6711 1.12486C33.8042 1.14315 33.9667 1.19802 34.0653 1.17058C34.8495 0.951096 35.5799 0.786443 36.5165 0.951059C37.2957 1.09739 38.2455 1.15219 39.0013 1.01501C39.8373 0.859534 40.6581 0.97846 41.4657 0.914442C42.2936 0.85957 43.2648 0.914442 44.1659 0.960169C44.8404 0.996751 44.8241 1.0059 46.1853 0.731535C46.3855 0.694953 46.9513 0.356646 47.2987 0.80477C47.4237 0.969386 48.9231 0.868787 49.1963 0.759042C49.2979 0.713315 49.4666 0.62179 49.494 0.64008C50.0019 0.877861 50.5555 0.886971 51.1528 0.786371C51.6994 0.694918 52.251 0.585279 52.8077 0.576135C53.2678 0.557844 53.7371 0.713315 54.2024 0.713315C54.5671 0.713315 54.5153 1.19791 55.1177 0.923552C55.3351 0.822952 55.8735 0.96024 56.2676 0.987677C56.6618 1.00597 56.9929 0.649226 57.4846 1.0059C57.8859 1.2894 58.1805 0.80477 58.5705 0.80477C58.7504 0.80477 58.9698 0.941878 59.0947 1.05162C59.1892 1.12479 59.1902 1.45409 59.3385 1.26204C59.7114 0.777333 60.6439 1.42651 60.8552 0.932662C61.5399 0.868644 62.2225 0.80477 62.9103 0.759042C63.2882 0.731606 63.6813 0.713172 64.0531 0.749754C64.8983 0.822917 65.7597 1.07902 66.5033 0.603463C67.1514 1.12475 67.6187 0.329209 68.2851 0.530408C68.9007 0.722461 69.7957 0.566846 70.2183 1.02412C71.1488 0.932662 72.1453 0.932734 72.9865 0.731535C73.5949 0.585209 74.1374 0.475464 74.6768 0.64008C75.2894 0.813843 76.1498 0.192028 76.5825 0.850496C76.5937 0.859641 77.0488 0.795624 77.2875 0.759042C77.7101 0.676734 78.1297 0.585244 78.5441 0.493791C79.0399 0.384046 78.852 0.585137 78.8611 0.704027C78.8875 1.0607 79.4625 0.914442 79.7683 1.0059C80.3351 0.365719 81.2016 0.786478 81.9696 0.80477C82.2693 0.80477 82.7813 0.7589 82.8463 0.6583C83.1724 0.16445 83.8845 0.548592 84.3761 0.420556C84.7429 0.329102 85.263 0.393084 85.7049 0.429666C86.0746 0.457102 86.675 0.649261 86.7482 0.585244C87.0519 0.356609 87.6969 1.06988 87.765 0.466283C87.767 0.447992 88.28 0.402336 88.4852 0.448064C89.1506 0.61268 89.9643 0.347428 90.5718 0.685808C90.6134 0.704099 90.8796 0.621718 91.0269 0.566846C91.2128 0.502829 91.4261 0.347428 91.5541 0.365719C93.1551 0.62179 94.7977 0.210176 96.3906 0.475392C96.5104 0.493683 96.7248 0.512116 96.7634 0.484681C97.4023 -0.0274611 97.9753 0.493754 99.0277 0.64008C99.1984 0.658372 99.0805 0.603428 98.9434 0.566846C98.8316 0.530265 98.6986 0.5303 98.5746 0.51201C98.6376 0.603463 98.66 0.722461 98.7737 0.759042C98.9027 0.795624 99.113 0.768116 99.0277 0.64008C99.1212 0.210248 99.7794 0.210212 100.495 0.283375C100.863 0.319957 101.26 0.310811 101.637 0.283375C101.908 0.27423 102.167 0.201031 102.43 0.155304C102.31 0.365648 102.618 0.71328 101.804 0.676698C101.686 0.676698 101.562 0.713243 101.44 0.731535L101.651 0.886934L101.846 0.905333C102.905 1.06995 102.947 1.06991 103.163 0.5029C103.304 0.137085 103.461 -0.137205 104.304 0.0731382C104.768 0.192028 105.389 -0.155603 105.801 0.237648C105.866 0.301666 106.476 0.28334 106.696 0.201031C107.565 -0.128203 108.385 0.0182304 109.062 0.310883C109.476 0.493791 109.673 0.438882 110.08 0.365719C110.819 0.237684 111.609 0.210212 112.371 0.374829C113.709 0.658336 115.089 0.5303 116.381 0.374829C117.04 0.292521 117.309 0.274337 117.642 0.576135C117.869 0.786478 118.517 0.768188 118.612 0.530408C118.865 -0.0823336 119.327 -0.0549688 120.059 0.319992C120.105 0.347428 120.324 0.301737 120.419 0.265156C120.551 0.210283 120.642 0.127868 120.75 0.0638504C121.163 0.502829 121.773 0.310883 122.433 0.265156C123.004 0.228574 123.634 0.365684 124.215 0.466283C124.5 0.51201 124.728 0.71328 124.994 0.722425C125.176 0.722425 125.348 0.493683 125.589 0.429666C125.686 0.402229 125.982 0.539553 126.127 0.621861C126.267 0.713315 126.328 0.832063 126.423 0.932662C126.437 1.27104 126.785 1.26193 127.17 1.10646C127.294 1.06073 127.25 0.905333 127.317 0.813879C127.629 0.347465 127.793 0.274337 128.731 0.3475C129.23 0.384082 129.64 0.447956 129.768 0.109577L129.933 0.0547409C130.129 0.466283 130.772 0.0456305 130.967 0.182812C131.422 0.512046 131.943 0.310776 132.429 0.292484C133.178 0.274194 133.928 0.173594 134.669 0.201031C135.058 0.210176 135.428 0.411375 135.805 0.521119C135.462 0.886934 136.066 1.09742 136.341 1.35349L136.599 1.39922L136.752 1.22542C136.746 1.04251 136.244 0.704134 136.671 0.722425C137.608 0.749861 137.627 0.0547047 138.582 0.201031C138.807 0.237613 139.09 0.210283 139.329 0.173702C140.13 0.073103 140.979 -0.137205 141.369 0.484681C142.42 0.585279 143.086 1.05162 144.001 1.23453C144.741 1.39 145.656 1.3168 146.493 1.33509L146.627 1.1613C146.448 1.06984 146.21 1.01497 146.026 0.932662C145.653 0.7589 145.886 0.62179 146.23 0.594354C146.585 0.566917 147.183 0.548627 147.3 0.64008C147.663 0.932734 148.235 0.877861 148.721 0.960169C148.796 0.969315 148.922 0.914371 149.024 0.886934C148.929 0.841208 148.845 0.786478 148.734 0.759042C148.615 0.731606 148.426 0.749897 148.349 0.713315C148.201 0.631007 148.109 0.521119 147.995 0.429666C148.146 0.393084 148.368 0.292556 148.44 0.319992C149.141 0.548627 150.122 0.0547762 150.701 0.548627C151.467 0.191957 152.385 0.804662 153.153 0.466283L153.321 0.685808C153.324 0.932734 153.615 0.950953 153.971 0.886934C154.159 0.859499 154.313 0.740644 154.491 0.740644C155.088 0.722354 155.138 0.0273046 155.76 0.374829C156.262 0.658336 156.959 0.191921 157.163 0.603463C158.095 0.667481 159.058 0.841279 159.951 0.777262C160.852 0.713243 161.633 0.832098 162.472 0.877825C163.252 0.923552 162.602 0.713172 162.622 0.612574L162.91 0.539517C163.34 0.61268 163.988 0.640045 164.135 0.786371C164.492 1.14304 165.353 0.585137 165.522 1.02412C165.969 0.877789 166.028 0.685843 165.79 0.448064C165.558 0.219429 165.959 0.246901 166.124 0.301773C166.645 0.475535 167.058 0.795481 167.815 0.521119L168.014 0.621861C167.836 0.996822 168.204 0.932734 168.563 0.777262C169.01 0.576063 169.241 0.676591 169.404 0.886934C169.489 0.996679 169.414 1.17966 169.559 1.23453C169.801 1.31684 170.162 1.31687 170.472 1.3626C170.419 1.262 170.399 1.15219 170.31 1.06073C169.905 0.640045 169.898 0.649226 170.939 0.64008C171.122 0.630936 171.394 0.539553 171.468 0.576135C171.675 0.667588 171.801 0.795552 171.959 0.914442C171.633 0.996751 171.322 1.14308 171.665 1.28026C171.935 1.38086 172.471 1.58206 172.788 1.23453L173.201 1.10646C173.914 1.24364 174.159 1.11561 174.27 0.786371C174.326 0.612609 174.968 0.61268 174.986 0.768152C175.019 1.0608 175.081 1.20713 175.664 0.951059C176.284 0.685843 176.952 0.676734 177.716 0.80477C178.228 0.887077 178.804 0.896187 179.295 0.996786C179.778 1.09739 179.303 1.15226 179.172 1.22542C178.936 1.35346 178.811 1.50882 179.306 1.57284C179.587 1.60942 180.169 1.72831 180.136 1.52711C180.062 1.05155 180.997 1.02422 181.394 0.768152C181.654 0.59439 182.183 0.667588 182.134 0.80477C181.997 1.17058 182.514 1.17966 182.943 1.1888C183.807 1.20709 184.694 0.82306 185.572 1.26204C185.656 1.30777 186.332 1.09731 186.405 0.832098C186.478 0.566882 186.689 0.649261 186.948 0.813879C187.168 0.960205 187.506 1.06077 187.768 1.1888C188.501 1.55462 189.554 1.52718 190.007 1.05162C190.268 0.777262 190.66 0.896187 190.956 0.859606C192.01 0.740716 192.203 0.804626 193.01 1.29848C193.098 1.35335 193.353 1.34428 193.531 1.37171L193.499 1.1613L193.777 1.05162C194.01 1.15222 194.247 1.25282 194.439 1.37171C194.61 1.47231 194.672 1.58213 194.946 1.39922C195.145 1.26204 195.507 1.09735 195.804 1.09735C196.318 1.0882 196.964 1.14304 197.326 1.28937C197.827 1.49057 198.091 1.65515 198.392 1.25275H198.668C199.245 1.66429 199.758 1.39 200.037 1.1888C200.551 0.813843 200.547 1.20713 200.713 1.27115C200.973 1.37175 200.507 1.63696 201.208 1.68269C201.69 1.71013 201.983 1.71009 202.053 1.46317C202.986 1.41744 203.918 1.35342 204.855 1.32598C205.008 1.31684 205.216 1.4448 205.349 1.52711C205.442 1.58198 205.45 1.66436 205.496 1.73753L205.726 1.60946C205.892 1.24364 206.149 1.08828 206.802 1.49067L207.448 1.48138C207.698 1.15215 207.963 1.21617 208.407 1.43566C208.652 1.55455 209.161 1.5638 209.385 1.68269C209.997 2.01192 210.2 1.89293 210.387 1.57284C210.473 1.41737 210.623 1.39922 210.797 1.49067C211.329 1.77418 211.832 1.70087 212.37 1.52711C212.752 1.40822 213.073 1.39 213.351 1.60035C213.581 1.78325 213.891 1.73753 214.192 1.64607C214.965 1.39915 215.614 1.49053 216.295 1.75575C216.576 1.87464 217.083 2.03929 217.425 1.74664C217.689 1.77407 217.951 1.81069 218.219 1.82898C218.471 1.84727 218.729 1.8472 218.986 1.8472C218.882 1.75575 218.766 1.66433 218.681 1.56373L218.597 1.3626C218.777 1.38089 219.025 1.37171 219.124 1.41744C219.348 1.52718 219.439 1.71013 219.698 1.77414C219.901 1.82902 220.329 1.69184 220.564 1.72842C220.892 1.79243 221.14 1.94787 221.411 2.05762C221.567 2.13078 221.514 2.11249 221.95 1.96616C222.476 1.78325 223.077 1.65522 223.662 1.50889C223.746 1.4906 223.917 1.53633 224.048 1.55462L223.922 1.72842C223.799 2.02107 224.104 2.21312 224.75 2.27714L224.859 2.34109C225.295 1.95698 226.497 2.15818 226.982 1.88382C227.326 1.68262 227.294 1.81069 227.584 1.87471C228.101 1.98445 228.111 2.14911 228.198 2.32287C228.533 2.2497 228.852 2.14903 229.211 2.11245C229.442 2.08502 229.737 2.14911 229.995 2.18569C230.358 2.23141 230.5 2.17651 230.771 2.05762C230.995 1.95702 231.6 1.70094 232.117 2.01189L232.257 2.05762C232.823 2.05762 233.469 2.11249 233.932 2.01189C234.479 1.90214 234.892 2.26796 235.504 2.10334C235.615 2.13078 235.57 2.0942 235.525 2.05762L235.307 2.11245L235.506 2.21302C235.519 2.21302 235.603 2.18565 235.504 2.10334C235.477 1.97531 235.588 1.91132 235.743 1.8656C235.907 1.82902 236.188 1.68273 236.247 1.90222C236.277 2.00281 236.091 2.12167 236.098 2.23141C236.104 2.32287 236.257 2.40507 236.346 2.48738C236.505 2.45994 236.702 2.45094 236.818 2.40521C237.041 2.31376 237.214 2.20394 237.413 2.10334C237.519 2.04847 237.635 2.00278 237.746 1.95705L237.793 2.18569C238.426 2.27714 239.092 2.35034 239.429 2.63385L239.696 2.5331C239.961 2.26789 240.309 2.15825 240.89 2.41432C241.768 2.39603 242.207 2.39599 243.086 2.3777C243.402 2.6795 243.826 2.47837 244.241 2.45094C244.477 2.43265 244.748 2.50581 245.003 2.54239C244.883 2.60641 244.745 2.67032 244.658 2.75263L244.917 2.85319C245.393 2.80747 246.124 2.81668 246.285 2.69779C246.788 2.31369 247.464 2.42347 248.167 2.50577C248.773 2.57894 249.333 2.61548 249.855 2.42343C250.204 2.29539 250.274 2.47837 250.369 2.54239C250.585 2.70701 250.773 2.81672 251.22 2.64296C251.446 2.56065 251.724 2.46923 251.942 2.67957C252.179 2.90821 252.495 3.06364 253.164 2.87159C253.315 2.82586 253.809 2.87152 253.913 2.93554C254.403 3.22819 254.713 3.04525 255.059 2.89892C255.174 2.85319 255.28 2.79836 255.391 2.75263L255.428 2.98126C255.395 3.08186 255.261 3.19161 255.276 3.30135C255.283 3.34708 255.524 3.40199 255.686 3.42942L256.027 3.39281C256.16 3.2099 256.252 3.01788 256.359 2.83497C256.624 2.86241 256.889 2.88984 257.321 3.01788C257.444 3.06361 257.392 2.99955 257.339 2.93554L257.123 2.99037C257.131 3.07268 257.18 3.15506 257.213 3.24652C257.292 3.20993 257.37 3.17335 257.321 3.01788C257.221 2.8807 257.281 2.80747 257.359 2.80747C257.527 2.79832 257.734 2.8075 257.876 2.84408C259.109 3.16417 259.106 3.16417 260.286 2.98126C260.41 3.03614 260.357 2.96294 260.306 2.89892L260.089 2.95393C260.097 3.03624 260.145 3.12759 260.179 3.2099C260.257 3.17332 260.335 3.13673 260.286 2.98126C260.193 2.84408 260.306 2.76188 260.332 2.77103C260.643 2.8259 261.025 2.96297 261.228 2.93554C261.682 2.86237 261.911 2.86234 262.226 3.0361C262.562 3.21901 262.928 3.17342 263.018 2.95393C263.164 2.58812 263.457 2.78014 263.774 2.91732L264.121 2.98126C264.362 3.08186 263.912 3.35633 264.608 3.31975C264.929 3.30146 265.264 3.17335 265.474 3.06361C266.017 2.77096 266.068 2.74359 266.542 3.04539C266.882 3.27402 267.12 3.19168 267.425 3.10022C267.873 2.9539 268.31 3.00866 268.696 3.12755C269.561 3.39277 270.211 3.42946 271.479 3.37459C272.255 3.33801 273.186 3.15506 273.764 3.5666C274.308 3.53917 274.977 3.58489 275.373 3.47515C276.205 3.25566 277.216 3.34711 277.607 3.52088C278.429 3.88669 279.166 3.67631 279.888 3.62144C280.439 3.57571 280.924 3.33801 281.323 3.69467C281.95 3.68553 282.578 3.67635 283.204 3.65806C283.39 3.64891 283.57 3.62144 283.756 3.62144C284.315 3.6123 284.04 4.16102 284.952 3.8958C285.564 3.72204 286.105 3.85918 286.672 3.90491C287.273 3.95064 287.86 4.03302 288.464 4.0696C288.686 4.07875 288.937 4.01473 289.179 3.97815C289.419 3.95071 289.81 3.87762 289.881 3.9142C290.765 4.28001 291.971 3.98729 292.935 4.16105C294.02 3.93242 295.096 4.48118 296.182 4.19767C296.398 4.31656 296.545 4.48118 297.088 4.38058C298.228 4.16109 299.177 4.26172 299.946 4.64583L300.21 4.69156C300.73 4.12454 301.295 4.84699 301.981 4.70067C302.515 4.59092 303.328 4.64583 304.019 4.64583C304.588 4.63669 305.163 4.65498 305.732 4.64583C306.201 4.64583 306.748 4.52683 306.908 4.81034L307.128 4.92019C307.682 4.64583 308.291 4.87436 308.901 4.90179C309.206 4.92008 309.663 4.77376 309.841 4.81034C310.123 4.87436 310.278 4.92005 310.668 4.9109C311.995 4.9109 313.322 5.01154 314.655 4.90179C315.269 4.85607 315.72 5.12128 316.411 5.13043C316.589 5.13043 316.865 5.30423 317.201 5.21277C317.796 5.03901 318.407 5.07563 319.084 5.15794C319.798 5.24024 320.536 5.29505 321.264 5.35906C322.676 5.4871 323.626 5.45052 325.82 5.35906C326.495 5.33163 327.2 5.35003 327.871 5.28601L328.111 5.34084C327.852 5.77068 328.94 5.45052 329.118 5.54197C329.426 5.70659 329.618 5.60606 329.874 5.56948C329.915 5.65179 329.868 5.77061 330.014 5.81633C330.382 5.93522 330.808 6.04493 331.269 6.0998C331.504 6.13639 332.004 6.0908 332.137 6.01764C332.638 5.77071 333.353 5.78893 334.11 5.80722C334.747 5.82551 335.405 5.86202 336.014 5.82544C336.44 5.79801 336.77 5.68833 336.574 5.9444L336.646 5.99924C337.243 5.98095 337.945 5.88035 338.413 5.95351C338.941 6.02668 339.168 6.23709 339.658 5.93529C339.844 5.82555 340.566 5.9718 341.132 5.90779C341.693 5.83462 342.491 6.08162 343.217 5.93529L343.406 5.95351C343.948 6.31018 344.909 6.09984 345.666 6.13642C346.135 6.15471 346.638 6.05422 346.847 6.292C346.893 6.34687 347.242 6.38331 347.451 6.41989L347.354 6.22787C347.342 6.09984 347.734 6.00839 347.988 6.09069C348.374 6.20958 348.759 6.38331 349.294 6.28271C349.958 6.15468 349.869 6.48405 350.399 6.42918C350.858 6.37431 351.403 6.40167 351.868 6.35595C352.238 6.31936 352.469 6.31015 352.702 6.41989C353.175 6.65767 354.349 6.48391 354.715 6.78571C354.811 6.76742 354.962 6.75831 354.993 6.73087C355.275 6.49309 355.535 6.56629 355.947 6.72176C356.22 6.82236 356.664 6.88638 357.052 6.9504C357.119 6.96869 357.295 6.923 357.405 6.89556C357.529 6.87727 357.638 6.84065 357.753 6.81321C358.048 7.06929 358.607 6.88638 359.049 6.90467C359.536 6.9321 359.97 6.98694 360.091 6.7766C360.194 6.80403 360.344 6.82236 360.39 6.85894L360.506 7.02363C360.578 7.0785 360.724 7.12419 360.838 7.16992C360.932 7.11505 361.09 7.06921 361.108 7.01434C361.173 6.84058 361.489 6.84072 361.953 6.88645C362.419 6.92303 362.408 6.99619 362.333 7.11508C362.295 7.1791 362.375 7.28881 362.511 7.3071C362.965 7.38026 363.072 7.27056 363.118 7.16081C363.175 7.03278 363.385 7.00527 363.806 7.04185C364.161 7.07843 364.727 7.14241 364.234 6.91378C364.373 6.89549 364.534 6.84976 364.648 6.86805C365.021 6.90463 365.481 6.93207 365.713 7.00523C365.988 7.10583 366.131 7.06936 366.317 7.02363C366.72 6.92303 367.141 6.94132 367.629 6.9779C367.912 6.99619 368.369 6.99616 368.527 6.94129C369.03 6.76752 369.701 6.98691 370.236 6.87716C370.339 6.84972 370.817 6.96869 371.089 7.04185C371.861 7.22476 371.85 7.22469 372.199 6.92289L372.467 6.78571C372.583 6.82229 372.734 6.86805 372.807 6.91378C373.011 7.05096 373.214 7.08761 373.665 6.98701C374.135 6.88641 374.687 6.81325 374.595 7.12419L374.976 7.15152C375.353 7.09665 375.544 7.15156 375.815 7.23387C375.943 7.27045 376.341 7.22469 376.601 7.24298C376.729 7.25212 376.918 7.31625 376.91 7.35283C376.888 7.45343 376.757 7.54481 376.705 7.64541L376.856 7.73686L377.094 7.65452C377.023 7.48076 378.067 7.27056 376.866 7.11508L376.906 7.04185C377.024 7.0327 377.161 7.05099 377.286 7.04185C378.039 7.02356 377.71 7.2613 378.109 7.32532C378.334 7.14241 378.762 7.16081 379.344 7.20654C379.818 7.24312 380.348 7.21565 380.853 7.21565C380.68 7.27052 380.328 7.3345 380.365 7.36194C380.551 7.48997 380.839 7.59975 381.092 7.71864C381.194 7.67292 381.421 7.61801 381.378 7.59057C381.133 7.42596 381.053 7.33447 381.836 7.41677C382.499 7.48994 382.424 7.33447 382.534 7.23387C382.778 7.29788 382.996 7.37105 383.273 7.41677C383.622 7.4625 384 7.50823 384.182 7.32532C384.334 7.17899 384.975 7.15152 385.331 7.24298C385.645 7.31614 385.991 7.3345 386.2 7.27048C386.401 7.21561 386.636 7.11505 386.823 7.12419C387.339 7.14248 387.845 7.21561 388.335 7.27048L388.314 7.42588L388.369 7.59057C388.478 7.55399 388.648 7.51734 388.684 7.47161C388.785 7.35272 388.874 7.2613 389.464 7.32532C389.908 7.38019 390.384 7.40759 391.011 7.51734C391.133 7.55392 391.082 7.49912 391.03 7.45339L390.814 7.49001L390.9 7.67292C390.978 7.64548 391.056 7.62708 391.011 7.51734C390.987 7.30699 391.33 7.3345 391.564 7.40766C391.732 7.45339 391.744 7.54492 391.824 7.61808C392.049 7.5815 392.273 7.54481 392.498 7.50823C392.835 7.4625 393.177 7.48083 393.244 7.59057C393.31 7.69117 393.053 7.72782 392.622 7.70953C392.488 7.70953 392.311 7.82835 391.703 8.09357C391.679 8.18502 391.905 8.14841 391.955 8.10268C392.026 8.03866 392.073 7.91988 391.94 7.89244C391.681 7.82842 391.309 7.82835 391.255 7.95639C391.225 8.0387 391.251 8.11186 391.703 8.09357C392.588 7.88322 393.155 8.1119 393.487 7.85582C393.528 7.82839 393.934 7.81003 394.138 7.82832C394.811 7.87404 394.66 7.82835 394.533 7.68203C394.394 7.51741 394.854 7.49004 395.563 7.57235C396.098 7.63637 396.648 7.73697 397.243 7.61808C397.404 7.59064 397.755 7.56314 397.847 7.59057C398.391 7.71861 399.104 7.55396 399.574 7.69114C400.011 7.81003 400.122 7.77344 400.593 7.69114C401.061 7.60883 401.932 7.6911 402.626 7.70025C403.347 7.70939 404.003 8.01126 404.823 7.77348C404.879 7.75519 405.498 7.85575 405.784 7.91977C406.22 8.02037 406.461 8.01122 406.624 7.87404H406.983L407.139 8.04784C407.283 7.99297 407.39 7.9107 407.582 7.90155C407.918 7.87411 408.409 7.9381 408.419 7.77348L408.747 7.74597C409.005 7.90144 409.689 7.81006 410.049 7.91066C410.208 7.96553 410.502 7.97464 410.735 8.01122C410.636 8.13011 411.015 8.17584 411.264 8.14841C411.65 8.10268 411.761 8.01133 411.226 7.93817C412.72 7.84671 412.862 7.85572 413.694 8.02033C413.98 8.07521 414.216 8.22153 414.771 8.11179C414.884 8.0935 415.391 8.23079 415.629 8.22164C415.98 8.1942 416.643 8.27651 416.674 8.08446H417.192C417.458 8.32224 418.598 8.20338 418.97 8.39544C419.356 8.59664 420.282 8.36793 420.721 8.55084C421.122 8.45938 421.576 8.37711 421.895 8.26737C422.013 8.23079 420.828 8.1393 420.284 8.18502C420.098 8.20331 419.942 8.23068 419.756 8.24897L419.543 8.1668C419.664 7.95646 419.906 7.92902 420.697 8.02962C420.941 8.05706 421.214 8.07528 421.469 8.09357C422.671 8.21246 423.092 8.34957 422.853 8.66051C422.704 8.85256 423.143 8.8526 423.59 8.88004L423.858 8.8252C423.763 8.71545 423.447 8.52333 423.524 8.52333C424.348 8.42273 423.491 8.33128 423.482 8.24897C423.476 8.18495 423.487 8.12108 423.589 8.07535C423.625 8.0662 423.983 8.07524 424.133 8.10268C424.316 8.13011 424.52 8.18502 424.564 8.23075C424.652 8.33135 424.104 8.42273 424.581 8.52333C424.713 8.44102 424.837 8.34971 424.983 8.25826L425.208 8.19413L425.395 8.25826C425.263 8.35886 425.416 8.43191 425.836 8.42277C426.002 8.42277 426.118 8.34057 426.292 8.30398C426.366 8.28569 426.532 8.29473 426.81 8.33131C426.922 8.3496 426.877 8.33142 426.832 8.30398L426.614 8.33131L426.811 8.39544C426.824 8.39544 426.909 8.37704 426.81 8.33131C426.94 8.14841 427.252 8.21253 427.495 8.30398C427.699 8.38629 427.823 8.4776 427.982 8.56906C428.238 8.48675 428.498 8.41362 428.749 8.33131C429.216 8.17584 429.126 8.37715 429.337 8.39544C429.535 8.40458 429.728 8.42287 429.924 8.44116C430.111 8.58749 430.198 8.77029 431.171 8.6514C431.341 8.63311 431.731 8.70635 431.907 8.67891C432.13 8.66062 432.239 8.5782 432.397 8.52333C433.318 8.55991 433.888 8.38629 434.69 8.34971C435.365 8.31313 435.633 8.34049 435.395 8.50511C435.185 8.65144 435.588 8.66969 435.998 8.69713C436.623 8.72456 436.574 8.65151 436.488 8.53262C436.398 8.41373 437.165 8.32217 437.412 8.42277C438.039 8.66055 439.227 8.49597 439.87 8.68802L440.351 8.66051C440.595 8.46846 440.734 8.62407 441.027 8.6698C441.223 8.69724 441.622 8.66058 441.921 8.64229C442.151 8.624 442.14 8.62397 442.452 8.74286C442.519 8.77029 442.63 8.79783 442.728 8.80698C443.139 8.81613 443.745 8.78858 443.93 8.83431C444.642 9.03551 444.37 8.78862 444.616 8.77947C445.052 8.75204 445.427 8.66966 445.856 8.66051C446.149 8.66051 446.469 8.7704 446.812 8.80698C447.101 8.84356 447.473 8.88011 447.75 8.86182C449.15 8.7978 449.396 8.81598 451.045 8.93487C451.754 8.98974 452.553 8.96234 453.31 8.97149C454.772 8.99893 456.234 9.03551 457.695 9.06294L457.892 9.08134C458.262 9.12707 458.621 9.20009 458.998 9.20923C459.347 9.21838 459.706 9.1544 460.074 9.1544C460.32 9.1544 460.505 9.05376 460.866 9.16351C461.446 9.33727 461.924 9.27332 462.373 9.14529C462.5 9.10871 462.977 9.09949 463.26 9.11778C463.527 9.13607 463.758 9.23674 463.989 9.23674C464.287 9.24589 464.561 9.18183 464.863 9.1544C464.961 9.14525 465.207 9.16365 465.231 9.1728C465.572 9.34656 466.143 9.3008 466.7 9.27336C468.025 9.63003 469.797 9.3556 471.258 9.52021C472.552 9.33731 473.809 9.55676 475.083 9.62078C475.459 9.63907 475.874 9.65747 476.22 9.63917C476.654 9.62088 476.79 9.66661 477.025 9.73063C477.395 9.82208 477.703 9.80372 477.828 9.70312C477.902 9.6391 477.959 9.55679 478.435 9.61167C479.093 9.67568 479.82 9.67576 480.315 9.63917C481.153 9.56601 481.813 9.73056 482.635 9.70312C483.63 9.65739 484.751 9.74881 485.8 9.6665C486.256 9.62992 487.072 9.74892 487.733 9.77636C488.439 9.80379 489.046 9.89521 489.873 9.87692C490.582 9.85863 490.904 9.76717 491.419 9.73974C491.755 9.72145 492.552 9.91343 492.876 9.89514C493.54 9.84941 494.054 9.93172 494.615 9.94087C494.979 9.94087 494.984 9.73066 495.735 9.90443C495.96 9.95015 496.543 10.005 496.794 9.99588C497.385 9.9593 497.839 10.0324 498.348 10.0598C498.624 10.069 499.145 10.2792 498.962 10.3067C498.3 10.3981 497.944 10.5537 497.045 10.5903C496.761 10.6086 496.395 10.5993 496.113 10.581C495.675 10.5445 495.329 10.5537 494.993 10.5903C494.611 10.6452 494.271 10.7183 493.831 10.7366C493.471 10.7458 493.121 10.6817 492.723 10.7823C492.415 10.8647 491.44 10.7182 490.701 10.7639C490.212 10.7914 489.698 10.7458 489.575 10.7823C489.272 10.8555 489.046 10.9286 488.344 10.8554C487.536 10.7731 487.058 10.8555 486.964 11.0019C486.896 11.1116 486.498 11.1391 486.101 11.1848C485.675 11.2214 485.27 11.2671 484.971 11.1391C483.643 11.2031 482.308 11.0476 481.043 11.0567C479.705 11.0567 478.418 11.1207 477.068 11.011C476.472 11.1024 475.343 11.0109 475.105 11.2212C475.077 11.2487 474.858 11.2762 474.71 11.2853C474.521 11.2853 474.227 11.2396 474.132 11.2487C473.496 11.3493 472.759 11.1847 472.253 11.2396C471.826 11.2945 471.659 11.4225 471.356 11.5231C470.876 11.6694 470.197 11.6054 469.56 11.5597C469.183 11.5323 468.829 11.4864 468.465 11.4499C468.533 11.6236 467.633 11.4865 467.496 11.5688C467.36 11.6511 467.203 11.6877 466.798 11.6512C465.683 11.5323 464.64 11.6237 463.6 11.6694C462.917 11.6877 462.294 11.7701 461.635 11.825C461.375 11.8432 461.094 11.8524 460.823 11.8707C460.936 11.9256 461.345 11.9895 460.62 11.9895C460.193 11.9895 459.8 11.962 459.398 11.9528C458.97 11.9528 458.547 11.9986 458.113 11.9986C457.883 12.0077 457.527 11.9712 457.415 11.9346C457.056 11.8066 456.989 11.8797 456.846 11.9528C456.821 11.9711 456.569 11.9713 456.477 11.9621C455.544 11.8341 454.623 11.7152 453.559 11.8707C453.461 11.8798 453.31 11.898 453.201 11.8889C452.587 11.8615 451.909 11.7609 451.585 11.9712C450.068 11.8524 448.494 12.081 446.963 11.8889C446.383 11.8157 445.688 11.7791 445.089 11.9071C444.748 11.9711 444.628 11.8798 444.581 11.8341C444.388 11.6694 443.898 11.77 443.351 11.7608C443.325 11.7425 443.454 11.7334 443.583 11.7242L443.356 11.6603C443.19 11.6511 443.009 11.6603 442.834 11.6603C442.932 11.6877 443.029 11.7151 443.351 11.7608C443.614 11.8157 443.689 11.8706 443.765 11.9255C443.512 11.9255 443.256 11.9256 443.005 11.9164C442.89 11.9164 442.719 11.8981 442.686 11.8798C442.272 11.6146 441.302 11.6878 440.665 11.7335C439.284 11.8341 438.071 11.6968 436.798 11.6328C436.535 11.4499 435.831 11.5414 435.559 11.5597C434.769 11.6237 434.206 11.5963 433.597 11.4591C433.418 11.4134 432.927 11.459 432.62 11.4407C432.514 11.4316 432.529 11.3218 432.49 11.2669C432.352 11.3035 432.237 11.3494 432.066 11.3768L431.68 11.3402C430.826 11.1024 430.814 11.0932 429.648 11.3127C429.188 11.395 429.256 11.2121 428.987 11.2487C428.587 11.3036 427.962 11.3493 427.882 11.4316C427.619 11.706 426.867 11.6603 426.092 11.6512C425.521 11.642 424.947 11.6603 424.38 11.642C423.683 11.6238 423.997 11.5048 424.075 11.395L424.054 11.4134C424.166 11.4134 424.286 11.4133 424.383 11.4041L424.374 11.3402C424.282 11.3493 424.189 11.3584 424.075 11.395C423.759 11.4133 423.304 11.3219 423.215 11.4407C423.008 11.7151 422.219 11.6877 421.482 11.6603C420.756 11.642 420.054 11.5596 419.328 11.5322C418.91 11.5139 418.466 11.5415 418.034 11.5506C417.842 11.3037 416.96 11.3767 416.415 11.3493C416.012 11.331 415.588 11.4224 415.735 11.2212C415.746 11.2121 415.402 11.1481 415.267 11.1573C415.017 11.1756 414.8 11.2213 414.566 11.2578L412.011 11.3677C411.577 11.3768 411.065 11.3677 410.724 11.4225C409.888 11.5506 408.648 11.3677 408.038 11.6512C407.439 11.514 406.436 11.8249 405.987 11.514C405.29 11.514 404.522 11.4682 403.91 11.5231C403.089 11.6054 402.477 11.4681 401.769 11.4499C401.427 11.4407 401.057 11.1847 400.792 11.4683L400.531 11.4407C400.693 11.2121 400.34 11.2945 399.851 11.3402C399.275 11.3951 398.617 11.4408 398.01 11.4225C396.706 11.3951 395.413 11.3311 394.114 11.2853C393.739 11.2762 393.353 11.2853 392.973 11.2853C392.054 11.2945 391.113 11.4682 390.223 11.2487C389.168 11.3127 388.165 11.3037 387.276 11.0933C387.192 11.075 386.955 11.0841 386.838 11.1024C386.044 11.2305 385.275 11.3585 384.457 11.0933C384.388 11.075 383.988 11.1482 383.755 11.1391C383.556 11.1391 383.218 11.0749 383.216 11.0383C383.205 10.8371 383.283 10.8554 382.749 10.9926C382.257 11.1206 381.371 11.1755 380.661 11.1664C379.767 11.1664 378.891 11.0201 377.956 11.1115C377.75 10.8646 376.665 11.1939 376.483 10.9286C376.271 10.9469 375.961 10.9469 375.862 10.9835C375.419 11.1755 374.977 11.2761 374.37 11.0383C374.124 10.9469 373.766 10.9012 373.591 11.011C372.98 11.3859 372.759 10.9561 372.255 10.9561L372.343 10.9653L372.295 10.8647L372.039 10.8738C372.081 10.9012 372.124 10.9287 372.255 10.9561C372.209 10.9927 372.054 11.0659 371.945 11.0567C371.087 11.0018 370.233 10.947 369.39 10.8738C369.284 10.8647 369.241 10.7823 369.19 10.7091L369.169 10.7366C369.281 10.7366 369.4 10.7367 369.498 10.7275L369.489 10.6452C369.396 10.6635 369.303 10.6725 369.19 10.7091Z" fill="#C01F1F"/>
</svg>
