<svg width="431" height="20" viewBox="0 0 431 20" fill="none" xmlns="http://www.w3.org/2000/svg">
<path d="M0.20775 10.2139L0.128515 10.1377L0 10.2425L0.089091 10.3283L0.20775 10.2139ZM0.554065 9.48019L0.464974 9.28961L0.336459 9.34679L0.455118 9.49926L0.554065 9.48019ZM1.72172 11.6242L1.61272 11.5194L1.53368 11.6909L1.61272 11.7671L1.72172 11.6242ZM5.45194 12.1101L5.31338 12.215L5.39261 12.2912L5.53118 12.1864L5.45194 12.1101ZM14.0109 4.81108L13.8624 4.74441L13.8031 4.8397L13.9515 4.91591L14.0109 4.81108ZM70.1436 2.26693L70.3019 2.17164L70.2524 2.02871L70.1336 2.15257L70.1436 2.26693ZM73.8441 2.00963L73.765 1.93342L73.6265 2.02871L73.7156 2.11446L73.8441 2.00963ZM74.1707 1.64756L74.042 1.74285L74.1212 1.80952L74.2499 1.71423L74.1707 1.64756ZM83.1451 2.94348L83.0661 2.7624L82.9373 2.81004L83.0562 2.95297L83.1451 2.94348ZM263.694 1.56181L263.615 1.3998L263.476 1.56181H263.694ZM323.636 7.09799L323.567 7.04086L323.418 7.09799L323.498 7.16471L323.636 7.09799ZM114.501 5.91643L114.393 5.82115L114.304 5.97361L114.383 6.04033L114.501 5.91643ZM164.757 4.32515L164.658 4.22987L164.569 4.3728L164.638 4.43947L164.757 4.32515ZM201.565 0.580315L201.407 0.523134L201.347 0.589853L201.486 0.666065L201.565 0.580315ZM290.123 4.93499L290.202 5.08746L290.34 4.93499H290.123ZM353.35 9.08955L353.201 9.13719L353.271 9.19432L353.419 9.14668L353.35 9.08955ZM371.319 10.8714L371.229 10.9381L371.358 11.0143L371.427 10.9667L371.319 10.8714ZM1.18736 10.6618L1.27646 10.7475L1.31588 10.557L1.23684 10.4807L1.18736 10.6618ZM11.468 6.59299L11.5867 6.47862L11.5074 6.40241L11.3789 6.50724L11.468 6.59299ZM345.365 6.92649L345.295 6.86931L345.147 6.91695L345.226 6.97414L345.365 6.92649ZM18.0677 4.68723L18.127 4.59194L18.0379 4.42044L17.9786 4.51573L18.0677 4.68723ZM28.368 9.9757L28.4968 9.86134L28.4175 9.79467L28.279 9.88995L28.368 9.9757ZM32.1083 9.79467L32.1578 9.69938L32.0687 9.53737L32.0192 9.62312L32.1083 9.79467ZM344.029 5.71632L343.95 5.61154L343.881 5.65918L343.95 5.78304L344.029 5.71632ZM42.4185 5.53528L42.3196 5.38281L42.2603 5.46861L42.3493 5.64011L42.4185 5.53528ZM46.5842 4.35372L46.6437 4.26797L46.5546 4.09643L46.4953 4.19171L46.5842 4.35372ZM53.9459 3.73435L54.0746 3.62953L53.9953 3.55331L53.8568 3.6486L53.9459 3.73435ZM58.8437 8.29863L58.9724 8.1938L58.8932 8.11759L58.7647 8.21288L58.8437 8.29863ZM289.361 3.60096L289.43 3.53424L289.282 3.47706L289.212 3.53424L289.361 3.60096ZM61.1195 9.05139L61.2482 8.94661L61.169 8.87989L61.0304 8.97518L61.1195 9.05139ZM65.7602 3.5247L65.691 3.61999L65.8493 3.68671L65.9086 3.60096L65.7602 3.5247ZM279.981 3.86774L280.05 3.81056L279.971 3.68671L279.911 3.74389L279.981 3.86774ZM76.6047 3.22935L76.5257 3.16262L76.3871 3.24837L76.4662 3.32463L76.6047 3.22935ZM260.874 2.70526L260.795 2.58136L260.725 2.63854L260.795 2.77193L260.874 2.70526ZM325.803 6.42149L325.734 6.3643L325.585 6.41195L325.654 6.46913L325.803 6.42149ZM323.379 4.08694L323.31 4.02975L323.161 4.0774L323.23 4.13458L323.379 4.08694ZM120.844 5.22085L120.973 5.12556L120.893 5.05884L120.755 5.14459L120.844 5.22085ZM130.521 4.83016L130.432 4.68723L130.373 4.76344L130.452 4.91591L130.521 4.83016ZM141.999 4.27751L141.86 4.36326L141.94 4.42993L142.078 4.35372L141.999 4.27751ZM170.347 3.31509L170.278 3.24837L170.139 3.32463L170.209 3.39131L170.347 3.31509ZM187.91 2.34314L187.821 2.20975L187.762 2.27647L187.841 2.4194L187.91 2.34314ZM284.512 3.81056L284.651 3.74389L284.582 3.68671L284.433 3.74389L284.512 3.81056ZM304.46 4.45855L304.391 4.40137L304.242 4.45855L304.322 4.51573L304.46 4.45855ZM193.63 2.66711L193.55 2.60044L193.412 2.67665L193.491 2.74337L193.63 2.66711ZM282.81 4.03929L282.88 3.97257L282.81 3.84871L282.741 3.91539L282.81 4.03929ZM226.935 1.68566L227.014 1.80952L227.083 1.74285L227.004 1.60945L226.935 1.68566ZM229.696 2.51469L229.765 2.43843L229.617 2.38125L229.547 2.44797L229.696 2.51469ZM232.1 1.78095L232.011 1.65709L231.952 1.72377L232.021 1.85716L232.1 1.78095ZM233.287 2.56233L233.367 2.629L233.436 2.49561L233.357 2.42889L233.287 2.56233ZM236.602 1.92388L236.661 1.85716L236.592 1.72377L236.523 1.79049L236.602 1.92388ZM242.4 1.90481L242.48 1.97153L242.539 1.83813L242.47 1.77141L242.4 1.90481ZM274.153 2.84819L274.073 2.78147L274.004 2.91487L274.083 2.97205L274.153 2.84819ZM352.687 7.49822L352.766 7.44104L352.618 7.38386L352.548 7.4315L352.687 7.49822ZM379.125 10.6236L379.264 10.5665L379.195 10.5189L379.046 10.557L379.125 10.6236ZM395.007 12.0625L395.066 12.0149L395.007 11.9005L394.937 11.9482L395.007 12.0625ZM399.261 12.8153L399.33 12.8724L399.4 12.7676L399.34 12.72L399.261 12.8153ZM418.348 18.2848L418.427 18.2372L418.289 18.18L418.21 18.2181L418.348 18.2848ZM420.683 16.4172L420.763 16.4744L420.832 16.3791L420.763 16.3314L420.683 16.4172ZM256.738 3.03877C256.748 2.92442 256.777 2.83867 256.768 2.7529L256.629 2.68619C256.609 2.77194 256.57 2.85772 256.57 2.94348L256.738 3.03877ZM331.344 6.61206L331.423 6.46913L331.245 6.41195L331.057 6.51677C331.116 6.53583 331.176 6.55489 331.344 6.61206ZM227.41 2.31457L227.222 2.24785L227.163 2.4194L227.311 2.5909C227.331 2.53373 227.351 2.47656 227.41 2.31457ZM337.716 7.19328C337.736 7.10752 337.756 7.03129 337.756 6.95506L337.617 6.87885L337.548 7.10753L337.716 7.19328ZM2.37473 9.99478C2.30547 9.89949 2.26585 9.79467 2.23616 9.8042C2.14711 9.82326 2.05814 9.88041 1.96909 9.91852L2.06803 10.0805C2.16698 10.071 2.25599 10.0234 2.37473 9.99478ZM15.6039 10.6427C15.6039 10.4903 15.6138 10.3759 15.594 10.2616L15.4456 10.1758C15.4357 10.2902 15.4158 10.414 15.4158 10.5284L15.6039 10.6427ZM22.3323 11.0715L22.4807 10.919C22.451 10.8047 22.4016 10.6904 22.362 10.5855L22.2432 10.6999C22.2531 10.8142 22.2927 10.9286 22.3323 11.0715ZM90.8135 2.87676C90.9322 2.88629 91.0313 2.90537 91.1302 2.89584L91.1896 2.73383C91.1005 2.71477 91.0015 2.68619 90.9026 2.68619C90.8729 2.68619 90.8531 2.78147 90.8135 2.87676ZM29.8522 4.31562C29.971 4.23939 30.0798 4.16313 30.1986 4.09643C30.0996 4.05831 29.9907 3.99162 29.9116 4.01068C29.7829 4.02973 29.6643 4.11551 29.5456 4.17268C29.6346 4.22033 29.7335 4.25844 29.8522 4.31562ZM75.6153 3.15309C75.7241 3.02921 75.8132 2.91489 75.9022 2.80055C75.8033 2.76243 75.6548 2.67664 75.6251 2.71475C75.5559 2.81004 75.5361 2.95301 75.5065 3.08641L75.6153 3.15309ZM117.48 2.02871C117.618 1.96201 117.707 1.91435 117.796 1.87624C117.698 1.82859 117.599 1.76191 117.5 1.75238C117.401 1.74286 117.312 1.80955 117.213 1.83813C117.302 1.90483 117.391 1.97154 117.48 2.02871ZM316.987 4.99217C317.125 4.99217 317.274 5.00169 317.412 4.98263L317.472 4.86827C317.214 4.86827 316.947 4.86827 316.68 4.86827L316.769 4.98263L316.987 4.99217ZM52.4914 8.67978L52.5409 8.43202C52.4518 8.40344 52.3231 8.30816 52.2638 8.34627C52.1054 8.47015 51.9669 8.63214 51.8284 8.78461C51.9174 8.81319 52.0263 8.87988 52.1055 8.86082C52.244 8.83223 52.3628 8.74648 52.4914 8.67978ZM227.934 3.16262C227.826 3.01016 227.756 2.92441 227.697 2.83866C227.598 2.97206 227.489 3.09591 227.43 3.23884L227.588 3.42941C227.687 3.35318 227.796 3.26744 227.934 3.16262ZM35.4824 10.6523L35.5912 10.5189L35.4824 10.414L35.4031 10.576C35.4031 10.5951 35.4528 10.6237 35.5616 10.2806L35.5715 10.4045L35.7297 10.2997L35.6803 10.1472C35.6407 10.1948 35.6011 10.2425 35.4824 10.6523ZM15.9701 7.35529L16.0789 7.21236L15.9701 7.10753L15.9007 7.27908C15.8908 7.28861 15.9403 7.3267 16.0491 6.97414L16.069 7.09799L16.2175 6.99321L16.168 6.84074C16.1284 6.87886 16.0888 6.92649 15.9701 7.35529ZM307.448 5.32568C307.359 5.61154 307.102 5.48766 306.864 5.36378C306.746 5.29708 306.667 5.13509 306.548 5.12556C306.37 5.09698 306.093 4.9826 306.013 5.23988C305.954 5.39234 305.954 5.57339 305.746 5.33517C305.479 5.03978 305.123 5.05886 304.777 5.12556C304.074 5.25897 303.708 5.13509 303.382 4.60148L303.263 4.36326L303.164 4.59194C303.025 4.8111 302.877 4.94452 302.56 4.74441C302.501 4.7063 302.273 4.85873 302.125 4.90637C301.789 5.01119 301.512 5.24944 301.086 4.93499C300.898 4.80158 300.453 4.86828 300.136 4.92545C300.007 4.94451 299.918 5.16369 299.8 5.27803C299.651 5.43049 299.483 5.58293 299.473 5.20177L299.265 5.18274C299.127 5.27803 299.008 5.39237 298.889 5.50671C298.79 5.61153 298.711 5.66868 298.583 5.52574C298.315 5.23035 297.91 5.23039 297.524 5.18274L297.385 5.23988C297.039 4.77297 296.495 4.93496 296.01 4.90637C295.782 4.88732 295.535 4.79203 295.307 4.81108C295.149 4.82061 295.011 4.98264 294.852 5.03981L294.625 4.95402C294.308 4.94449 293.972 4.88732 293.685 4.95402C293.051 5.12554 292.131 5.15412 291.389 5.00166C291.053 4.92543 290.696 4.95404 290.34 4.93499L290.261 4.77298L290.123 4.93499C289.954 5.02075 289.925 4.70631 289.618 4.84924C289.252 5.02076 288.728 4.94452 288.272 4.93499C287.906 4.92546 287.619 4.99214 287.54 5.29706C287.481 5.5067 287.382 5.53529 287.184 5.49718C287.224 5.41142 287.322 5.278 287.293 5.23988C287.174 5.12554 287.006 5.0493 286.857 4.90637L286.867 4.95402L287.026 4.89688L286.986 4.78252L286.857 4.90637C286.63 4.99213 286.462 4.90637 286.293 4.76344C285.858 4.37276 285.363 4.24891 284.829 4.59194C284.661 4.69676 284.532 4.8397 284.344 4.60148C284.305 4.55384 284.126 4.58242 284.028 4.60148C283.167 4.74441 282.355 4.36323 281.504 4.42993C281.237 4.44899 280.94 4.34417 280.703 4.57287C280.485 4.77297 280.347 4.45854 280.159 4.44901C279.713 4.4109 279.248 4.53479 278.823 4.27751C278.754 4.2394 278.546 4.42995 278.388 4.44901C278.249 4.45854 278.071 4.31561 277.962 4.35372C277.487 4.52524 277.052 4.52524 276.557 4.35372C276.329 4.27749 275.993 4.42994 275.706 4.48712C275.548 4.52523 274.38 4.51571 274.281 4.44901C274.024 4.25843 273.816 3.91539 273.44 4.29654L273.361 4.14407C273.331 4.00114 273.193 3.86774 273.163 4.05832C273.084 4.42041 272.985 4.36327 272.678 4.22987C272.213 4.02976 272.045 3.96302 271.817 3.61999C271.62 3.32459 271.174 3.27695 270.957 3.57234C270.759 3.85821 270.403 3.85823 270.165 4.02975C269.858 4.25844 269.651 4.10599 269.334 4.03929C268.78 3.92495 268.186 4.02022 267.602 4.02022C267.325 4.51571 266.811 3.94398 266.484 4.21079C266.227 3.92493 265.881 4.08691 265.574 4.05832C264.951 3.99162 264.327 3.97257 263.704 3.87728C263.496 3.8487 263.209 3.71531 263.13 3.56285C262.971 3.21982 262.962 3.24837 262.882 3.57234C262.863 3.63905 262.675 3.70575 262.556 3.71527C262.051 3.73433 261.537 3.71531 261.032 3.75343C260.815 3.77249 260.498 3.98208 260.399 3.90585C260.161 3.73433 259.865 3.86777 259.706 3.75343C259.212 3.41992 258.796 3.71531 258.351 3.80107C258.044 3.86777 257.777 4.2108 257.411 3.88682C257.391 3.86776 257.183 4.04879 257.045 4.10596C256.936 4.16314 256.777 4.22034 256.688 4.18222C256.213 3.99165 255.847 3.93444 255.254 4.00114L255.086 3.88682C255.076 3.62954 254.858 3.71527 254.709 3.66763C254.482 3.5914 254.423 3.9821 254.195 3.782C254.027 3.62954 253.908 3.75342 253.74 3.79153C253.572 3.83918 253.295 3.74387 253.146 3.62953C252.721 3.29602 252.246 3.3246 251.751 3.34366C251.523 3.35319 251.474 3.45801 251.335 3.62953C250.969 4.08691 250.524 4.06785 249.891 3.72481C249.495 3.51518 249.099 3.53427 248.713 3.75343L248.426 3.80107C248.248 3.73437 248.387 3.34367 248.06 3.44849C247.882 3.50566 247.763 3.72481 247.585 3.8201C247.417 3.90586 247.249 3.85821 247.229 3.61999L247.051 3.5247C246.912 4.21077 246.645 3.75342 246.368 3.60096C246.21 3.50567 245.943 3.4485 245.775 3.50567C245.033 3.74389 244.201 3.72484 243.489 3.99165C243.113 4.13458 242.925 4.17269 242.707 3.89636C242.44 3.53427 242.123 3.65814 241.876 3.84871C241.658 4.02023 241.292 4.09643 241.243 3.9535C241.005 3.35318 240.431 3.57236 240.194 3.68671C239.828 3.8487 239.689 3.96306 239.541 3.51521C239.531 3.46756 239.165 3.42944 239.066 3.50567C238.799 3.68672 238.601 3.89633 238.512 3.39131L238.373 3.33412C238.106 3.78198 237.611 3.1817 237.325 3.51521C237.028 3.3151 236.652 3.41038 236.305 3.26745C235.969 3.12452 235.494 3.22932 235.088 3.24837C234.89 3.26743 234.643 3.45801 234.514 3.39131C233.851 3.08639 233.258 3.60097 232.625 3.46756C232.021 3.88683 231.308 3.63906 230.655 3.73435C230.359 3.782 230.082 3.62954 229.745 3.74389C229.498 3.82012 229.161 3.61049 228.855 3.60096C228.439 3.59143 227.994 3.55332 227.657 3.84871C227.182 4.25845 226.628 4.03926 226.143 3.96303C225.797 3.90586 225.293 3.88679 225.203 3.38177C224.738 3.53423 224.263 3.1912 223.798 3.39131C223.462 3.53424 223.135 3.69624 222.779 3.782C222.611 3.82011 222.413 3.65811 222.215 3.62953C221.74 3.56282 221.285 3.48662 220.879 3.1817C220.583 2.94348 220.731 3.28652 220.672 3.37228C220.543 3.55332 220.236 3.13404 220.137 3.49613C219.742 3.42943 219.405 3.63907 219.049 3.74389C218.792 3.82965 218.554 3.88679 218.247 3.81056C217.822 3.70575 217.337 3.87727 216.922 3.62953C216.506 4.17267 216.031 3.5914 215.576 3.66763C215.121 3.74386 214.636 3.70577 214.171 3.74389C213.834 3.77248 213.488 3.67718 213.172 3.97257C212.904 4.22032 212.518 3.85823 212.142 3.98211C211.816 4.08693 211.44 4.08692 211.084 4.06786C210.718 4.05833 210.322 4.25842 209.946 3.96303C209.817 3.86774 209.53 3.94397 209.322 3.9535C208.412 3.98208 207.512 4.03927 206.611 4.06786C206.295 4.06786 205.928 4.42995 205.642 3.97257L205.503 3.99165C205.196 4.32515 204.949 4.06785 204.652 3.96303C204.335 3.84869 204.029 3.58191 203.603 3.944C203.386 4.13458 202.841 4.05832 202.475 3.96303C202.258 3.90586 202.159 3.84871 201.931 3.99165C201.802 4.07741 201.516 3.91542 201.298 3.89636C201.08 3.88683 200.862 3.89635 200.645 3.93447L200.477 4.13458L200.338 4.33465L200.259 4.15361C200.279 3.85822 200.19 3.76294 199.843 3.73435C199.418 3.69624 199.012 3.36274 198.587 3.79153C198.478 3.90588 198.112 3.92493 197.973 3.82964C197.538 3.54378 197.192 3.58191 196.825 3.89636L196.519 3.90585C196.242 3.6581 195.846 3.63906 195.628 3.782C195.391 3.93446 195.064 3.69625 194.916 3.99165C194.431 3.95353 193.936 4.19174 193.441 3.93447C193.273 3.84871 192.957 3.81056 192.838 3.90585C192.373 4.29653 192.007 4.02973 191.66 3.76292C191.403 3.55329 191.373 3.50566 191.245 3.87728C191.146 4.17268 190.622 3.90587 190.315 4.21079C190.058 4.46807 189.701 4.13457 189.513 3.88682C189.226 3.5152 188.811 3.81057 188.534 3.62953C188.187 3.41036 187.99 3.47706 187.693 3.71527C187.485 3.88679 187.247 3.70575 187.138 3.38177C187.109 3.28648 187.05 3.21028 187 3.12452L186.921 3.30556C186.891 3.4866 187.059 3.73436 186.703 3.79153C186.476 3.82965 186.169 4.08691 186.06 4.01068C185.645 3.74387 185.229 3.9154 184.813 3.87728C184.724 3.86775 184.635 3.73433 184.546 3.66763L184.368 3.54378C184.061 3.96304 183.458 3.51518 183.111 3.96303C183.012 4.07738 182.587 4.1155 182.31 3.87728C182.152 3.74388 181.429 3.86775 181.043 3.782C180.43 3.63906 179.856 4.27748 179.262 3.77246L179.055 3.782C178.748 4.28702 178.322 3.89632 178.045 3.81056C177.076 3.53423 176.155 3.74387 175.225 3.86774C175.027 4.20125 174.889 3.67717 174.711 3.8201C174.582 3.93445 174.463 4.06787 174.325 4.17268L174.127 4.16315C174.127 3.92493 174.018 3.82011 173.791 3.87728C173.425 3.97257 173.128 3.82964 172.95 3.54378C172.692 3.12451 172.494 3.47706 172.277 3.53424C172.188 3.5533 172.108 3.64859 172.049 3.73435C171.841 4.02974 171.683 4.02975 171.347 3.83918C171.159 3.72483 170.723 3.33412 170.466 3.85821C169.457 3.91538 168.447 3.97257 167.438 4.02022C167.131 3.66765 166.914 4.34417 166.637 4.09643C166.35 3.83915 166.033 3.89636 165.726 3.944C165.4 4.00118 165.073 4.12504 164.747 4.22033C164.242 3.89635 164.242 3.89633 163.767 4.05832C163.5 4.14408 163.174 3.96305 162.966 4.26797L162.817 4.25843C162.342 3.67718 161.739 4.03928 161.195 4.02975C160.987 4.02022 160.769 4.24891 160.542 4.25843C160.324 4.27749 160.017 4.02975 159.869 4.12504C159.087 4.62054 158.375 3.83915 157.623 4.00114C157.217 3.6581 156.831 3.81057 156.504 4.10596C156.188 4.40136 155.812 4.24891 155.634 4.06786C155.288 3.69624 154.931 3.76295 154.545 3.79153C153.962 3.82965 153.388 3.89636 152.804 3.89636C152.339 3.89636 151.923 4.02975 151.528 4.26797L151.31 4.4109C150.954 4.0107 150.469 4.54428 150.103 4.19171L148.994 4.3728C148.816 4.59196 148.658 4.81109 148.599 4.29654L148.421 4.39183C148.401 4.49664 148.46 4.63005 148.43 4.72534L148.233 4.91591L148.045 4.84924C147.946 4.70631 147.886 4.52525 147.768 4.4109L147.401 4.33465C147.134 4.65862 146.916 4.53479 146.57 4.42044C146.184 4.28704 145.709 4.42043 145.284 4.45855L145.165 4.61102C145.185 5.1351 144.997 4.79204 144.829 4.72534C144.374 4.54429 143.889 4.39185 143.434 4.69677C143.097 4.93499 143.256 4.59195 143.176 4.50619L142.899 4.4109C141.494 4.80158 141.494 4.80159 140.089 4.46809C139.852 4.41091 139.594 4.42995 139.347 4.44901C138.704 4.48713 138.051 4.53478 137.398 4.60148C137.299 4.61101 137.121 4.73485 137.111 4.81108C137.101 5.15412 136.982 5.10649 136.824 4.91591C136.527 4.53476 136.299 4.63008 136.072 4.99217C135.884 5.2685 135.716 5.36376 135.567 4.91591C135.468 4.60146 135.191 4.5443 134.865 4.5443C134.34 4.5443 133.816 4.86829 133.292 4.51573C133.252 4.48714 133.094 4.66815 133.014 4.76344C132.915 4.88732 132.876 4.95404 132.698 4.83016C132.421 4.63006 132.163 4.74442 131.975 5.03981C131.877 5.21133 131.807 5.23037 131.59 5.11602C131.065 4.85875 131.045 4.89685 130.363 5.53528C130.313 5.5734 130.145 5.42093 130.046 5.43046C129.868 5.44951 129.7 5.52575 129.532 5.58293C129.532 5.36376 129.472 5.27803 129.225 5.23039C128.898 5.18274 128.602 4.9731 128.275 4.88734C127.978 4.80158 127.681 4.97309 127.355 4.73487C127.147 4.57288 126.781 4.7825 126.454 4.57287C126.237 4.42993 126.088 4.78254 125.979 5.03981C125.841 5.40191 125.791 5.40189 125.564 5.06838C125.465 4.91592 125.475 4.8111 125.326 5.02074C125 5.5067 124.604 5.55437 124.258 5.1351C124.109 4.94453 124.04 4.94452 124.05 5.17321C124.05 5.44954 123.872 5.57341 123.723 5.44953C122.942 4.78252 122.2 5.1351 121.507 5.51625C121.072 5.75447 120.745 5.82115 120.369 5.44953C120.28 5.36377 120.112 5.36379 119.983 5.32568C119.518 5.2018 119.142 5.59245 118.638 5.4781C118.222 5.38281 117.737 5.58295 117.302 5.70683C116.975 5.80212 116.945 5.4114 116.728 5.38281C116.619 5.37328 116.292 5.30658 116.56 5.66868L116.391 6.0689C115.887 6.15466 115.57 6.42148 115.461 6.98368L115.293 7.06942C115.105 6.7645 114.917 6.4596 114.749 6.13562L114.868 5.96408C114.878 5.83067 114.828 5.6973 114.808 5.5639C114.699 5.64966 114.591 5.72585 114.492 5.81161C114.383 5.74491 114.284 5.61154 114.185 5.61154C113.641 5.64013 113.096 5.67824 112.562 5.75447C112.206 5.81164 111.998 5.7735 112.018 5.29706L111.731 5.11602C111.573 5.3066 111.395 5.17318 111.256 5.19224C110.623 5.278 109.94 4.65865 109.366 5.31614C108.485 5.28755 107.625 5.68773 106.714 5.38281C106.546 5.31611 106.309 5.57343 106.081 5.61154C105.764 5.67824 105.408 5.61152 105.121 5.7354C104.874 5.84021 104.686 5.96409 104.419 5.78304L104.112 5.82115C103.904 6.24041 103.687 5.98316 103.41 5.8974C103.172 5.82117 102.846 5.39236 102.598 5.92597C102.578 5.95456 102.351 5.83069 102.232 5.84022C101.816 5.85928 101.401 5.8974 100.995 5.94505L100.847 6.11655C100.5 6.23089 100.095 5.9355 99.8573 6.02126C99.5703 6.1356 99.2241 6.40242 98.9867 6.26902C98.6305 6.05938 98.4523 6.15465 98.1653 6.34523C98.0169 6.45004 97.6311 6.12609 97.5025 6.22137C97.0572 6.56441 96.6316 6.58348 96.1566 6.3262C95.7806 6.72641 95.3354 6.3262 94.9198 6.42149C94.5042 6.51677 94.0293 6.35476 93.584 6.34523C93.1387 6.34523 92.6935 6.52627 92.2384 6.2404C92.1097 6.16417 91.8722 6.23087 91.704 6.28805C90.7937 6.61203 90.8036 6.60251 89.7152 6.4977C89.3293 6.45958 88.9236 6.55489 88.5279 6.61206C88.4685 6.62159 88.3893 6.76452 88.3794 6.85028C88.3399 7.24096 88.1322 7.22189 87.9541 7.02178C87.6177 6.64063 87.2019 6.56439 86.9051 6.86931C86.6379 7.14565 86.3313 6.48817 86.1236 7.02178C86.0147 7.29812 85.6783 7.46012 85.4309 7.66023C84.857 8.12714 84.7876 8.1176 84.283 7.46011C84.1247 7.25048 84.0159 7.27904 83.8576 7.4315C83.5608 7.70783 83.244 7.77455 82.8977 7.48868C82.68 7.30764 81.5522 7.18379 81.3246 7.37436C81.1069 7.54588 81.0079 7.7555 80.711 7.49822C80.6319 7.43152 80.3846 7.67929 80.2064 7.70787C79.5831 7.83175 78.9202 7.7269 78.3661 8.1557L78.0692 8.12713C77.8417 7.90797 77.802 7.98421 77.7921 8.2796L77.5051 8.4892C77.3567 8.4225 77.2578 8.19381 77.0995 8.4892L76.8225 8.57495C76.0606 7.96511 75.0018 8.47968 74.3191 7.58397C74.0519 7.23141 73.7254 7.40292 73.4286 7.48868C73.2208 7.55538 73.2604 8.17477 72.825 7.79362C72.6469 7.6221 72.4589 8.1557 72.1324 7.86983C72.0236 7.77455 71.6673 8.12711 71.4002 8.1557C71.1825 8.18428 70.9252 7.96513 70.7174 8.0223C70.2226 8.14618 69.7576 8.37485 69.2827 8.57495C69.1639 8.6226 69.1243 8.89893 69.1441 9.14668C69.154 9.24197 69.0847 9.34679 69.0451 9.44208L68.9462 9.46116C68.6395 9.04189 68.1152 9.56597 67.8282 9.02283V9.08001L67.9865 8.98472L67.937 8.84179C67.8974 8.8799 67.8579 8.92754 67.8282 9.02283C67.6699 8.92754 67.5017 8.78459 67.3335 8.57495L67.3433 8.63214L67.5016 8.53685L67.4423 8.38438C67.4126 8.43202 67.373 8.47967 67.3335 8.57495C67.1752 8.59401 67.0168 8.5464 66.8486 8.50828C66.4132 8.40346 66.0571 8.56546 65.4436 8.80368C65.2259 8.88944 64.9687 9.3182 64.652 8.95611L64.4441 8.96564C64.1967 9.53737 63.7911 9.43257 63.336 9.36587C62.9105 9.29917 62.4553 9.5374 62.0497 9.42305C61.7825 9.34682 61.6637 9.28963 61.4262 9.49926C61.2976 9.62314 60.9117 9.45162 60.6841 9.30869C60.2586 9.03235 59.7738 8.88941 59.4374 8.96564C59.0614 9.06093 58.6657 9.09906 58.2798 9.16576C58.0324 9.2134 58.0028 9.05141 57.9335 8.83225C57.8939 8.70837 57.6169 8.59401 57.4784 8.6226C57.2508 8.6893 56.8946 8.5178 56.8451 8.59403C56.5087 9.03235 56.1524 8.69885 55.816 8.68932C55.4697 8.67979 55.1135 8.9466 54.7771 8.60357L54.4999 8.64167C54.4801 9.41351 54.1239 9.06095 53.8073 8.93708C53.7677 8.91802 53.6589 9.06092 53.6094 9.14668C53.362 9.62312 53.3225 9.62312 52.9662 9.19432C52.798 8.99422 52.6299 8.9847 52.5409 9.20386C52.4815 9.36585 52.5804 9.63268 52.5111 9.79467C52.4518 9.92807 52.2639 9.47068 52.1352 9.78513C51.9769 10.1853 51.7789 10.2425 51.5217 9.87088L51.3535 9.74702C50.8489 10.2616 50.6806 9.55645 50.4926 9.31823C50.2254 8.98472 49.7406 9.06096 49.5922 8.56546L49.3844 8.54639C49.0579 8.53686 49.0084 9.23246 48.5038 8.92754C48.3158 8.82272 47.9695 9.03234 47.643 8.918C47.3264 8.81318 46.9603 9.08001 46.6437 8.79414C46.5447 9.45163 45.9906 8.55593 45.8223 9.08955C45.7927 9.19436 45.0308 8.84178 44.7834 8.64167C44.6845 8.56544 44.546 8.5464 44.4174 8.50828C44.1007 8.41299 43.9027 8.83227 43.5069 8.66075C43.1903 8.51782 42.7748 8.68933 42.4384 8.98472C42.1812 9.20388 41.7952 9.13719 41.4687 9.32776C41.0234 9.58504 40.4198 9.46116 39.8954 9.5088C39.7272 9.08954 39.5393 9.89948 39.3216 9.46116C39.2523 9.33728 38.9357 9.37538 38.7378 9.34679L38.53 9.39444C38.1144 9.86135 38.0846 9.88993 37.5305 9.81369L37.3525 9.65173C37.1843 10.4522 36.3531 10.09 36.0364 10.7189C35.6901 11.3859 35.4329 11.3478 34.9283 10.8238C34.582 10.4712 34.5423 10.4617 33.9684 10.5951C33.6221 10.6713 33.3055 10.2806 32.88 10.5379C32.8899 10.4521 32.9395 10.395 32.9395 10.3569C32.9197 10.2425 32.8801 10.1377 32.8406 10.0233L32.7119 10.0901C32.7316 10.2235 32.7613 10.3664 32.88 10.5379C32.9789 10.8047 32.6425 10.7856 32.6326 10.7285C32.6227 9.99475 31.9499 10.5951 31.7817 10.0615C31.6135 9.51831 31.0298 10.252 30.7725 9.69938C30.6538 9.78514 30.4855 9.82326 30.4361 9.94714C30.2679 10.395 29.9215 10.3569 29.6049 10.3759C29.3278 10.3855 29.4267 10.0615 29.3674 9.82323L29.3774 9.88042L29.5258 9.78513L29.4764 9.63266C29.4368 9.67077 29.3971 9.71842 29.3674 9.82323C29.2387 10.0996 29.0113 9.34679 28.942 9.90898C28.8826 10.395 28.7342 10.5093 28.3582 10.2901L28.1108 10.4712C28.0218 10.5189 27.9326 10.5951 27.8337 10.6046C27.6061 10.6427 27.7545 10.0043 27.4874 10.2425C27.2697 10.4426 27.1707 10.395 26.9432 10.2806C26.7156 10.1758 26.488 10.1091 26.3495 10.6427C26.2307 11.1096 25.558 11.1954 25.3304 11.7385C25.1523 11.5861 24.8653 11.3288 24.8158 11.6718C24.7366 12.2245 24.628 12.1864 24.2816 11.9386C24.0244 11.7481 23.678 12.1292 23.3712 11.7766C23.1832 11.5575 22.9952 12.2722 22.6786 11.8529C22.639 11.7957 22.2828 12.0625 22.0849 12.2054C21.6693 12.5103 21.511 12.4818 21.3032 11.9958C21.2438 11.8529 21.2042 11.6909 21.1548 11.5289C21.1251 11.6718 21.0954 11.8148 21.0558 11.9482L20.9273 12.1482C20.8185 12.2435 20.6997 12.3007 20.581 12.377C20.5315 12.2722 20.482 12.1578 20.4326 12.053C20.3732 11.891 20.4819 11.3955 20.1158 11.8434C19.8388 12.1769 19.4727 12.2531 19.0274 12.0911C18.7899 12.0054 18.6911 11.9958 18.6119 11.6718C18.5426 11.3383 18.414 10.9286 18.0084 11.3765C17.8599 11.548 17.7016 11.3383 17.6621 11.062C17.6522 10.919 17.5334 10.7952 17.4642 10.6618C17.385 10.7666 17.2959 10.8619 17.2266 10.9667L17.0881 11.243C16.5538 11.3383 16.0095 11.405 15.4653 11.4717L15.307 11.3383C15.2081 10.8333 15.0003 10.8523 14.8222 11.2049C14.5649 11.7004 14.3175 11.7004 13.9811 11.3002L13.7042 11.1954C13.5261 11.4526 13.3381 11.3193 13.1105 11.2812C12.9027 11.243 12.7246 11.2621 12.5069 11.1096C12.408 11.0334 12.0221 10.9572 12.0122 11.3478C11.9924 12.0053 11.7549 11.5194 11.6758 11.4241C11.5075 11.2335 11.458 10.8237 11.1414 11.243C11.0029 11.4241 10.706 11.4336 10.4685 11.5098L10.2706 11.4717C10.2112 11.2621 10.1817 10.9476 9.99365 11.3478C9.78586 11.7576 9.57811 11.9196 9.24169 11.4908C9.08338 11.2907 8.87551 11.1668 8.7172 10.9762C8.44015 10.6808 8.12344 10.8238 7.89586 10.9286C7.37144 11.1573 6.35244 11.6147 5.82802 11.4241C5.39265 11.2621 5.17482 11.5479 5.02639 11.7766C4.71966 12.2435 4.2744 12.3388 3.8885 12.5294C3.46303 12.7486 3.27519 12.6056 3.10698 11.9767C2.99813 11.5765 2.85949 11.6051 2.64181 11.6432C2.39444 11.6814 2.11739 11.7957 2.0976 11.2907C1.96897 11.3574 1.83044 11.4336 1.70181 11.5098C1.60286 11.4336 1.50392 11.3002 1.40497 11.2907C1.25655 11.2811 1.06859 11.9481 0.999327 11.1954C0.979537 10.9762 0.959709 10.7571 0.910236 10.5379C0.821183 10.0996 0.722198 10.3759 0.62325 10.5189L0.455118 10.3187C0.474907 10.0329 0.514486 9.75652 0.554065 9.48019C0.682696 9.28008 0.771826 8.95611 0.930141 8.90846C1.73161 8.67024 2.50324 8.25098 2.99798 7.91748C3.46303 7.60303 4.00736 7.48871 4.40314 7.04086C5.17493 7.57447 5.47181 6.45959 6.07539 6.41195L6.30285 6.37384C6.31274 6.50725 6.33253 6.64061 6.30285 6.90742L6.37223 6.88839L6.25338 6.78356L6.18419 6.9646C6.1743 6.97413 6.23359 7.01223 6.30285 6.90742C6.7679 6.53579 7.18348 6.31664 7.58916 6.05936C7.81674 5.91643 8.03454 5.55434 8.05433 6.24994C8.05433 6.3357 8.16305 6.49771 8.23232 6.50724L8.48954 6.35477C8.65775 6.08796 9.20212 5.59246 9.43959 5.54482C9.61769 5.51623 9.79564 5.49716 9.97375 5.4781C10.7257 5.39234 10.983 5.40188 11.2502 5.0112C11.5371 4.60146 11.8143 5.14463 12.1606 4.99217L12.1506 4.91591L12.0617 5.0493L12.2101 5.15413C12.22 5.15413 12.2497 5.09699 12.1606 4.99217C12.2299 4.72536 12.3882 4.44899 12.6059 4.33465C13.0808 4.0869 13.3578 4.22986 13.5755 4.93499C13.6942 5.35425 13.9218 5.29705 14.0603 5.19224C14.7332 4.66815 15.5842 4.56334 16.168 3.85821C16.3065 3.68669 16.4152 3.4866 16.6428 3.782C16.7022 3.85822 16.999 3.82964 17.0485 3.73435C17.4344 3.01969 17.563 3.6772 17.7807 3.944C18.0578 4.27751 18.1072 4.11551 18.0775 3.74389L18.3249 3.60096C18.414 3.61049 18.5229 3.70578 18.5922 3.80107C18.7109 3.95353 18.7999 4.13456 18.8989 4.30608C19.3639 3.73435 19.7894 4.74438 20.2841 4.42993C20.4919 4.29653 20.8282 4.19175 21.1053 4.51573C21.1449 4.56337 21.3725 4.46808 21.4417 4.36326C21.5803 4.1441 21.7189 3.88683 21.7684 3.6105C21.8772 2.9816 22.451 3.18167 22.7182 2.81958C22.7578 2.77193 23.0844 2.9816 23.2427 3.13406C23.2823 3.16264 23.1833 3.41988 23.1536 3.57234C23.114 3.7248 23.0745 3.8773 23.0547 4.03929C23.0448 4.12505 23.0743 4.22033 23.0842 4.31562C23.2623 4.29656 23.4405 4.26795 23.6186 4.2489C23.9154 4.21078 23.767 3.944 23.7769 3.75343C23.8065 3.42945 24.1728 3.25793 24.3806 3.46756C23.9452 4.36327 25.2513 3.43897 24.9347 4.22033C25.2711 4.45855 25.6074 4.70629 25.9537 4.92545L26.1616 4.79206C26.5277 4.42043 26.8839 5.02072 27.2599 4.85873C27.6062 4.70627 28.0317 4.37279 28.3087 4.50619C28.8628 4.773 28.6748 4.42041 28.6649 4.10596C28.6451 3.80104 28.7638 3.94398 28.9123 4.02022C29.0112 4.06786 29.1596 4.02022 29.2684 3.97257C29.6048 3.81058 29.9215 3.62954 30.2579 3.45803C30.3371 3.96305 30.8022 3.89636 31.0298 4.18222C31.2277 4.42044 31.4454 4.7158 31.9006 4.62051L31.8905 4.5443L31.8016 4.67769L31.95 4.77298C31.9599 4.77298 31.9896 4.7158 31.9006 4.62051C31.8709 4.45852 31.9697 4.26798 32.0389 4.27751C32.2467 4.33468 32.4546 4.70627 32.6624 4.287L32.8108 4.25843C32.8801 4.83969 33.3649 4.80156 33.6122 4.81108C33.8497 4.82061 34.1169 4.44903 34.3049 4.18222C34.6413 3.72484 34.5621 4.24892 34.6512 4.3728C34.7699 4.54432 35.1262 4.29656 35.1163 4.74441L35.2449 4.91591L35.3142 4.69677C35.3439 4.51572 35.3636 4.32512 35.3834 4.14407C35.522 4.83014 36.0661 3.67716 36.1849 4.42993L36.4027 4.35372C36.5016 4.31561 36.5905 4.26798 36.6796 4.22987C36.9369 5.02076 37.2832 4.43946 37.6196 4.38229C38.0945 4.30606 38.5696 4.25842 39.0742 4.43947C39.9153 4.72534 40.0043 4.7063 40.7563 4.0774C41.1521 3.74389 41.4984 3.77247 41.9437 3.82964C42.3989 3.89634 42.2008 4.03925 42.0722 4.23936C42.1712 4.26794 42.3394 4.35374 42.3592 4.32515C42.5868 3.86777 42.8638 4.14409 43.1606 4.21079C43.4674 4.27749 43.8037 4.10596 44.061 4.48712L44.2788 4.50619C44.4173 4.0107 44.734 4.2394 45.0111 4.27751C45.1595 4.28704 45.3869 4.30609 45.4364 4.22033C45.8916 3.41038 46.8217 3.82009 47.3659 3.23884L47.643 3.31509C47.8706 4.11551 48.5829 3.63905 48.949 4.04878L49.2262 3.97257C49.4339 3.68671 49.6417 3.27695 49.988 3.47706C50.2551 3.63905 50.5124 3.34369 50.7399 3.6105C50.7894 3.66767 50.9577 3.57235 51.0567 3.58188C51.3238 3.62953 52.4816 3.38178 52.7784 3.48659C53.4216 3.71528 53.9459 2.76243 54.5792 3.41992C54.6088 3.32463 54.6386 3.22935 54.6682 3.13406L54.7473 2.91487L54.876 3.08641C54.8463 3.6772 55.1432 3.63907 55.5093 3.60096C55.7666 3.57237 56.0238 3.7534 56.3107 3.53424C56.5284 3.36272 56.855 3.41036 57.0925 3.72481C57.5773 4.33466 58.2005 4.22986 58.6557 3.88682C59.0515 3.5819 59.5463 3.85822 59.9124 3.39131C60.1499 3.09591 60.6644 3.10546 61.0602 2.98159C61.1591 2.953 61.2778 2.95297 61.3669 2.90533C62.0694 2.50512 62.1585 2.49563 62.7324 2.89584C63.0392 3.115 63.138 3.11499 63.1974 2.64808C63.237 2.35269 63.7416 2.34317 63.7911 2.56233C63.9197 3.16264 64.3452 2.94347 64.4441 2.83866C64.731 2.54326 65.0873 2.91488 65.3248 2.68619C65.5424 2.46702 65.8888 2.80053 66.0472 2.44797C66.1164 2.5242 66.1757 2.60044 66.2153 2.98159C66.2252 3.0864 66.2648 3.00062 66.2648 2.90533L66.2451 2.67665L66.057 2.87676C66.0471 2.96252 66.1163 3.07688 66.2153 2.98159C66.4528 2.62902 66.6408 2.64809 66.809 2.84819C66.8782 2.93395 67.0267 2.93393 67.1454 2.97205C67.0267 3.03875 66.9079 3.09593 66.809 3.17216C66.7694 3.21028 66.7793 3.30556 66.71 3.50567L66.7794 3.49613L66.6704 3.39131L66.5914 3.55331C66.5815 3.56284 66.6309 3.60096 66.71 3.50567C66.9376 3.36274 67.1157 3.35322 67.2939 3.32463C67.4621 3.28652 67.6302 3.23884 67.7984 3.19119C67.6797 3.05779 67.5708 2.92441 67.462 2.79101L67.3829 2.61946L67.5609 2.54325C67.8479 2.7243 68.1151 2.87675 68.3427 2.48607C68.4317 2.61947 68.5209 2.7529 68.6099 2.8863C68.699 2.76242 68.7781 2.62903 68.877 2.51469L69.0156 2.44797C69.6983 2.62901 69.827 2.60996 70.1436 2.26693C70.1634 2.3908 70.1733 2.61946 70.1931 2.61946C70.6186 2.65758 70.9648 2.94348 71.3408 3.13406C71.4497 3.19123 71.7564 3.21979 71.7465 2.91487C71.7366 2.61947 71.8454 2.55276 72.0532 2.57182C72.5281 2.61946 72.8349 2.40031 72.9437 1.8667L73.0823 1.74285L73.1812 1.95245C73.1317 2.50512 73.4285 2.47654 73.7353 2.39078C73.9925 2.31455 74.23 2.14305 74.4872 2.07635C74.7346 2.00965 75.0809 1.88577 75.2293 2.01917C75.5559 2.30503 75.6945 1.91434 75.932 1.90481C76.3278 1.88575 76.9016 2.3241 77.0005 2.79101C77.1094 3.32462 77.2577 3.47708 77.6041 3.17216C77.8712 2.93394 77.9505 3.21979 78.1088 3.20073C78.5838 3.14356 79.0587 3.14355 79.5138 3.04826C79.9195 2.9625 80.2757 3.14358 80.6517 3.17216C80.9881 3.20075 81.2255 2.81959 81.6114 2.82912C82.0369 2.83865 82.4625 2.68619 82.8088 3.16262C82.9177 3.29603 83.1649 3.25793 83.1451 2.94348C83.3529 2.88631 83.5905 2.90535 83.7488 2.78147C84.4612 2.23833 85.1933 2.43844 85.9156 2.73383C86.4301 2.95299 86.9151 3.39132 87.4296 2.78147C87.4593 2.75289 87.6472 2.87675 87.7461 2.96251L87.8352 3.16262C88.1618 2.71477 88.8247 3.15308 89.1117 2.61946C89.4877 1.91434 90.0814 1.91436 90.685 2.07635C90.8631 2.11447 90.8927 2.07636 91.0015 1.9906C91.2489 1.80003 91.3973 1.92388 91.3973 2.25739C91.3973 2.49561 91.4667 2.6576 91.7141 2.5909C92.1 2.48608 93.4455 2.47656 93.871 2.55279C94.1184 2.59091 94.3856 2.62902 94.6032 2.55279C95.5037 2.24787 95.4938 2.23833 96.2853 2.35268C96.4041 2.37174 96.5623 2.32408 96.6514 2.24785C96.869 2.04775 97.077 2.00963 97.3144 2.20021L97.5025 2.28596C97.7597 2.05727 98.0466 2.01918 98.3632 2.124C98.5117 1.61897 98.9371 2.36222 99.1053 1.94296C99.9662 1.77144 100.827 1.59989 101.688 1.42837C101.816 1.39978 101.915 1.88578 102.044 1.45698C102.133 1.14253 102.41 0.94241 102.559 1.15204C102.737 1.39026 103.083 1.16159 103.212 1.64756C103.32 2.09541 103.667 2.11445 104.063 1.77141C104.488 1.42838 104.953 1.38072 105.438 1.33308C105.666 1.31402 105.774 1.3712 105.794 1.62848L106.041 1.76188C106.259 1.4379 106.596 1.45698 106.912 1.45698C107.179 1.45698 107.367 1.05677 107.674 1.31405C107.882 1.03772 108.06 0.93289 108.179 1.3998L108.367 1.46652C108.525 1.04725 108.822 1.25685 109.099 1.23779C109.495 1.19968 109.851 1.32356 110.227 1.39026C110.573 1.45696 110.92 1.19018 111.276 1.45698C111.315 1.48557 111.484 1.36169 111.553 1.26641C111.741 1.00913 111.86 0.942436 111.889 1.37123L111.959 1.44744C112.176 1.44744 112.394 1.44744 112.602 1.43791C112.819 1.42838 113.037 1.38073 113.255 1.39026C113.443 1.39979 113.68 1.79049 113.789 1.50463C113.947 1.08536 114.214 1.7905 114.363 1.37123C114.412 1.24736 114.818 1.25685 115.066 1.23779C115.293 1.21873 115.382 1.13299 115.343 0.875717L115.471 0.723248C115.61 0.637487 115.867 0.485046 115.877 0.504105C116.065 0.828083 116.243 0.342106 116.342 0.494566C116.431 0.627968 116.411 0.866169 116.451 1.04722C116.481 1.15203 116.54 1.2378 116.589 1.34262C116.609 1.2378 116.659 1.13299 116.659 1.01865C116.659 0.866188 116.629 0.704208 116.629 0.551748L116.817 0.475489C117.015 0.504076 117.222 0.53269 117.42 0.599392C117.519 0.627977 117.589 0.856668 117.737 0.647036C118.281 -0.115267 118.924 0.199163 119.508 0.580315C119.854 0.799477 120.112 0.999601 120.428 0.599392L120.725 0.532671C121.269 0.828064 121.794 0.122944 122.358 0.54221C122.506 0.647026 122.763 0.570787 122.971 0.580315C123.417 0.608902 123.941 0.265856 124.228 0.951929C125.089 1.08533 125.979 1.32358 126.751 0.742323C127.078 0.494576 127.256 0.608931 127.355 0.894793C127.434 1.14254 127.572 1.26642 127.711 1.13301C128.176 0.694689 128.74 0.875708 129.245 0.818535C129.581 0.78042 129.69 0.666075 129.809 0.342096C129.947 -0.0295258 130.016 -0.000930786 130.62 0.351633C130.699 0.408806 130.808 0.437384 130.907 0.437384C131.095 0.437384 131.273 0.408806 131.451 0.399279C131.669 0.38022 131.886 0.351633 132.104 0.351633C132.599 0.342106 132.104 0.627968 132.203 0.732786L132.401 0.789967C132.648 0.780439 132.915 0.694689 133.153 0.751862C133.519 0.828093 133.905 1.16159 134.202 1.07583C134.558 0.980543 134.835 0.78042 135.261 0.913822C135.488 0.990053 135.795 0.770891 136.052 0.675604C136.181 0.62796 136.349 0.475527 136.408 0.513641C136.755 0.77092 137.081 0.92337 137.467 0.647036C137.893 1.01866 138.368 0.770891 138.813 0.770891C139.248 0.78042 139.684 0.68516 140.109 0.704218C140.356 0.713747 140.485 0.313538 140.821 0.608931C140.98 0.751862 141.385 0.599373 141.672 0.580315C141.959 0.551729 142.246 0.5327 142.543 0.513641C142.83 0.494585 143.117 0.485037 143.404 0.446922C143.631 0.418335 143.75 0.494576 143.75 0.742323L143.958 0.761353C144.423 0.561249 144.858 0.627987 145.363 0.704218C146.115 0.818563 146.926 0.809006 147.678 0.485027C147.768 0.446913 147.866 0.361145 147.955 0.380201C148.242 0.427845 148.351 1.09486 148.836 0.618422C148.975 0.485018 149.4 0.694689 149.697 0.704218C150.053 0.704218 150.419 0.656555 150.775 0.637497C151.795 0.570795 152.804 0.513605 153.823 0.427845C154.12 0.39926 154.407 0.351643 154.723 0.218241C155.218 -0.000921249 155.861 -0.0771618 156.228 0.637497C156.257 0.685141 156.465 0.637487 156.594 0.62796C156.524 0.275394 156.821 0.256327 156.999 0.141983C157.108 0.065752 157.247 0.0467033 157.365 0.00858879C157.326 0.113405 157.286 0.218212 157.266 0.332558L157.435 0.418354C158.058 -0.105728 158.662 0.303999 159.275 0.456459C159.73 0.570805 160.195 0.627977 160.512 0.122953C160.631 -0.0676231 160.769 -0.000911713 160.957 0.0848465C161.323 0.265894 161.719 0.38022 162.105 0.494566C162.214 0.532681 162.412 0.5327 162.461 0.465998C162.709 0.13249 162.896 0.418318 163.094 0.523134C163.312 0.637478 163.332 0.208721 163.609 0.37071C163.747 0.446939 164.064 0.237307 164.183 0.323067C164.44 0.494585 164.668 0.380239 164.905 0.418354C165.103 0.446939 165.311 0.675594 165.489 0.380201C166.429 0.647007 167.409 0.561285 168.358 0.704218L169.239 0.513641C169.457 0.0848465 169.763 0.256365 170.07 0.37071C170.268 0.437412 170.466 0.485056 170.664 0.513641C170.812 0.5327 170.971 0.465988 171.099 0.504105C171.366 0.580334 171.624 0.761381 171.891 0.789967C172.158 0.809025 172.425 0.656546 172.692 0.62796C173.128 0.589844 173.593 0.475517 173.978 0.599392C174.315 0.713737 174.661 0.313538 174.948 0.704218C174.978 0.751862 175.166 0.666101 175.265 0.704218C175.641 0.847149 175.869 0.275414 176.215 0.504105C176.531 0.723267 176.838 0.589844 177.145 0.580315C177.531 0.570787 177.897 0.608912 178.273 0.732786C178.55 0.818544 178.867 0.77091 179.183 0.742323C179.866 0.666094 180.559 0.504095 181.281 0.78043C181.657 0.923361 182.142 0.761381 182.577 0.742323C183.23 0.704208 183.883 0.69466 184.526 0.62796C185.239 0.561258 185.902 0.723274 186.575 0.894793C186.693 0.92338 186.842 0.913813 186.941 0.85664C187.148 0.751823 187.366 0.856649 187.584 0.723248C187.801 0.608902 188.306 0.599373 188.395 0.723248C188.623 1.07581 188.771 0.446903 188.999 0.761353C189.108 0.913813 189.533 0.809006 189.78 0.913822C189.959 0.980524 190.057 0.971004 190.245 0.923361C190.71 0.809015 191.235 0.666084 191.68 0.78043C192.581 0.999592 193.441 0.809034 194.312 0.751862C194.391 0.751862 195.114 0.780439 195.223 0.83761C195.49 1.00913 195.688 0.971024 195.975 0.799505C196.43 0.513641 196.924 0.246799 197.518 0.618422C197.666 0.713709 197.934 0.62796 198.151 0.62796C198.399 0.62796 198.755 0.542191 198.864 0.666065C199.17 0.990044 199.438 0.52317 199.546 0.656574C199.764 0.913851 199.932 0.361181 200.14 0.704218C200.219 0.847149 200.566 0.875698 200.793 0.904285C201.08 0.932871 201.436 1.00912 201.644 0.875717C202.04 0.627968 202.337 0.618422 202.792 0.808996C203.029 0.904285 203.415 0.713718 203.801 0.770891C204.702 0.913822 205.622 0.875698 206.542 0.904285C206.651 0.904285 206.78 0.856678 206.859 0.894793C207.047 0.999609 207.205 1.25686 207.363 1.24733C207.522 1.24733 207.66 0.990044 207.818 0.85664L207.917 0.847149C208.046 0.971024 208.135 1.16158 208.284 1.20922C208.472 1.27593 208.125 0.723267 208.571 0.932899C209.105 1.19018 209.639 1.4284 210.213 0.980543C210.302 0.904312 210.569 0.961494 210.708 1.03773C210.876 1.13301 211.054 1.23783 211.153 1.03773C211.361 0.656574 211.737 1.31403 211.915 0.913822C212.241 1.31403 212.637 1.26638 213.053 1.09486L213.28 1.2283C213.696 0.694689 214.26 0.951929 214.765 0.999573C215.279 1.05675 215.823 0.751823 216.328 1.1425L216.734 1.11394C216.941 0.913832 217.08 0.837593 217.367 1.05676C217.466 1.13298 217.664 0.742323 217.96 0.980543C218.129 1.11395 218.445 0.666101 218.742 1.03773C218.811 1.13301 219.247 1.09486 219.524 0.904285C219.672 0.799469 220.019 0.999573 220.266 0.999573C220.484 0.990044 220.701 0.818554 220.909 0.83761C221.166 0.866198 221.463 0.951939 221.661 1.1044C221.948 1.33309 222.186 0.761372 222.433 1.11394C222.572 0.951948 222.7 0.847122 222.957 1.00911C223.056 1.06628 223.294 0.923342 223.462 0.904285C223.561 0.894756 223.7 0.894756 223.759 0.951929C224.046 1.22826 224.511 1.15207 224.659 1.03773C225.194 0.618458 225.698 0.932909 226.114 1.08537C226.43 1.19971 226.767 0.68516 226.975 1.18066C227.311 1.14254 227.657 1.25686 228.004 1.05676C228.162 0.951939 228.617 1.20922 228.706 1.1044C229.003 0.789949 229.191 0.980534 229.438 1.11394H229.537C230.923 1.05676 232.318 1.39025 233.703 1.19015C233.95 1.16156 234.237 0.990053 234.435 1.05676C234.732 1.1711 234.95 1.2378 235.197 1.00911L235.346 1.03773C235.91 1.34265 235.91 1.35217 236.236 1.2283C236.671 1.06631 237.107 0.970995 237.503 1.34262C237.71 1.55225 237.928 1.52369 238.166 1.41888C238.413 1.31406 238.65 1.20922 238.898 1.11394C238.997 1.07582 239.135 1.01864 239.195 1.05676C239.778 1.39979 240.313 1.07582 240.867 1.01865C241.164 0.990063 241.48 0.904285 241.787 1.1425C241.926 1.24732 242.282 1.18063 242.489 1.1044C242.875 0.970995 243.222 0.732803 243.479 1.27594C243.509 1.33312 243.736 1.33308 243.875 1.33308C244.459 1.32355 245.032 1.28545 245.616 1.30451C245.953 1.31404 246.289 1.40931 246.626 1.47601C246.903 1.52365 247.061 1.07582 247.457 1.3998C247.665 1.56179 248.149 1.41885 248.506 1.43791C248.812 1.45696 249.159 1.29498 249.416 1.59038L249.614 1.59991C249.871 1.33311 250.326 1.22828 250.574 1.30451C250.989 1.42839 251.355 1.33311 251.731 1.36169C252.137 1.38075 252.533 1.34262 252.928 1.34262C253.106 1.35215 253.275 1.39978 253.453 1.42837C253.344 0.932871 253.74 1.36169 253.829 1.26641C254.046 1.03772 254.076 1.17113 254.106 1.37123L254.225 1.50463C254.482 1.07583 254.769 1.52367 255.026 1.49509C255.214 1.4665 255.402 1.38072 255.58 1.28544C255.778 1.19015 255.857 1.60945 256.105 1.37123C256.184 1.295 256.807 1.60942 256.956 1.72377L257.154 1.76188C257.015 1.22826 257.48 1.71426 257.628 1.55227C257.836 1.31405 258.133 1.40933 258.361 1.63802C258.727 1.41886 259.123 2.15256 259.479 1.61894C260.399 1.69517 261.329 1.40933 262.239 1.73331H262.526C262.744 1.22828 263.159 1.60945 263.476 1.56181L263.555 1.72377L263.694 1.56181C263.961 1.67615 264.208 1.22828 264.485 1.54273C264.753 1.40933 265.04 1.38074 265.277 1.54273C265.534 1.71425 265.653 1.18062 265.851 1.47601C265.94 1.61894 265.851 1.74286 266.148 1.60945C266.415 1.48558 266.821 1.58086 267.157 1.59991C267.365 1.60944 267.563 1.67614 267.761 1.6952C268.097 1.72379 268.404 1.55224 268.79 1.66659C269.106 1.76188 269.512 1.7047 269.868 1.66659C270.274 1.61894 270.65 1.70471 270.967 1.8667C271.352 2.0668 271.639 2.11445 272.035 1.91434C272.272 1.8 272.698 1.61895 272.856 2.10492L273.064 2.124C273.044 1.7619 273.193 1.79048 273.519 1.92388C273.757 2.01917 274.064 1.99058 274.341 2.00963C274.568 2.02869 274.776 2.01917 274.904 1.82859C275.033 1.93341 275.152 2.10495 275.3 2.13354C275.587 2.18118 275.993 2.40985 276.122 1.92388L276.329 1.90481C276.883 2.18114 277.517 2.13354 278.11 2.27647C278.397 2.34317 278.754 2.16212 279.07 2.18118C279.872 2.20976 280.683 2.29549 281.484 2.3336C281.752 2.34313 282.068 2.44795 282.286 2.19067L282.583 2.15257C283.187 2.40984 283.82 1.87624 284.423 2.25739C284.78 2.47655 285.284 2.13353 285.601 2.50515L285.759 2.37175C285.888 2.27647 285.927 2.09542 286.234 2.27647C286.442 2.40034 286.847 2.30504 287.154 2.26693C287.263 2.24787 287.312 2.12398 287.471 2.24785C288.025 2.67665 288.628 2.57185 289.242 2.36222C289.341 2.33363 289.598 2.39079 289.598 2.40032C289.598 2.8577 290.053 2.74334 290.212 2.66711C290.716 2.44795 291.172 2.49559 291.686 2.66711C291.884 2.73381 292.25 2.80054 292.448 2.55279L292.557 2.31457L292.676 2.55279C292.883 2.80054 293.259 2.74337 293.427 2.64808C293.744 2.47656 293.972 2.40986 294.269 2.64808L294.575 2.67665C295.021 2.38125 295.476 2.76241 295.921 2.68619C296.297 3.06734 296.9 2.69571 297.296 3.01015L297.376 3.04826C297.534 2.93392 297.405 2.47654 297.9 2.77193C298.117 2.90534 298.385 2.99112 298.642 3.02923C298.78 3.05782 298.998 2.97205 299.077 2.87676C299.265 2.66713 299.414 2.70526 299.542 2.89584C299.77 3.22935 300.195 2.59088 300.393 3.04826L300.67 3.01969C300.769 2.74336 300.819 2.4956 300.997 3.01015C301.076 3.21979 301.294 3.23887 301.551 3.08641C301.69 3.01018 302.046 3.01969 302.164 3.11498C302.432 3.33414 302.748 3.31507 302.966 3.23884C303.372 3.11496 303.678 3.48659 304.124 3.29602C304.47 3.15309 304.975 3.26746 305.41 3.27699C305.806 3.27699 306.201 3.27699 306.607 3.27699C307.043 3.28652 307.478 3.28648 307.913 3.28648C308.349 3.29601 308.784 3.27697 309.219 3.30556C309.526 3.32461 309.863 3.19119 310.14 3.42941L310.318 3.48659C310.634 3.09591 311.08 3.68671 311.406 3.40084C311.555 3.26744 311.752 3.27695 311.841 3.42941C312.039 3.76292 312.475 3.62955 312.772 3.80107C313.059 3.97259 313.425 3.91538 313.731 3.71527C313.82 3.6581 314.058 3.76294 314.226 3.782L314.454 3.79153C314.444 3.43897 314.671 3.4199 314.889 3.63906C315.196 3.95351 315.453 3.86774 315.78 3.72481C315.987 3.63905 316.215 3.37227 316.482 3.69625C317.323 3.72483 318.134 4.05833 318.985 3.92493C319.441 3.85822 319.866 3.84871 320.331 3.93447C320.826 4.02975 322.023 3.75341 322.498 3.54378L323.408 3.76292C323.527 3.87726 323.893 3.7534 323.824 4.05832L324.151 4.16315C324.546 3.82964 324.833 4.02973 325.14 4.287L325.486 4.33465C325.714 3.5914 326.238 4.47761 326.535 4.22033C326.723 4.4109 326.862 4.41088 327.159 4.287C327.465 4.16313 327.861 4.2108 328.267 4.36326C328.465 4.43949 328.831 4.73486 329.138 4.43947C329.454 4.8778 329.741 4.4109 330.048 4.44901L330.335 4.29654C330.414 4.08691 330.463 4.03925 330.562 4.287C330.661 4.54428 330.849 4.66818 331.195 4.64912C331.443 4.6396 331.74 4.72535 331.938 4.64912C332.215 4.54431 332.304 4.98262 332.571 4.73487C332.848 4.4776 332.957 4.90638 333.214 4.86827C333.382 4.83968 333.57 4.88732 333.748 4.86827C334.491 4.82062 334.669 4.83014 335.371 5.00166L336.004 4.85873L336.212 4.83016C336.638 5.07791 337.123 5.06836 337.598 5.14459C338.152 5.23988 338.686 5.3447 339.25 5.33517C339.646 5.32564 339.942 5.23035 340.14 4.95402L340.259 4.84924L340.348 4.98263C340.279 5.30661 340.447 5.40191 340.833 5.37332C341.08 5.34473 341.367 5.42094 341.565 5.34471C341.753 5.278 341.803 5.25897 341.971 5.36378C342.238 5.52577 342.555 5.64012 342.871 5.74493C342.96 5.77352 343.109 5.65917 343.237 5.64011C343.564 5.60199 343.811 5.36375 344.207 5.43046C344.435 5.46857 344.514 5.52578 344.494 5.70683C344.474 5.94505 344.504 5.99267 344.811 5.83068C345.058 5.69728 345.157 5.88787 345.157 6.08798L345.246 6.31666L345.365 6.11655C345.503 5.77351 345.78 5.86878 346.057 6.00218C346.285 6.107 346.513 6.3262 346.76 6.04033L346.968 6.02126C347.423 6.04032 347.878 6.00222 348.294 6.23091C348.66 5.95458 349.006 6.04983 349.432 6.2404C349.689 6.34522 350.065 6.27855 350.391 6.27855C350.955 6.26903 351.49 6.27854 351.737 6.4977C352.044 6.78356 352.459 6.2595 352.677 6.65971C352.964 6.29761 353.211 6.40241 353.538 6.68827C353.637 6.77403 353.953 6.69779 354.171 6.72638C354.607 6.78355 355.091 6.60251 355.507 6.91695C355.576 6.97413 355.833 6.90743 356.002 6.86931C356.269 6.81214 356.595 6.55488 356.684 7.03132L356.892 7.04086C357.12 6.99321 357.357 6.96461 357.555 6.87885C357.802 6.78356 357.911 6.78357 357.99 7.03132C358.07 7.26954 358.317 7.38387 358.653 7.34575C358.95 7.31716 359.306 7.48868 359.564 7.25046C359.89 7.48868 360.256 7.03129 360.622 7.33621C360.88 7.54585 361.414 7.30763 361.651 7.66972C361.75 7.82218 361.859 7.73645 361.948 7.65069C362.225 7.422 362.542 7.32669 362.839 7.63161C363.126 7.91748 363.591 7.91748 363.818 7.82219C364.472 7.54585 365.065 7.74599 365.55 7.99374C365.886 8.16525 366.015 7.86982 366.262 8.00323C366.47 8.1271 366.747 8.25099 366.985 8.26052C367.292 8.26052 367.509 8.3844 367.766 8.4511C367.935 8.49874 368.172 8.52734 368.301 8.46064C368.508 8.37488 368.637 8.23195 368.637 8.55592L368.845 8.57495C369.072 8.43202 369.231 8.21288 369.627 8.49874C369.755 8.5845 370.19 8.44155 370.487 8.38438C370.735 8.34626 371.022 8.36535 371.229 8.3177C371.655 8.21289 371.378 8.61308 371.754 8.63214C372.13 8.66072 372.12 8.77509 372.684 8.79414C373.565 8.84179 374.455 8.75604 375.306 9.0419C375.405 9.08002 375.573 9.02283 375.623 9.07047C376.048 9.40398 376.187 8.85133 376.444 8.94661C376.711 9.05143 376.879 9.35634 377.147 9.41351C377.443 9.48975 377.948 9.62316 378.057 9.18483C378.057 9.16578 378.245 9.16574 378.334 9.19432C378.561 9.2515 378.779 9.3182 378.997 9.3849L379.224 9.46116C379.393 9.42304 379.63 9.26103 379.68 9.28961C379.907 9.44207 380.056 9.38493 380.234 9.27058C380.244 9.26105 380.432 9.37539 380.521 9.45162L380.481 9.55645C380.382 9.59456 380.283 9.62316 380.174 9.66127C380.273 9.68033 380.372 9.70889 380.471 9.72795C380.639 9.75653 380.857 9.73746 380.976 9.81369C381.134 9.91851 381.194 9.8709 381.292 9.79467C381.49 9.62315 381.659 9.5374 381.985 9.75656C382.292 9.96619 382.747 9.96619 383.172 9.99478C384.3 10.071 385.428 10.1853 386.556 10.2901C386.744 10.3092 386.923 10.414 387.121 10.4712C387.348 10.5379 387.556 10.7952 387.833 10.5284C387.863 10.4998 388.06 10.576 388.189 10.5951C388.357 10.6332 388.525 10.6904 388.684 10.6808C388.921 10.6713 389.228 10.5188 389.347 10.576C389.574 10.7094 389.782 10.738 390.029 10.7475C390.198 10.7571 390.366 10.8047 390.534 10.8333C390.396 10.8524 390.217 10.8523 390.109 10.919C389.94 11.0143 389.683 11.1859 389.723 11.2812C389.782 11.4432 390.039 11.567 390.217 11.7004C390.336 11.6051 390.534 11.5289 390.544 11.4241C390.564 11.1668 390.663 11.0143 391.039 10.9381C391.286 10.8809 391.444 10.8238 391.603 11.0143L391.751 11.1382C392.206 10.6618 392.859 11.4146 393.334 11.0429C393.789 11.1478 394.304 11.1859 394.68 11.3765C394.977 11.5194 395.224 11.586 395.551 11.6242C395.857 11.6528 396.164 11.5765 396.481 11.7481C396.629 11.8243 396.966 11.6909 397.213 11.7004C397.411 11.71 397.629 11.7671 397.787 11.8529C397.906 11.9196 397.945 12.0625 398.015 12.1769C398.094 12.0816 398.173 11.9958 398.252 11.9005C398.4 12.0339 398.559 12.072 398.717 11.9196C398.826 12.0434 398.964 12.1197 399.093 11.9577C399.242 11.748 399.528 11.9577 399.617 11.9005C399.914 11.71 400.043 11.8624 400.241 11.9863C400.36 12.072 400.538 12.1292 400.696 12.1482C401.072 12.2054 401.458 12.1387 401.804 12.3484C401.893 12.4055 402.24 12.3293 402.358 12.2435C402.685 11.9863 403.09 12.1483 403.466 12.1388L403.575 12.2531C403.595 12.4055 403.595 12.5008 403.862 12.3579C404.001 12.2817 404.248 12.3007 404.436 12.2626C405.079 12.1387 405.079 12.1388 405.03 12.8534L405.089 12.8153L405.099 12.6723L404.891 12.7772C404.862 12.8248 404.911 12.9011 405.03 12.8534C405.347 12.6819 405.604 12.7105 405.851 12.7105C406.069 12.7105 406.187 12.7486 406.197 12.9201C406.197 12.9677 406.415 13.044 406.514 13.044C407.029 13.0249 407.553 13.206 408.068 12.9868C408.275 12.901 408.483 13.1202 408.562 13.3012L408.711 13.4251C408.81 13.3489 408.73 12.9963 409.106 13.3203C409.225 13.4156 409.473 13.4347 409.651 13.5109C410.165 13.7205 410.68 13.8158 411.234 13.6252C411.491 13.5299 411.61 13.6252 411.6 13.8349L411.758 14.0731C412.174 13.8349 412.372 14.2351 412.678 14.2541C413.005 14.2827 413.341 14.1493 413.658 14.1969C413.975 14.2351 414.262 14.4256 414.568 14.5019C414.766 14.559 415.004 14.5209 415.221 14.5495C415.32 14.5686 415.39 14.6638 415.479 14.721C415.578 14.7782 415.677 14.8258 415.776 14.8735C416.043 14.6067 416.3 14.8259 416.577 14.9021C416.646 14.9307 417.26 15.0927 416.814 14.702L418.012 14.5686C418.249 14.8068 418.724 14.8735 418.853 15.1784C418.912 15.3404 419.051 15.5024 419.229 15.6072C419.318 15.6549 419.565 15.55 419.753 15.531C419.852 15.5214 419.971 15.531 420.07 15.55L420.149 15.6739C419.882 15.8835 420.258 15.8836 420.307 15.8454C420.574 15.693 420.753 15.693 421.01 15.8931C421.267 16.0932 421.297 16.0646 422.138 16.1027C422.543 16.379 422.949 16.2647 423.375 16.1694L423.662 16.2361C424.107 16.5029 424.097 16.5125 424.839 16.5696C425.136 16.5982 424.918 16.7602 424.978 16.846L425.057 16.9794L425.195 16.9126C425.225 16.4076 425.838 17.0556 425.967 16.7507C426.086 17.1509 426.996 17.0461 427.006 17.5225C427.006 17.5797 427.204 17.675 427.323 17.694C427.57 17.7417 427.847 17.7702 427.798 17.4844L427.897 17.3033L427.995 17.4082C427.887 17.7417 428.183 17.7607 428.55 17.7702C429.252 17.7893 429.925 17.8941 430.449 18.2848C430.528 18.342 430.726 18.3134 430.855 18.342L430.924 18.4659C430.449 18.4563 430.657 18.5706 430.815 18.7231C431.201 19.1138 430.964 19.4854 430.271 19.6188C430.143 19.6379 430.024 19.6569 429.895 19.676C430.024 19.7236 430.162 19.7427 430.251 19.8094L430.291 20L430.064 19.9524C429.945 19.9428 429.767 19.9047 429.707 19.9428C429.549 20.0381 429.499 19.9619 429.381 19.9047C429.292 19.8761 429.143 19.9047 429.015 19.9237C428.886 19.9333 428.757 19.9523 428.629 19.9809C428.184 20.0572 427.778 19.8189 427.283 19.8761C426.887 19.9333 426.392 19.6951 425.937 19.5998C425.71 19.5521 425.462 19.5426 425.215 19.514C424.8 19.4854 424.522 19.3901 424.047 19.1043L423.889 19.009C423.464 18.9804 422.999 19.0185 422.623 18.9042C422.227 18.7898 421.92 18.6945 421.574 18.8851L421.475 18.8947C421.138 18.7803 420.822 18.6183 420.476 18.5707C420.06 18.504 420.05 18.5421 419.684 18.3134L419.832 18.3706C419.921 18.3706 420.02 18.3515 420.109 18.342L420.08 18.2467C419.961 18.2467 419.842 18.2562 419.684 18.3134L419.516 18.361C419.288 18.3896 419.041 18.504 418.853 18.4563C418.586 18.3991 418.398 18.7136 418.14 18.4754C417.982 18.3325 417.784 18.2181 417.616 18.0752C417.388 17.8846 417.398 18.0085 417.339 18.1419C417.27 18.3039 417.032 18.3039 416.953 18.18C416.795 17.9322 416.498 18.0275 416.27 17.9703C416.438 17.6845 415.835 17.8179 415.805 17.5702C415.795 17.4177 415.399 17.2843 415.211 17.1318C414.934 16.9222 414.944 16.8936 414.4 16.9317C414.232 16.9412 413.905 16.522 413.876 16.9889H413.737C413.233 16.5601 412.589 16.6554 411.986 16.7316C411.818 16.7602 411.778 16.7316 411.669 16.6744C411.145 16.4171 410.68 16.5029 410.254 16.7792C410.165 16.8364 410.007 16.8364 409.888 16.865L409.987 16.6554L409.938 16.4553L409.661 16.4267C409.393 16.5792 409.166 16.6649 409.136 16.3028L408.909 16.3123C408.483 16.3123 408.067 16.3314 407.642 16.3123C407.375 16.2933 407.246 16.1504 407.177 15.9503C407.157 15.8931 406.9 15.8359 406.751 15.8264L406.554 16.0169C406.524 16.1408 406.573 16.2837 406.296 16.2552C406.138 16.2456 405.99 16.2837 405.871 16.1027C405.713 15.874 405.653 15.8931 405.248 16.0646C405.099 16.1027 404.951 16.1599 404.802 16.1885L404.644 16.0837C404.604 15.9312 404.486 15.8264 404.367 15.874C404.278 15.9121 404.238 16.0074 404.159 16.0646C404.05 16.1503 403.922 16.217 403.803 16.2933C403.753 16.2075 403.734 16.1027 403.655 16.0265C403.496 15.874 403.199 15.7597 403.298 15.5215C403.378 15.4738 403.447 15.4262 403.476 15.3214L403.724 15.3785L403.941 15.3023C403.843 15.2261 403.753 15.1594 403.655 15.0831C403.605 15.1308 403.555 15.1689 403.476 15.3214C403.447 15.4262 403.378 15.4738 403.298 15.5215C403.15 15.4929 402.912 15.5786 402.873 15.3785C402.843 15.1975 402.813 15.1689 402.586 15.2927C402.477 15.3499 402.249 15.3213 402.081 15.3118C401.982 15.3023 401.893 15.2642 401.794 15.2356C402.131 14.7306 401.201 14.9402 401.151 14.6257V14.6543L401.309 14.6162L401.28 14.521L401.151 14.6257C400.884 14.7401 400.637 14.3971 400.359 14.6067C400.29 14.5114 400.211 14.4257 400.142 14.3304C400.033 14.3971 399.944 14.4923 399.825 14.5304C399.499 14.6543 398.935 14.5876 398.658 14.397C398.42 14.2351 398.262 14.0064 397.866 14.054L397.698 13.9778C397.886 13.3775 397.302 13.7491 397.075 13.7205C396.718 13.6729 396.323 13.7301 395.996 13.6538C395.699 13.5776 395.462 13.9397 395.175 13.6443C395.165 13.6252 394.868 13.711 394.749 13.7872C394.522 13.9397 394.413 13.9587 394.433 13.6919C394.017 13.6062 393.572 13.4156 393.206 13.4728C392.909 13.5109 392.75 13.5395 392.592 13.368C392.404 13.1583 392.285 13.2632 392.127 13.3775C392.048 13.4347 392.018 13.5013 391.81 13.4346C391.326 13.2536 390.762 13.2441 390.287 13.0249C390 12.8915 389.752 12.9296 389.535 13.1107C389.327 13.2917 389.208 13.2727 389.228 13.0154L389.089 12.9582C388.862 13.1488 388.694 13.0725 388.466 12.9201C388.407 12.8915 388.139 13.044 387.952 13.1011C387.734 13.1583 387.516 13.044 387.427 12.8343L387.308 12.7105C386.843 12.6819 386.368 12.6628 385.903 12.6533C385.607 12.6438 385.339 12.6342 385.151 12.4151C384.993 12.234 384.805 12.2531 384.627 12.396L384.478 12.3674C384.459 12.2436 384.449 12.053 384.211 12.1197C384.004 12.1864 383.687 12.1197 383.667 12.1388C383.212 12.6914 382.658 12.2054 382.163 12.1673C381.936 12.1483 381.698 11.9577 381.5 11.8147C381.451 11.7766 381.53 11.6337 381.55 11.5384C381.362 11.5289 381.184 11.5194 381.005 11.5098C380.531 11.5003 380.065 11.4813 379.59 11.4622C379.452 11.4622 379.254 11.405 379.175 11.4622C378.987 11.5861 378.848 11.7481 378.69 11.9005C378.482 11.7767 378.364 11.5384 377.997 11.567C377.819 11.5861 377.621 11.5194 377.463 11.5575C376.899 11.71 376.434 11.6337 376.028 11.2907L375.761 11.1763C375.366 11.1859 375.019 11.0429 374.653 11.0048C374.317 10.9571 373.941 11.1096 373.604 11.1954C373.208 11.3097 372.852 11.3002 372.565 11.0239C372.387 10.8428 372.209 10.8619 372.041 11.0143L371.883 10.9C371.635 10.6904 371.635 10.6904 371.229 10.8714C370.814 10.9 370.418 10.6618 370.003 10.8047L369.854 10.6904C369.755 10.7761 369.646 10.8619 369.547 10.9381C369.518 10.8142 369.518 10.6808 369.458 10.557L369.191 10.4807C368.726 10.8619 368.419 10.7666 368.093 10.3187C367.994 10.1853 367.608 10.1663 367.351 10.0996L367.163 10.1282C366.975 10.738 366.53 10.3283 366.243 10.2139C365.946 10.09 365.659 10.0615 365.342 10.0329C365.035 10.0043 364.719 10.1091 364.412 9.89949C364.323 9.84232 364.006 10.1091 363.749 9.85185C363.591 9.69939 363.353 10.0805 363.056 9.82323C362.888 9.6803 362.493 9.66123 362.186 9.62312C361.909 9.585 361.612 9.59455 361.325 9.59455C361.157 9.59455 360.959 9.59457 360.82 9.66127C360.642 9.74703 360.622 9.72794 360.583 9.57548C360.434 9.08951 359.781 9.1181 359.386 8.87036C358.911 9.10857 358.366 8.97518 357.852 9.02283L357.763 9.23248C357.604 9.38494 357.565 9.29916 357.535 9.16576L357.387 9.02283C357.209 9.40398 356.892 8.87988 356.615 9.06093C356.506 9.13716 356.111 9.02283 355.903 8.92754C355.734 8.84178 355.655 8.76554 355.507 8.918C355.309 9.13716 355.081 9.19434 354.834 8.92754H354.725C354.072 9.2801 353.508 8.91803 352.914 8.75604C352.687 8.68934 352.36 8.6512 352.202 8.73696C351.876 8.89895 351.707 8.95611 351.658 8.58449L351.588 8.52731C351.183 8.47014 350.738 8.57498 350.381 8.3177C349.728 8.72744 349.224 8.24146 348.719 8.06041C348.323 7.91748 347.977 7.88888 347.611 7.95558C346.73 8.11757 346.691 8.14619 346.265 7.5554C346.107 7.33624 346.117 7.45057 345.948 7.48868C345.731 7.54585 345.464 7.51727 345.226 7.48868C344.9 7.45057 344.375 7.44106 344.158 7.50776C344.059 7.53634 343.89 7.59349 343.871 7.57443C343.673 7.37433 343.475 7.28857 343.218 7.47914C342.911 7.21234 342.614 7.47918 342.307 7.46965C339.913 7.41248 337.528 7.37433 335.134 7.33621C334.926 7.32668 334.768 7.35531 334.688 7.0885C334.629 6.87887 334.124 6.90743 334.105 7.05989C334.025 7.54585 333.59 7.27904 333.362 7.28857C333.095 7.2981 333.303 7.16473 333.362 7.0885C333.452 6.9551 333.481 6.79309 333.214 6.78356C332.561 6.7645 331.908 6.74543 331.255 6.76449C330.81 6.77401 330.444 6.63108 330.107 6.43098C329.88 6.28805 329.751 6.08798 329.405 6.3262C329.236 6.44054 328.85 6.34525 328.564 6.3643C328.019 6.40242 327.426 6.22138 326.921 6.51677L326.604 6.50724C326.426 6.40242 326.308 6.30713 326.12 6.50724C325.843 6.80263 325.526 6.74543 325.229 6.47862C324.932 6.20229 324.952 6.40241 324.922 6.59299C324.912 6.68827 324.823 6.77404 324.744 6.84074L324.517 6.72638C324.447 6.38334 324.259 6.40242 324.032 6.60252C323.863 6.75498 323.755 6.80264 323.478 6.70735C323.359 6.65971 323.102 6.90744 322.894 6.98368C322.795 7.01226 322.587 6.95509 322.538 6.88839C322.31 6.61205 321.984 6.64063 321.667 6.64063C321.083 6.6311 321.083 6.62159 320.331 6.27855C320.123 6.17374 319.886 5.92599 319.619 6.23091C319.599 6.2595 319.391 6.18325 319.263 6.16419C319.094 6.12608 318.867 6.04033 318.768 6.08798C318.57 6.21185 318.451 6.26901 318.283 6.0689L318.144 5.94505C317.59 6.34526 317.007 5.72586 316.423 5.96408C316.146 6.07842 315.75 5.99265 315.413 6.00218L315.334 5.94505C314.949 5.91646 314.553 5.88785 314.167 5.86879C313.751 6.31664 313.84 5.38282 313.474 5.67821C313.118 5.56387 312.772 5.45904 312.366 5.4781C312.158 5.49716 311.832 5.29708 311.733 5.36378C311.456 5.56389 311.307 5.48766 311.099 5.31614L310.822 5.37332C310.328 5.62107 309.774 5.42096 309.249 5.46861L309.071 5.40189C308.863 5.28754 308.774 4.97311 308.368 5.18274C308.24 5.25898 307.943 5.20177 307.735 5.28752C307.686 5.30658 307.597 5.28756 307.448 5.32568L307.518 5.20177L307.458 4.97309L307.33 5.00166C307.33 5.09695 307.349 5.19227 307.448 5.32568Z" fill="#FDF6E8"/>
</svg>
