<svg width="1486" height="582" viewBox="0 0 1486 582" fill="none" xmlns="http://www.w3.org/2000/svg">
<g filter="url(#filter0_i_5098_8005)">
<path d="M1486 101.644V101.772L1485.93 106.947L1479.56 582H0V163.903L2.07236 163.818C0.91107 157.051 0.211728 150.225 0 143.384L30.354 130.032C54.8888 127.822 71.9424 109.508 86.8917 93.2109C101.841 76.9196 121.602 59.6326 146.233 60.9636C197.978 63.748 205.235 140.094 256.909 143.709C289.81 146.009 314.441 115.327 347.4 113.692C375.771 112.276 398.869 132.566 426.541 137.927C442.876 141.089 458.64 138.933 474.205 134.344C512.002 123.206 548.599 97.715 589.302 99.1418C627.214 100.478 658.915 125.016 696.539 129.111C730.96 132.864 764.638 118.91 792.862 102.134C798.732 98.6467 804.5 94.9998 810.236 91.3209C832.063 77.3029 853.442 62.6726 878.502 53.2811C921.143 37.2879 972.144 39.9073 1013.76 57.322C1045.81 70.7384 1080.87 78.5221 1116.75 79.3952C1130.14 79.72 1143.45 79.4058 1156.45 77.3295C1221.9 66.8945 1268.07 14.2777 1333.14 2.27741C1387.48 -7.74231 1448.22 16.1411 1473.28 57.3859C1481.48 70.8822 1485.62 85.8213 1485.98 100.877C1485.99 101.128 1485.99 101.383 1486 101.633V101.644Z" fill="url(#paint0_radial_5098_8005)"/>
</g>
<defs>
<filter id="filter0_i_5098_8005" x="0" y="0" width="1486" height="582" filterUnits="userSpaceOnUse" color-interpolation-filters="sRGB">
<feFlood flood-opacity="0" result="BackgroundImageFix"/>
<feBlend mode="normal" in="SourceGraphic" in2="BackgroundImageFix" result="shape"/>
<feColorMatrix in="SourceAlpha" type="matrix" values="0 0 0 0 0 0 0 0 0 0 0 0 0 0 0 0 0 0 127 0" result="hardAlpha"/>
<feOffset/>
<feGaussianBlur stdDeviation="12.5"/>
<feComposite in2="hardAlpha" operator="arithmetic" k2="-1" k3="1"/>
<feColorMatrix type="matrix" values="0 0 0 0 0.752941 0 0 0 0 0.121569 0 0 0 0 0.121569 0 0 0 0.5 0"/>
<feBlend mode="normal" in2="shape" result="effect1_innerShadow_5098_8005"/>
</filter>
<radialGradient id="paint0_radial_5098_8005" cx="0" cy="0" r="1" gradientUnits="userSpaceOnUse" gradientTransform="translate(756 -127) rotate(90) scale(460 2981.42)">
<stop stop-color="#C01F1F"/>
<stop offset="0.322432" stop-color="#D8796C"/>
<stop offset="0.769231" stop-color="#F7EACC"/>
<stop offset="1" stop-color="#FDF6E8"/>
</radialGradient>
</defs>
</svg>
