<svg width="213" height="212" viewBox="0 0 213 212" fill="none" xmlns="http://www.w3.org/2000/svg">
<g filter="url(#filter0_ddi_5642_10584)">
<path d="M191.949 117.751C183.098 164.92 139.45 200.251 91.3571 189.093C44.1879 180.241 11.4504 132.251 21.9768 87.6582C30.8283 40.489 70.9492 13.7509 121.95 21.2509C174.45 32.7509 198.107 71.2893 191.949 117.751Z" fill="url(#paint0_radial_5642_10584)"/>
</g>
<g filter="url(#filter1_i_5642_10584)">
<path d="M53.7321 136.749C52.1158 134.221 48.1097 134.494 45.5521 133.221C40.6563 130.784 39.0934 124.974 41.5916 120.248C42.8416 117.88 45.3095 116.632 45.0674 113.682C44.8645 111.197 42.0529 109.93 40.4513 108.46C35.5181 103.933 35.7324 96.9017 41.3559 93.0303C42.4646 92.2669 44.9148 91.5929 45.55 90.5848C47.7676 87.0523 43.0852 83.1765 42.5174 79.443C41.7726 74.5423 44.8739 70.2208 49.6471 69.0709C52.4297 68.3995 56.114 69.1672 57.1642 65.6642C58.01 62.8424 56.0279 59.4435 57.0143 55.9784C58.6017 50.4113 64.0125 48.5423 69.2938 49.7057C71.7748 50.2509 73.3028 51.635 75.5591 49.3862C77.0576 47.8937 76.9466 45.8239 77.4933 43.9572C79.1255 38.3819 84.9419 35.0971 90.4289 37.6121C93.2737 38.9151 94.8546 42.1459 98.3058 41.8851C100.535 41.7133 102.218 38.1235 103.677 36.5738C107.414 32.6071 113.076 32.2373 117.202 35.9058C120.029 38.4222 119.511 42.6153 124.147 42.8553C126.277 42.9665 128.961 40.5128 131.11 39.8651C136.711 38.171 142.258 41.1647 143.331 46.9758C143.693 48.9335 143.142 51.814 144.966 53.184C147.662 55.2084 151.415 53.2172 154.564 53.5529C159.574 54.0885 163.315 58.3877 162.807 63.4148C162.542 66.0339 160.489 68.9574 161.801 71.4216C162.918 73.521 166.337 73.6652 168.348 74.2846C173.616 75.9065 176.379 81.2853 174.425 86.4288C173.615 88.5644 170.655 91.5068 170.415 93.358C169.997 96.5586 173.236 97.909 175.161 99.7656C178.342 102.829 179.313 106.095 177.899 110.418C176.447 114.857 171.368 115.137 169.653 117.958C167.885 120.872 170.289 123.213 171.404 125.749C173.941 131.514 172.228 137.714 165.679 139.349C163.458 139.904 160.453 139.31 158.854 141.321C157.12 143.502 158.528 146.591 158.575 149.126C158.657 153.478 156.26 157.487 151.915 158.698C148.216 159.727 146.039 157.847 142.765 157.59C138.926 157.288 138.832 161.749 138.141 164.295C136.425 170.634 129.546 173.477 123.85 170.055C121.577 168.686 120.573 166.499 117.456 166.554C115.015 166.596 113.865 169.583 112.635 171.136C108.46 176.406 100.988 176.238 97.0396 170.739C95.8887 169.137 95.2256 166.284 93.1471 165.652C90.0295 164.702 88.6047 166.796 86.0883 167.912C80.7601 170.28 74.245 168.454 72.472 162.575C71.2469 158.512 73.3155 154.673 67.1105 154.334C65.6768 154.258 63.7795 154.913 62.1986 154.822C55.7237 154.449 51.644 149.473 53.107 143.113C53.607 140.946 55.1729 139.005 53.7295 136.745L53.7321 136.749ZM114.959 44.4531C71.1697 39.0705 36.313 81.3189 50.4234 123.211C64.1023 163.819 114.715 178.021 147.209 149.715C186.701 115.315 166.882 50.8382 114.955 44.4525L114.959 44.4531Z" fill="url(#paint1_radial_5642_10584)"/>
</g>
<g filter="url(#filter2_di_5642_10584)">
<path d="M110.634 84.4748C110.892 84.944 108.738 88.6478 108.335 89.3035C105.464 93.9468 101.368 99.4572 97.8188 103.611C95.2108 106.666 91.2736 109.694 89.688 113.333C87.6447 118.023 86.4328 125.747 86.3603 130.881C86.3128 134.389 87.5526 140.488 84.743 143.147C82.7379 145.043 79.6287 140.096 79.0028 138.515C77.5724 134.901 78.8533 133.569 79.6743 130.272C80.2447 127.979 80.8462 124.773 81.146 122.429C81.1817 122.156 81.3285 120.708 81.2811 120.63L81.2789 120.641C81.0586 120.281 80.8993 120.734 80.8131 120.799C78.785 122.38 74.479 126.523 71.9817 123.993C69.6606 121.643 69.0018 114.746 71.5278 112.438C72.8803 111.202 75.2988 110.652 76.9504 109.916C79.8119 108.64 83.3425 106.657 85.0769 103.986C86.6308 101.594 87.0389 98.799 87.9906 96.1531C87.9808 95.4588 86.6025 96.2308 86.2311 96.4062C82.1369 98.3418 78.5903 102.17 73.5638 101.631C67.7554 101.008 63.9762 93.9457 64.5398 88.558C67.0283 89.8304 68.8191 91.0695 71.7537 90.4414C76.9826 89.3217 82.7682 85.9599 88.0465 84.5772C91.9745 80.1482 97.5203 83.6402 99.6348 88.0246C100.061 88.9059 100.435 90.0457 100.769 90.9837C100.899 91.3466 100.956 91.9529 101.071 92.208C101.314 92.7395 101.518 92.1059 101.7 91.9644C104.801 89.5622 107.077 86.1026 110.634 84.4748ZM136.27 66.7514C139.026 65.8292 140.152 64.2895 143.122 66.2318C145.53 67.8081 150.567 72.8928 147.648 75.7841C146.09 77.3281 144.641 76.7917 142.751 76.9349C137.699 77.3213 133.551 78.9163 129.094 81.1922C127.256 82.1313 123.017 84.2619 121.776 85.6903C121.602 85.8948 121.462 85.9969 121.472 86.3139L121.479 86.323C123.457 86.0835 125.454 85.8315 127.385 85.3458C132.012 84.1792 139.721 79.9774 142.909 85.7143C144.425 88.4381 143.901 91.6005 141.825 93.8721C140.503 95.3202 137.598 96.9113 136.801 98.6486C136.457 99.405 137.168 101.355 136.459 102.649C136.158 103.196 134.307 103.584 133.632 103.741C129.158 104.796 124.504 104.966 120.07 106.472C119.343 106.721 117.838 107.57 117.293 107.635C116.37 107.742 115.024 107.202 114.023 107.127C112.783 107.035 110.641 107.255 109.405 107.498C108.472 107.68 104.613 108.777 104.361 109.64C104.141 110.397 105.446 111.987 105.8 112.715C106.286 113.713 106.617 114.806 107.09 115.813C107.26 115.919 107.457 115.928 107.643 115.85C107.83 115.771 109.015 114.451 109.403 114.146C115.277 109.502 127.516 108.803 134.785 109.459C142.053 110.115 152.212 113.842 150.088 123.045C148.592 129.526 141.573 143.234 136.424 147.473C134.969 148.671 130.912 150.929 129.045 150.427C127.671 150.059 125.978 147.015 124.94 145.913C124.36 145.295 123.439 144.706 122.886 144.069C122.332 143.432 121.108 140.787 120.792 140.626C117.869 139.144 111.849 142.554 107.97 141.437C98.8256 138.811 101.752 125.039 101.357 118.188C101.182 115.202 100.094 112.894 101.057 109.775C101.788 107.415 105.171 106.882 107.142 106.084C109.743 105.032 112.359 103.947 114.89 102.734C112.616 98.2456 111.407 93.0735 112.87 88.0996C114.43 82.7903 119.96 81.5988 123.559 78.3215C123.71 78.1825 123.848 78.1734 123.827 77.8898C122.312 76.6562 120.532 74.8006 119.642 73.0346C119.045 71.8448 117.561 67.9098 119.68 67.6693C125.494 68.2624 130.662 68.6284 136.27 66.7514ZM135.094 116.08C133.971 116.072 127.591 115.349 127.015 115.906C126.735 116.177 126.84 119.366 127.029 119.729L127.066 119.778C127.342 120.068 128.674 120.719 129.06 121.014C131.165 122.63 131.758 124.613 130.986 127.172C130.438 128.991 128.886 129.155 127.558 129.995C126.683 130.551 123.366 132.826 123.392 133.827C123.409 134.48 125.695 134.801 126.26 135.276C127.418 136.253 127.477 140.212 130.198 139.084C133.058 137.901 136.135 130.414 137.07 127.524C137.877 125.026 138.815 121.626 139.078 119.041C139.362 116.22 136.932 116.985 135.094 116.08ZM119.778 117.859C119.238 117.307 113.69 117.716 112.654 117.946C111.059 118.296 108.904 119.332 108.411 121.002C107.689 123.442 107.282 128.887 107.666 131.421C108.187 134.864 111.549 133.869 113.76 132.618C114.253 132.34 117.308 130.332 116.976 129.846C114.637 129.582 111.863 128.376 111.177 125.937C110.879 124.873 110.913 123.054 112.097 122.592C113.566 122.35 115.072 122.267 116.532 121.95C117.254 121.793 119.644 121.246 119.867 120.642C120.008 120.259 119.971 118.055 119.785 117.86L119.778 117.859ZM121.608 92.8058C121.21 92.9995 120.756 95.9331 121.026 96.4662C121.162 96.7369 121.254 96.6446 121.472 96.6622C125.079 96.9072 128.67 95.7064 130.554 92.4655L130.55 92.4648L121.608 92.8058ZM95.3576 59.6533C96.3964 59.5294 98.5542 60.8219 99.7384 60.8341C103.98 62.3652 107.948 63.6075 109.6 68.22C110.331 70.252 110.884 74.581 108.235 75.391C106.22 76.0089 104.595 74.2182 102.89 73.622C101.031 72.9739 98.3857 73.8268 96.4005 73.999C93.2652 74.2665 90.0544 74.1467 87.2026 72.6545C86.731 72.4104 84.8372 71.3077 85.6211 70.8206C87.3745 70.2666 89.2191 70.0133 90.9349 69.3278C92.2173 68.8175 95.0527 67.4744 96.1303 66.7078C97.8681 65.47 97.3594 63.85 96.4817 62.2459C96.2672 61.8557 94.9815 60.1762 94.9767 60.0259C94.9704 59.8108 95.1755 59.6705 95.3627 59.6473L95.3576 59.6533Z" fill="url(#paint2_radial_5642_10584)"/>
</g>
<defs>
<filter id="filter0_ddi_5642_10584" x="0" y="0" width="212.904" height="211.166" filterUnits="userSpaceOnUse" color-interpolation-filters="sRGB">
<feFlood flood-opacity="0" result="BackgroundImageFix"/>
<feColorMatrix in="SourceAlpha" type="matrix" values="0 0 0 0 0 0 0 0 0 0 0 0 0 0 0 0 0 0 127 0" result="hardAlpha"/>
<feOffset/>
<feGaussianBlur stdDeviation="10"/>
<feComposite in2="hardAlpha" operator="out"/>
<feColorMatrix type="matrix" values="0 0 0 0 0.968627 0 0 0 0 0.917647 0 0 0 0 0.8 0 0 0 1 0"/>
<feBlend mode="normal" in2="BackgroundImageFix" result="effect1_dropShadow_5642_10584"/>
<feColorMatrix in="SourceAlpha" type="matrix" values="0 0 0 0 0 0 0 0 0 0 0 0 0 0 0 0 0 0 127 0" result="hardAlpha"/>
<feOffset/>
<feGaussianBlur stdDeviation="4.15"/>
<feComposite in2="hardAlpha" operator="out"/>
<feColorMatrix type="matrix" values="0 0 0 0 0.968627 0 0 0 0 0.917647 0 0 0 0 0.8 0 0 0 1 0"/>
<feBlend mode="normal" in2="effect1_dropShadow_5642_10584" result="effect2_dropShadow_5642_10584"/>
<feBlend mode="normal" in="SourceGraphic" in2="effect2_dropShadow_5642_10584" result="shape"/>
<feColorMatrix in="SourceAlpha" type="matrix" values="0 0 0 0 0 0 0 0 0 0 0 0 0 0 0 0 0 0 127 0" result="hardAlpha"/>
<feOffset/>
<feGaussianBlur stdDeviation="13.75"/>
<feComposite in2="hardAlpha" operator="arithmetic" k2="-1" k3="1"/>
<feColorMatrix type="matrix" values="0 0 0 0 0.968627 0 0 0 0 0.917647 0 0 0 0 0.8 0 0 0 1 0"/>
<feBlend mode="normal" in2="shape" result="effect3_innerShadow_5642_10584"/>
</filter>
<filter id="filter1_i_5642_10584" x="36.9336" y="33.3633" width="141.6" height="141.615" filterUnits="userSpaceOnUse" color-interpolation-filters="sRGB">
<feFlood flood-opacity="0" result="BackgroundImageFix"/>
<feBlend mode="normal" in="SourceGraphic" in2="BackgroundImageFix" result="shape"/>
<feColorMatrix in="SourceAlpha" type="matrix" values="0 0 0 0 0 0 0 0 0 0 0 0 0 0 0 0 0 0 127 0" result="hardAlpha"/>
<feOffset/>
<feGaussianBlur stdDeviation="2.25"/>
<feComposite in2="hardAlpha" operator="arithmetic" k2="-1" k3="1"/>
<feColorMatrix type="matrix" values="0 0 0 0 0.968627 0 0 0 0 0.917647 0 0 0 0 0.8 0 0 0 1 0"/>
<feBlend mode="normal" in2="shape" result="effect1_innerShadow_5642_10584"/>
</filter>
<filter id="filter2_di_5642_10584" x="60.4844" y="55.6445" width="93.8906" height="98.8535" filterUnits="userSpaceOnUse" color-interpolation-filters="sRGB">
<feFlood flood-opacity="0" result="BackgroundImageFix"/>
<feColorMatrix in="SourceAlpha" type="matrix" values="0 0 0 0 0 0 0 0 0 0 0 0 0 0 0 0 0 0 127 0" result="hardAlpha"/>
<feOffset/>
<feGaussianBlur stdDeviation="2"/>
<feComposite in2="hardAlpha" operator="out"/>
<feColorMatrix type="matrix" values="0 0 0 0 0.752941 0 0 0 0 0.121569 0 0 0 0 0.121569 0 0 0 1 0"/>
<feBlend mode="normal" in2="BackgroundImageFix" result="effect1_dropShadow_5642_10584"/>
<feBlend mode="normal" in="SourceGraphic" in2="effect1_dropShadow_5642_10584" result="shape"/>
<feColorMatrix in="SourceAlpha" type="matrix" values="0 0 0 0 0 0 0 0 0 0 0 0 0 0 0 0 0 0 127 0" result="hardAlpha"/>
<feOffset/>
<feGaussianBlur stdDeviation="3.4"/>
<feComposite in2="hardAlpha" operator="arithmetic" k2="-1" k3="1"/>
<feColorMatrix type="matrix" values="0 0 0 0 0.968627 0 0 0 0 0.917647 0 0 0 0 0.8 0 0 0 1 0"/>
<feBlend mode="normal" in2="shape" result="effect2_innerShadow_5642_10584"/>
</filter>
<radialGradient id="paint0_radial_5642_10584" cx="0" cy="0" r="1" gradientUnits="userSpaceOnUse" gradientTransform="translate(107.75 103.858) rotate(100.628) scale(143.5 143.5)">
<stop stop-color="#C01F1F"/>
<stop offset="0.639423" stop-color="#F7EACC"/>
</radialGradient>
<radialGradient id="paint1_radial_5642_10584" cx="0" cy="0" r="1" gradientUnits="userSpaceOnUse" gradientTransform="translate(107.63 104.459) rotate(90.8588) scale(72.2481 72.5857)">
<stop stop-color="#F7EACC"/>
<stop offset="1" stop-color="#D05A51"/>
</radialGradient>
<radialGradient id="paint2_radial_5642_10584" cx="0" cy="0" r="1" gradientTransform="matrix(-17.3369 92.3874 -66.5583 -12.4663 115.422 63.3737)" gradientUnits="userSpaceOnUse">
<stop stop-color="#A01818"/>
<stop offset="0.326424" stop-color="#C01F1F"/>
<stop offset="0.774267" stop-color="#EDC6AD"/>
<stop offset="1" stop-color="#F7EACC"/>
</radialGradient>
</defs>
</svg>
