<svg width="205" height="205" viewBox="0 0 205 205" fill="none" xmlns="http://www.w3.org/2000/svg">
<g filter="url(#filter0_ddi_5642_10581)">
<path d="M183.859 92.5748C190.272 144.611 153.216 178.533 107.949 184.111C62.6815 189.69 25.9492 150.611 21.4479 111.111C12.4476 66.1111 46.5279 26.2906 91.7951 20.7121C140.449 14.7162 178.281 47.3076 183.859 92.5748Z" fill="url(#paint0_radial_5642_10581)"/>
</g>
<g filter="url(#filter1_i_5642_10581)">
<path d="M62.8379 148.081C60.6457 146.258 57.0964 147.659 54.4135 147.244C49.2775 146.448 46.1876 141.637 47.0878 136.637C47.5373 134.132 49.4127 132.291 48.3433 129.689C47.4434 127.498 44.5321 127.161 42.6578 126.29C36.8859 123.613 35.0534 117.184 39.0302 112.057C39.8142 111.046 41.8388 109.729 42.1236 108.634C43.1137 104.795 37.7563 102.635 36.1661 99.4175C34.0792 95.1942 35.6422 90.3868 39.6335 87.9698C41.9598 86.5599 45.5176 86.1932 45.4591 82.7183C45.4118 79.9191 42.6372 77.4123 42.5318 73.99C42.3648 68.491 46.7262 65.239 51.8442 64.7706C54.2482 64.5492 56.0308 65.3623 57.426 62.6755C58.3528 60.892 57.6558 59.0496 57.6129 57.2015C57.4842 51.6822 61.8048 47.0312 67.4986 47.7273C70.4504 48.0874 72.8132 50.5576 75.8634 49.3268C77.8329 48.5287 78.3218 44.7929 79.1967 42.969C81.4378 38.2996 86.4589 36.3329 91.2521 38.4661C94.5374 39.9302 95.2775 43.8765 99.5446 42.7578C101.505 42.2447 103.229 39.2492 104.988 38.0432C109.572 34.8948 115.459 36.0072 118.105 40.9603C118.997 42.6289 119.329 45.3962 121.375 46.1113C124.4 47.1675 127.225 44.2828 130.174 43.6791C134.865 42.7203 139.491 45.5356 140.481 50.2343C140.995 52.6826 139.978 55.9218 141.877 57.7752C143.494 59.3545 146.631 58.4998 148.631 58.4811C153.869 58.4315 157.921 62.5063 157.634 67.7274C157.516 69.8949 155.684 73.4124 156 75.1583C156.544 78.177 159.866 78.4665 162.145 79.5929C165.908 81.4506 167.729 84.1279 167.695 88.4504C167.659 92.8886 163.14 94.6062 162.4 97.6553C161.638 100.804 164.49 102.231 166.231 104.207C170.189 108.695 170.425 114.804 164.966 118.172C163.114 119.315 160.222 119.643 159.354 121.925C158.412 124.4 160.577 126.791 161.35 129.074C162.679 132.991 161.663 137.313 158.077 139.661C155.025 141.66 152.511 140.584 149.472 141.296C145.909 142.128 147.109 146.195 147.217 148.7C147.49 154.935 142.08 159.492 135.936 158.034C133.482 157.45 131.942 155.759 129.136 156.707C126.937 157.449 126.757 160.485 126.091 162.246C123.829 168.222 117.014 170.223 111.853 166.381C110.349 165.262 108.927 162.87 106.862 162.896C103.765 162.935 103.078 165.241 101.121 166.977C96.9783 170.657 90.5519 170.882 87.2519 166.068C84.9716 162.742 85.7385 158.67 80.0217 160.151C78.7012 160.495 77.1718 161.635 75.7139 162.008C69.7428 163.536 64.614 160.206 64.1061 154.025C63.9342 151.918 64.793 149.709 62.8344 148.079L62.8379 148.081ZM91.6841 46.8529C50.4779 54.5987 31.0881 102.905 55.9399 136.775C80.0309 169.607 129.959 167.882 151.227 132.883C177.077 90.3488 140.546 37.6707 91.6811 46.8533L91.6841 46.8529Z" fill="url(#paint1_radial_5642_10581)"/>
</g>
<g filter="url(#filter2_di_5642_10581)">
<path d="M99.3026 84.3416C99.6715 84.6915 98.7887 88.6664 98.6125 89.3769C97.3507 94.4094 95.2293 100.58 93.2121 105.365C91.7307 108.884 89.0376 112.76 88.6506 116.513C88.1519 121.349 89.2808 128.693 90.6947 133.363C91.6627 136.554 94.5436 141.72 92.7656 144.938C91.496 147.233 87.2538 143.647 86.2319 142.397C83.8949 139.536 84.6704 137.961 84.4637 134.739C84.3193 132.498 83.9401 129.421 83.5361 127.212C83.4896 126.954 83.2065 125.603 83.1406 125.544L83.1419 125.554C82.8388 125.292 82.8248 125.746 82.7657 125.831C81.3847 127.847 78.6793 132.842 75.6883 131.27C72.909 129.811 70.3249 123.755 71.9472 120.937C72.8155 119.428 74.8466 118.233 76.1301 117.09C78.3538 115.109 80.9809 112.296 81.782 109.378C82.4996 106.763 82.063 104.115 82.1622 101.444C81.9532 100.818 80.928 101.915 80.6422 102.181C77.4925 105.114 75.3837 109.602 70.6766 110.563C65.2371 111.673 59.7786 106.366 58.7363 101.324C61.3565 101.759 63.3356 102.366 65.8121 100.951C70.2247 98.4303 74.4954 93.7185 78.8768 90.9451C81.1574 85.8018 87.1865 87.3656 90.3651 90.7268C91.0048 91.4022 91.6717 92.3269 92.2442 93.0801C92.4667 93.3712 92.6936 93.9031 92.8718 94.1008C93.2447 94.5126 93.247 93.8789 93.3713 93.6988C95.4864 90.6299 96.5497 86.841 99.3026 84.3416ZM117.411 60.904C119.641 59.2744 120.217 57.5554 123.466 58.4585C126.101 59.192 132.127 62.3448 130.317 65.8046C129.351 67.6518 127.885 67.5838 126.214 68.2584C121.75 70.0644 118.455 72.7039 115.074 76.0496C113.68 77.4296 110.455 80.5803 109.743 82.2314C109.644 82.4669 109.547 82.5997 109.648 82.8836L109.656 82.8906C111.379 82.1034 113.114 81.2996 114.723 80.3031C118.577 77.9132 124.348 71.8865 128.888 76.1636C131.045 78.1933 131.483 81.2072 130.258 83.8624C129.478 85.5548 127.306 87.8328 127.084 89.6357C126.991 90.4198 128.198 91.9814 127.928 93.3583C127.813 93.9399 126.249 94.825 125.682 95.1621C121.935 97.407 117.769 98.9018 114.188 101.544C113.601 101.979 112.482 103.182 112.007 103.398C111.202 103.76 109.828 103.658 108.9 103.879C107.751 104.152 105.875 104.97 104.825 105.546C104.033 105.98 100.854 108.085 100.875 108.939C100.894 109.688 102.534 110.753 103.064 111.31C103.791 112.073 104.407 112.967 105.125 113.743C105.31 113.789 105.491 113.742 105.637 113.618C105.783 113.491 106.475 111.955 106.738 111.567C110.72 105.669 121.602 101.508 128.373 100.007C135.145 98.5062 145.419 98.954 146.148 107.9C146.661 114.2 144.255 128.638 140.814 133.961C139.842 135.465 136.818 138.679 134.983 138.762C133.633 138.826 131.222 136.556 129.965 135.858C129.261 135.465 128.257 135.196 127.573 134.779C126.887 134.361 125.019 132.32 124.686 132.265C121.611 131.765 117.141 136.588 113.306 136.695C104.269 136.952 102.95 123.637 100.618 117.546C99.5988 114.893 97.9475 113.115 97.9204 110.014C97.902 107.666 100.813 106.208 102.368 104.918C104.42 103.215 106.477 101.479 108.419 99.6511C105.066 96.2418 102.481 91.9067 102.372 86.9811C102.255 81.7231 106.919 79.0496 109.234 75.0444C109.33 74.8751 109.453 74.8273 109.353 74.5762C107.625 73.8957 105.478 72.729 104.163 71.3862C103.279 70.481 100.802 67.3443 102.651 66.516C108.087 65.3774 112.873 64.2201 117.411 60.904ZM130.563 105.915C129.543 106.231 123.556 107.415 123.196 108.086C123.021 108.413 124.035 111.27 124.311 111.544L124.358 111.577C124.692 111.76 126.085 111.965 126.52 112.121C128.892 112.978 130 114.603 130.038 117.143C130.067 118.948 128.709 119.544 127.748 120.687C127.116 121.442 124.768 124.459 125.079 125.358C125.283 125.944 127.446 125.576 128.094 125.844C129.425 126.394 130.619 129.963 132.758 128.158C135.006 126.262 135.636 118.595 135.65 115.708C135.661 113.213 135.53 109.864 135.024 107.448C134.468 104.811 132.487 106.204 130.563 105.915ZM117.205 111.939C116.558 111.594 111.649 113.565 110.778 114.071C109.435 114.848 107.782 116.407 107.817 118.061C107.866 120.479 109.066 125.526 110.145 127.711C111.609 130.68 114.367 128.809 116.009 127.04C116.375 126.645 118.563 123.947 118.122 123.602C115.928 124.037 113.069 123.745 111.745 121.733C111.168 120.856 110.675 119.2 111.613 118.44C112.874 117.797 114.213 117.288 115.444 116.58C116.053 116.23 118.06 115.045 118.087 114.434C118.105 114.047 117.436 112.061 117.212 111.938L117.205 111.939ZM111.641 88.7238C111.337 89.0157 111.772 91.8019 112.17 92.2068C112.371 92.4122 112.427 92.3034 112.629 92.2564C115.967 91.4387 118.873 89.3155 119.645 85.8374L119.641 85.8379L111.641 88.7238ZM78.3161 66.2669C79.2209 65.8552 81.5475 66.4037 82.6236 66.0736C86.9058 66.2379 90.858 66.2193 93.6831 69.9207C94.931 71.55 96.6791 75.3102 94.5131 76.8074C92.8668 77.9474 90.8793 76.7939 89.1635 76.7454C87.2936 76.6941 85.1429 78.2298 83.3947 78.9578C80.6327 80.1036 77.6909 80.9204 74.6784 80.3911C74.181 80.306 72.1481 79.8533 72.7175 79.1864C74.1458 78.1792 75.7435 77.418 77.0999 76.3025C78.1141 75.4708 80.2949 73.4376 81.0498 72.4329C82.2667 70.8112 81.3389 69.4904 80.0818 68.2907C79.7749 67.999 78.1246 66.8468 78.0789 66.7133C78.0114 66.5204 78.1564 66.3346 78.3191 66.2596L78.3161 66.2669Z" fill="url(#paint2_radial_5642_10581)"/>
</g>
<defs>
<filter id="filter0_ddi_5642_10581" x="0" y="0" width="204.584" height="204.646" filterUnits="userSpaceOnUse" color-interpolation-filters="sRGB">
<feFlood flood-opacity="0" result="BackgroundImageFix"/>
<feColorMatrix in="SourceAlpha" type="matrix" values="0 0 0 0 0 0 0 0 0 0 0 0 0 0 0 0 0 0 127 0" result="hardAlpha"/>
<feOffset/>
<feGaussianBlur stdDeviation="10"/>
<feComposite in2="hardAlpha" operator="out"/>
<feColorMatrix type="matrix" values="0 0 0 0 0.968627 0 0 0 0 0.917647 0 0 0 0 0.8 0 0 0 1 0"/>
<feBlend mode="normal" in2="BackgroundImageFix" result="effect1_dropShadow_5642_10581"/>
<feColorMatrix in="SourceAlpha" type="matrix" values="0 0 0 0 0 0 0 0 0 0 0 0 0 0 0 0 0 0 127 0" result="hardAlpha"/>
<feOffset/>
<feGaussianBlur stdDeviation="4.15"/>
<feComposite in2="hardAlpha" operator="out"/>
<feColorMatrix type="matrix" values="0 0 0 0 0.968627 0 0 0 0 0.917647 0 0 0 0 0.8 0 0 0 1 0"/>
<feBlend mode="normal" in2="effect1_dropShadow_5642_10581" result="effect2_dropShadow_5642_10581"/>
<feBlend mode="normal" in="SourceGraphic" in2="effect2_dropShadow_5642_10581" result="shape"/>
<feColorMatrix in="SourceAlpha" type="matrix" values="0 0 0 0 0 0 0 0 0 0 0 0 0 0 0 0 0 0 127 0" result="hardAlpha"/>
<feOffset/>
<feGaussianBlur stdDeviation="13.75"/>
<feComposite in2="hardAlpha" operator="arithmetic" k2="-1" k3="1"/>
<feColorMatrix type="matrix" values="0 0 0 0 0.968627 0 0 0 0 0.917647 0 0 0 0 0.8 0 0 0 1 0"/>
<feBlend mode="normal" in2="shape" result="effect3_innerShadow_5642_10581"/>
</filter>
<filter id="filter1_i_5642_10581" x="35.2402" y="36.2764" width="133.9" height="133.437" filterUnits="userSpaceOnUse" color-interpolation-filters="sRGB">
<feFlood flood-opacity="0" result="BackgroundImageFix"/>
<feBlend mode="normal" in="SourceGraphic" in2="BackgroundImageFix" result="shape"/>
<feColorMatrix in="SourceAlpha" type="matrix" values="0 0 0 0 0 0 0 0 0 0 0 0 0 0 0 0 0 0 127 0" result="hardAlpha"/>
<feOffset/>
<feGaussianBlur stdDeviation="2.25"/>
<feComposite in2="hardAlpha" operator="arithmetic" k2="-1" k3="1"/>
<feColorMatrix type="matrix" values="0 0 0 0 0.968627 0 0 0 0 0.917647 0 0 0 0 0.8 0 0 0 1 0"/>
<feBlend mode="normal" in2="shape" result="effect1_innerShadow_5642_10581"/>
</filter>
<filter id="filter2_di_5642_10581" x="54.7363" y="54.209" width="95.4805" height="95.4795" filterUnits="userSpaceOnUse" color-interpolation-filters="sRGB">
<feFlood flood-opacity="0" result="BackgroundImageFix"/>
<feColorMatrix in="SourceAlpha" type="matrix" values="0 0 0 0 0 0 0 0 0 0 0 0 0 0 0 0 0 0 127 0" result="hardAlpha"/>
<feOffset/>
<feGaussianBlur stdDeviation="2"/>
<feComposite in2="hardAlpha" operator="out"/>
<feColorMatrix type="matrix" values="0 0 0 0 0.752941 0 0 0 0 0.121569 0 0 0 0 0.121569 0 0 0 1 0"/>
<feBlend mode="normal" in2="BackgroundImageFix" result="effect1_dropShadow_5642_10581"/>
<feBlend mode="normal" in="SourceGraphic" in2="effect1_dropShadow_5642_10581" result="shape"/>
<feColorMatrix in="SourceAlpha" type="matrix" values="0 0 0 0 0 0 0 0 0 0 0 0 0 0 0 0 0 0 127 0" result="hardAlpha"/>
<feOffset/>
<feGaussianBlur stdDeviation="3.4"/>
<feComposite in2="hardAlpha" operator="arithmetic" k2="-1" k3="1"/>
<feColorMatrix type="matrix" values="0 0 0 0 0.968627 0 0 0 0 0.917647 0 0 0 0 0.8 0 0 0 1 0"/>
<feBlend mode="normal" in2="shape" result="effect2_innerShadow_5642_10581"/>
</filter>
<radialGradient id="paint0_radial_5642_10581" cx="0" cy="0" r="1" gradientUnits="userSpaceOnUse" gradientTransform="translate(102.277 102.726) rotate(82.9746) scale(136.375 136.375)">
<stop stop-color="#C01F1F"/>
<stop offset="0.639423" stop-color="#F7EACC"/>
</radialGradient>
<radialGradient id="paint1_radial_5642_10581" cx="0" cy="0" r="1" gradientUnits="userSpaceOnUse" gradientTransform="translate(102.342 103.306) rotate(73.2051) scale(68.6609 68.9817)">
<stop stop-color="#F7EACC"/>
<stop offset="1" stop-color="#C01F1F"/>
</radialGradient>
<radialGradient id="paint2_radial_5642_10581" cx="0" cy="0" r="1" gradientTransform="matrix(10.9263 88.6622 -63.8679 7.89311 97.5565 63.8536)" gradientUnits="userSpaceOnUse">
<stop stop-color="#A01818"/>
<stop offset="0.326424" stop-color="#C01F1F"/>
<stop offset="0.774267" stop-color="#EDC6AD"/>
<stop offset="1" stop-color="#F7EACC"/>
</radialGradient>
</defs>
</svg>
