<svg width="154" height="156" viewBox="0 0 154 156" fill="none" xmlns="http://www.w3.org/2000/svg">
<g filter="url(#filter0_ddi_5642_10583)">
<path d="M137.739 69.0411C140.805 102.453 118.647 133.827 84.9085 138.388C50.3047 147.453 20.1228 119.295 15.562 85.5571C11.0012 51.8189 34.6542 20.7714 68.3925 16.2106C104.805 8.95263 133.178 35.3029 137.739 69.0411Z" fill="url(#paint0_radial_5642_10583)"/>
</g>
<g filter="url(#filter1_di_5642_10583)">
<path d="M68.095 47.0681C71.6638 46.1957 79.4595 47.9085 79.4303 52.5699C79.4249 53.4852 78.4959 54.1209 80.3542 53.7546C84.1936 52.9943 92.9916 51.1852 96.1273 54.0831C97.0153 54.9029 97.7432 56.556 96.487 57.3712C94.4931 58.6644 90.5405 57.7119 88.1428 57.761C86.1591 57.8019 83.7253 57.8983 81.7575 58.0773C81.1255 58.1347 79.1055 58.2171 79.066 58.921C79.0062 60.0538 80.0724 59.9522 80.9311 59.9539C82.6791 59.956 84.0988 59.3965 85.732 59.1729C86.82 59.023 88.753 59.6175 88.2906 61.0127C87.5393 63.2801 82.571 63.6795 80.5221 64.1304C79.2416 64.4129 79.154 64.8456 79.4837 66.1224C79.6056 66.5885 79.6529 66.5827 80.0876 66.4566C84.7992 65.0733 89.2147 62.0149 94.3473 63.849C96.5375 64.6303 99.5052 66.3117 98.6895 69.0564C97.9926 71.3949 94.933 70.6552 93.1467 70.6414C89.5856 70.6149 89.2201 71.8568 86.4631 73.2339C85.9244 73.5031 85.3245 73.6715 84.7862 73.9435C84.5744 73.352 84.9528 73.3287 85.2085 72.9995C86.1463 71.8009 87.7161 69.7592 87.784 68.207C87.804 67.7752 87.4694 67.478 87.0532 67.408C86.269 67.2729 84.7585 67.8843 83.919 68.0456C83.0794 68.2067 82.1913 68.2202 81.367 68.3905C81.091 68.4475 79.9827 68.7543 79.8218 68.8714C79.5103 69.0986 79.7449 69.9218 79.7718 70.244C79.8441 70.3015 81.1475 69.4835 81.3968 69.3769C82.5791 68.8664 83.899 68.6066 85.1396 69.1291C86.5823 69.7365 85.8264 70.6434 85.1405 71.5049C84.0682 72.8506 82.6089 73.988 81.4285 75.2389C81.4166 76.0851 82.2498 76.2451 82.9551 76.1077C85.5297 75.6025 88.1232 74.3849 90.8624 73.9361C94.1014 73.4057 97.1881 74.0313 100.351 72.7312C101.765 72.1501 102.758 71.1916 104.42 71.4943C105.6 71.7108 107.951 73.1491 108.71 74.0876C110.117 75.8248 109.726 77.2019 107.839 78.3155C104.465 80.3119 101.084 78.6736 97.5466 78.3017C95.4379 78.0817 92.8826 78.2331 90.85 78.8669C90.1177 79.095 90.8953 79.4306 91.0842 79.666C91.2563 79.8813 91.3254 80.3292 91.6214 80.3817C94.699 80.0274 98.4804 79.8749 100.923 82.0866C101.962 83.0263 102.825 83.9735 100.891 84.4678C98.9574 84.9621 97.029 84.956 95.0548 85.5652C94.6776 85.6807 94.2968 85.8142 93.9467 85.985C93.7158 86.4485 95.1325 90.7683 95.3578 91.6044C96.3172 95.153 97.7866 98.8404 97.2198 102.514C96.4133 107.735 91.3211 107.116 87.5581 105.638C85.3716 104.781 80.7301 101.89 79.7488 99.7582C79.4502 99.1056 79.0072 97.818 79.5244 97.2234C80.7635 95.8022 86.0882 97.2094 87.8676 96.7164C88.1541 95.5358 88.1963 94.4804 87.9455 93.2686C87.8351 92.7421 87.5668 92.2115 87.4555 91.6991C87.2752 90.8845 86.8328 87.883 86.3938 87.3953C86.199 87.1781 85.9754 87.4517 85.7225 87.489C84.0719 87.7514 81.9589 88.2926 80.4125 87.5002C79.2969 86.9271 78.7776 84.912 79.8208 84.0779C80.4562 83.6469 84.8098 82.2984 84.9872 81.991C85.1258 81.7506 84.4476 80.9077 84.2603 80.8713C83.8077 80.7842 82.6917 81.2861 82.1668 81.4076C81.2038 81.6303 80.2164 81.8618 79.2464 82.0743C75.9195 82.8045 72.2207 83.0241 69.1245 84.3601C66.0603 85.6861 62.5753 87.7222 59.7093 89.476C58.4472 90.2471 56.2194 92.0725 55.0214 92.529C54.544 92.7113 54.1279 92.6636 53.686 92.7766L53.5802 92.6785C53.527 92.6689 53.4745 92.6693 53.4219 92.6743L52.9951 92.732L52.8865 92.6353C52.7349 92.6138 52.5874 92.6417 52.4398 92.6701C52.3525 92.6875 52.248 92.6821 52.1727 92.7062L51.8873 92.6068C51.8714 92.595 51.5493 92.6385 51.4847 92.6612L51.1995 92.5628C51.1596 92.5374 50.3459 92.5347 50.2414 92.5544L49.9562 92.456C49.9405 92.444 49.6178 92.4877 49.5536 92.5104L49.2682 92.411C49.2509 92.3994 48.9297 92.4428 48.8656 92.4654L48.5803 92.367C48.5803 92.367 48.3503 92.3841 48.3132 92.4031L48.0278 92.3037C47.9915 92.2692 47.2958 92.1473 47.0777 92.0478C46.4152 91.7531 45.7818 91.3196 45.6061 90.5804C45.5315 90.2567 45.4984 89.8461 45.4609 89.5062C45.4454 89.3708 45.4189 89.2366 45.4065 89.1036C45.5946 89.022 45.646 88.8632 45.6192 88.6649L45.6207 88.6765C45.635 88.6577 45.5869 88.403 45.6273 88.2657C46.8345 84.2029 52.4603 83.1729 55.9911 82.0616C59.8933 80.8327 63.8046 79.7282 67.7249 78.5922C68.095 78.4863 68.7656 78.5975 68.3294 78.0848C68.2491 77.9891 67.9021 77.9145 67.7302 77.7638C66.8847 77.028 66.7126 76.128 66.1474 75.2254L60.8593 77.579C58.6764 77.5991 56.4159 76.5436 55.9718 74.2132C55.6412 72.4713 57.2115 72.8647 58.4195 72.5864C59.5189 72.334 60.6043 71.9766 61.7026 71.7159L70.412 68.8949C70.4905 67.1924 69.8983 67.0478 68.4492 67.5776C66.7226 68.2122 64.2635 69.9476 62.4537 69.8219C61.1341 69.7308 59.8145 67.7718 61.0205 66.736C62.9166 65.1134 66.483 64.6367 68.5866 63.3452C69.2475 62.9417 70.1852 61.8856 68.9141 61.6563C66.7804 61.2715 64.7004 63.5669 62.5863 64.0746C59.5239 64.8112 54.3439 64.0861 52.84 60.931C52.566 60.3563 52.1819 59.2128 53.0224 58.9561C53.6017 58.7796 54.3935 58.7012 54.9995 58.5351C56.4468 58.1375 58.0368 57.549 59.4931 57.2595C61.9626 56.7658 64.6651 56.8968 67.0364 56.3827C67.4972 56.284 68.5905 56.0268 68.4383 55.461C67.768 53.512 66.9558 51.5878 66.8556 49.4972C66.8114 48.5689 67.0579 47.3234 68.095 47.0681ZM73.8478 84.2153C76.7891 83.5792 78.9246 86.733 78.4532 89.4088C78.243 90.5931 75.9844 91.9619 76.6994 93.1866C77.3861 94.3647 79.282 95.2309 78.9671 97.0297C78.6996 98.5585 74.9997 99.2277 73.6981 100.122C71.9653 101.313 70.9043 104.112 68.3099 103.411C65.893 102.759 61.983 99.18 60.3483 97.2575C59.3443 96.0773 58.5117 94.4837 58.5127 92.8927C58.5154 90.8362 60.5177 90.79 61.9057 90.0581C62.6732 89.6542 63.4804 88.8578 64.2694 88.3639C66.6979 86.8405 71.0699 84.8153 73.8478 84.2153ZM80.0041 89.8081C80.5362 89.0123 82.174 89.0432 82.986 89.3627C84.1947 89.8362 85.6558 91.7434 86.1912 92.9027C87.1753 95.0365 85.2687 95.3975 83.5423 95.4317C82.3925 95.4552 80.7714 94.8108 80.4789 93.6049C80.3031 92.8852 79.9672 91.2353 79.9222 90.5287C79.9074 90.2952 79.8701 90.0171 80.0074 89.8107L80.0041 89.8081ZM69.6089 91.3336L69.6093 91.3365C68.8234 91.5213 66.3179 92.9153 66.2937 93.7743C66.2771 94.4388 68.1387 96.1255 68.8909 96.1697C69.3859 96.1978 70.4401 95.5367 70.5209 95.0545C70.6291 94.4227 70.3992 91.788 69.9896 91.3945C69.8385 91.25 69.7799 91.2937 69.6089 91.3336ZM71.4337 72.4295C71.2917 72.1261 70.9796 72.244 70.7266 72.3231L70.7262 72.3202C70.2738 72.4599 69.4179 73.0163 69.0735 73.3546C68.3184 74.0992 70.2091 74.1803 70.6299 74.4292C71.2703 74.8111 71.2135 75.4526 71.0962 76.0996C71.0298 76.4593 70.3516 77.5609 70.8671 77.5979C71.2595 77.2617 72.7511 77.2789 72.7341 76.7345L71.4337 72.4295ZM80.0841 73.4872C80.2534 73.6187 81.0027 72.8529 81.1687 72.6902C81.9182 71.9494 80.4184 72.0983 79.8848 72.0133L80.0841 73.4872Z" fill="url(#paint1_radial_5642_10583)"/>
</g>
<g filter="url(#filter2_i_5642_10583)">
<path d="M112.048 43.8008L111.362 42.3029C122.171 52.2632 127.651 67.9927 126.1 82.6031C122.748 114.153 92.0704 134.408 61.6575 124.357C25.8381 112.521 15.0856 67.8222 42.391 41.33C56.5193 27.6226 78.373 23.9981 96.389 31.5364C97.9319 32.1831 99.9207 32.9328 101.112 34.0424C97.4658 33.1618 93.8345 31.5122 90.0738 31.1146C89.8097 31.0872 88.7657 30.932 88.79 31.375C89.7101 31.5162 92.7903 32.255 93.2822 32.8906C93.4397 33.0945 93.1491 33.3579 93.0532 33.3799C92.7251 33.4596 90.6583 32.7682 90.037 32.6449C86.5909 31.9626 83.1735 31.5053 79.6722 31.2278C78.6206 31.1448 77.3018 30.8393 76.1819 30.8553C75.5448 30.8641 75.0062 31.0933 74.3968 31.1833C74.3565 31.602 74.9471 31.3894 75.2391 31.3911C76.3105 31.3973 77.8051 31.6183 78.722 31.5028C79.3871 31.756 80.8075 31.577 80.6727 32.3916L77.5598 32.5048C76.0588 32.5594 74.5039 32.546 73.0096 32.6703C70.4985 32.8787 68.0986 33.488 65.6216 33.9007C65.6306 34.3155 66.6909 34.131 66.9571 34.1008C68.1037 33.9687 69.2327 33.6358 70.4013 33.4864C73.2602 33.1174 76.0397 33.2773 78.7744 32.9415C83.2502 33.276 87.836 34.143 91.8393 36.1839L91.3759 36.5563C91.6759 36.5536 91.9956 36.5811 92.2718 36.7128C93.7033 37.4047 95.8162 38.5712 97.0757 39.5077C97.3081 39.6801 98.5216 40.5402 98.2435 40.8627C96.584 40.064 94.9873 39.0719 93.2818 38.3633C86.6367 35.5963 78.6091 34.2771 71.4211 35.1263C42.9476 38.4881 25.8657 70.1449 38.5828 95.9338C52.2521 123.651 90.3578 128.305 109.889 104.08C119.872 91.6993 121.557 74.2645 115.234 59.7843C115.433 59.3845 115.655 59.7751 115.836 59.8836C116.435 60.242 116.927 60.6948 117.33 61.2637C117.629 60.7288 117.171 59.9563 116.945 59.4385C116.16 57.6462 114.722 55.4708 113.54 53.8944C112.919 53.0662 111.532 52.0583 111.684 51.1629C113.401 52.7939 115.306 54.3995 116.785 56.2507C117.19 56.7559 117.301 57.6479 118.041 57.884C118.013 57.2007 117.638 56.345 117.017 56.0039C117.042 55.7831 116.866 55.3538 117.11 55.2833C117.711 55.919 118.237 56.3644 119.082 56.6439C118.774 55.1919 118.066 53.8038 117.413 52.4712C115.951 49.487 114.088 46.4208 112.05 43.8048L112.048 43.8008ZM64.9289 34.639L63.9081 34.4994L61.3657 35.4879C62.6263 35.5489 63.7162 34.8208 64.9289 34.639Z" fill="url(#paint2_radial_5642_10583)"/>
</g>
<defs>
<filter id="filter0_ddi_5642_10583" x="0" y="0" width="153.021" height="155.105" filterUnits="userSpaceOnUse" color-interpolation-filters="sRGB">
<feFlood flood-opacity="0" result="BackgroundImageFix"/>
<feColorMatrix in="SourceAlpha" type="matrix" values="0 0 0 0 0 0 0 0 0 0 0 0 0 0 0 0 0 0 127 0" result="hardAlpha"/>
<feOffset/>
<feGaussianBlur stdDeviation="7.5"/>
<feComposite in2="hardAlpha" operator="out"/>
<feColorMatrix type="matrix" values="0 0 0 0 0.968627 0 0 0 0 0.917647 0 0 0 0 0.8 0 0 0 1 0"/>
<feBlend mode="normal" in2="BackgroundImageFix" result="effect1_dropShadow_5642_10583"/>
<feColorMatrix in="SourceAlpha" type="matrix" values="0 0 0 0 0 0 0 0 0 0 0 0 0 0 0 0 0 0 127 0" result="hardAlpha"/>
<feOffset/>
<feGaussianBlur stdDeviation="2"/>
<feComposite in2="hardAlpha" operator="out"/>
<feColorMatrix type="matrix" values="0 0 0 0 0.968627 0 0 0 0 0.917647 0 0 0 0 0.8 0 0 0 1 0"/>
<feBlend mode="normal" in2="effect1_dropShadow_5642_10583" result="effect2_dropShadow_5642_10583"/>
<feBlend mode="normal" in="SourceGraphic" in2="effect2_dropShadow_5642_10583" result="shape"/>
<feColorMatrix in="SourceAlpha" type="matrix" values="0 0 0 0 0 0 0 0 0 0 0 0 0 0 0 0 0 0 127 0" result="hardAlpha"/>
<feOffset/>
<feGaussianBlur stdDeviation="13.75"/>
<feComposite in2="hardAlpha" operator="arithmetic" k2="-1" k3="1"/>
<feColorMatrix type="matrix" values="0 0 0 0 0.968627 0 0 0 0 0.917647 0 0 0 0 0.8 0 0 0 1 0"/>
<feBlend mode="normal" in2="shape" result="effect3_innerShadow_5642_10583"/>
</filter>
<filter id="filter1_di_5642_10583" x="43.4062" y="44.8486" width="68.1484" height="63.832" filterUnits="userSpaceOnUse" color-interpolation-filters="sRGB">
<feFlood flood-opacity="0" result="BackgroundImageFix"/>
<feColorMatrix in="SourceAlpha" type="matrix" values="0 0 0 0 0 0 0 0 0 0 0 0 0 0 0 0 0 0 127 0" result="hardAlpha"/>
<feOffset/>
<feGaussianBlur stdDeviation="1"/>
<feComposite in2="hardAlpha" operator="out"/>
<feColorMatrix type="matrix" values="0 0 0 0 0.752941 0 0 0 0 0.121569 0 0 0 0 0.121569 0 0 0 1 0"/>
<feBlend mode="normal" in2="BackgroundImageFix" result="effect1_dropShadow_5642_10583"/>
<feBlend mode="normal" in="SourceGraphic" in2="effect1_dropShadow_5642_10583" result="shape"/>
<feColorMatrix in="SourceAlpha" type="matrix" values="0 0 0 0 0 0 0 0 0 0 0 0 0 0 0 0 0 0 127 0" result="hardAlpha"/>
<feOffset/>
<feGaussianBlur stdDeviation="3.4"/>
<feComposite in2="hardAlpha" operator="arithmetic" k2="-1" k3="1"/>
<feColorMatrix type="matrix" values="0 0 0 0 0.968627 0 0 0 0 0.917647 0 0 0 0 0.8 0 0 0 1 0"/>
<feBlend mode="normal" in2="shape" result="effect2_innerShadow_5642_10583"/>
</filter>
<filter id="filter2_i_5642_10583" x="27.0352" y="27.6758" width="99.3242" height="99.2754" filterUnits="userSpaceOnUse" color-interpolation-filters="sRGB">
<feFlood flood-opacity="0" result="BackgroundImageFix"/>
<feBlend mode="normal" in="SourceGraphic" in2="BackgroundImageFix" result="shape"/>
<feColorMatrix in="SourceAlpha" type="matrix" values="0 0 0 0 0 0 0 0 0 0 0 0 0 0 0 0 0 0 127 0" result="hardAlpha"/>
<feOffset/>
<feGaussianBlur stdDeviation="2.25"/>
<feComposite in2="hardAlpha" operator="arithmetic" k2="-1" k3="1"/>
<feColorMatrix type="matrix" values="0 0 0 0 0.968627 0 0 0 0 0.917647 0 0 0 0 0.8 0 0 0 1 0"/>
<feBlend mode="normal" in2="shape" result="effect1_innerShadow_5642_10583"/>
</filter>
<radialGradient id="paint0_radial_5642_10583" cx="0" cy="0" r="1" gradientUnits="userSpaceOnUse" gradientTransform="translate(76.9357 77.3336) rotate(82.3014) scale(101.797 101.797)">
<stop stop-color="#C01F1F"/>
<stop offset="0.639423" stop-color="#F7EACC"/>
</radialGradient>
<radialGradient id="paint1_radial_5642_10583" cx="0" cy="0" r="1" gradientTransform="matrix(9.83756 86.9259 -63.4103 7.19809 72.6878 33.0365)" gradientUnits="userSpaceOnUse">
<stop offset="0.240385" stop-color="#C01F1F"/>
<stop offset="0.66856" stop-color="#EDC6AD"/>
<stop offset="1" stop-color="#F7EACC"/>
</radialGradient>
<radialGradient id="paint2_radial_5642_10583" cx="0" cy="0" r="1" gradientUnits="userSpaceOnUse" gradientTransform="translate(76.6881 77.1015) rotate(-82.3134) scale(51.0355 51.274)">
<stop stop-color="#F7EACC"/>
<stop offset="1" stop-color="#D05A51"/>
</radialGradient>
</defs>
</svg>
