<svg width="183" height="184" viewBox="0 0 183 184" fill="none" xmlns="http://www.w3.org/2000/svg">
<g filter="url(#filter0_ddi_5642_10585)">
<path d="M162.436 76.487C171.099 115.897 152.982 153.371 106.763 163.531C67.3525 172.193 29.8054 153.736 19.719 107.857C11.0564 68.4469 35.9823 29.4761 75.3926 20.8135C115.982 8.73555 153.774 37.0767 162.436 76.487Z" fill="url(#paint0_radial_5642_10585)"/>
</g>
<g filter="url(#filter1_i_5642_10585)">
<path d="M60.439 135.399C58.357 133.974 55.3468 135.503 52.9493 135.359C48.3595 135.084 45.2394 131.102 45.6182 126.623C45.8067 124.379 47.306 122.602 46.1486 120.4C45.1745 118.544 42.5822 118.488 40.8592 117.876C35.5535 115.996 33.4069 110.485 36.4852 105.64C37.0921 104.685 38.7663 103.357 38.9264 102.368C39.4806 98.9055 34.5828 97.4463 32.9157 94.744C30.7277 91.1968 31.7063 86.8329 35.0217 84.3734C36.9541 82.9389 40.0575 82.3212 39.7181 79.2653C39.4446 76.8037 36.7931 74.8254 36.4169 71.8197C35.8144 66.9899 39.3867 63.7643 43.8559 62.9278C45.955 62.5337 47.5925 63.1023 48.5989 60.6201C49.2676 58.9724 48.5011 57.4074 48.3102 55.7831C47.7397 50.9322 51.1602 46.4777 56.2331 46.6193C58.8629 46.692 61.1487 48.6721 63.7335 47.3354C65.4021 46.4693 65.5233 43.1382 66.1429 41.4592C67.7303 37.1607 71.99 35.0126 76.3887 36.4946C79.4036 37.5122 80.3824 40.9268 84.0483 39.5881C85.7328 38.9737 87.003 36.1924 88.4528 34.9845C92.2298 31.8317 97.5066 32.324 100.248 36.4676C101.172 37.8635 101.693 40.2735 103.555 40.7339C106.307 41.4137 108.556 38.6389 111.103 37.8629C115.156 36.6299 119.464 38.7264 120.725 42.7832C121.381 44.8971 120.753 47.8345 122.579 49.3098C124.134 50.5669 126.827 49.5543 128.587 49.3722C133.197 48.8947 137.103 52.1483 137.283 56.7709C137.358 58.6899 136.036 61.9399 136.458 63.4515C137.188 66.0654 140.138 66.0453 142.238 66.8487C145.707 68.1733 147.533 70.3807 147.86 74.191C148.196 78.1032 144.358 79.9903 143.959 82.7373C143.549 85.5736 146.179 86.5945 147.876 88.1906C151.735 91.8166 152.448 97.1774 147.919 100.597C146.382 101.756 143.862 102.285 143.286 104.367C142.661 106.625 144.766 108.552 145.636 110.498C147.131 113.839 146.595 117.729 143.63 120.095C141.107 122.108 138.804 121.369 136.186 122.247C133.117 123.276 134.51 126.759 134.813 128.956C135.57 134.425 131.182 138.887 125.649 138.112C123.44 137.801 121.944 136.438 119.55 137.506C117.675 138.342 117.768 141.031 117.326 142.637C115.829 148.088 109.992 150.415 105.128 147.459C103.711 146.598 102.26 144.608 100.443 144.803C97.7186 145.093 97.3045 147.181 95.7243 148.872C92.3803 152.457 86.7383 153.187 83.4329 149.22C81.149 146.48 81.4872 142.829 76.5744 144.607C75.4397 145.019 74.187 146.15 72.9338 146.6C67.8009 148.44 63.0076 145.931 62.0483 140.529C61.7224 138.688 62.2959 136.671 60.4357 135.397L60.439 135.399ZM77.4638 43.8461C41.81 54.0814 28.7316 98.2359 53.4268 126.012C77.3657 152.936 121.2 147.281 137.035 114.692C156.282 75.0861 119.742 31.7116 77.4611 43.8467L77.4638 43.8461Z" fill="url(#paint1_radial_5642_10585)"/>
</g>
<g filter="url(#filter2_di_5642_10585)">
<path d="M99.8135 80.9361C101.826 79.6228 103.555 79.1871 105.95 79.1943C108.217 79.2004 115.204 80.1784 112.266 83.7572L106.827 88.8293C106.609 89.3584 108.382 89.9082 107.879 91.2368C107.498 92.2437 104.746 94.1088 103.905 95.122C103.767 95.2863 103.629 95.3433 103.747 95.5985C106.133 95.5031 108.286 94.7551 109.806 92.8529C111.051 91.2927 111.581 88.6978 114.158 88.8676C116.477 89.0193 115.478 91.6516 115.597 93.1478C116.622 93.1321 117.214 92.1479 118.065 91.8363C119.156 91.4363 120.187 91.6445 121.293 91.7778C124.455 92.1631 131.116 93.5678 132.767 96.5509C133.299 97.5142 133.112 98.9302 132.745 99.9374C131.242 104.052 123.645 101.58 120.541 101.192C116.363 100.67 112.116 101.365 108.047 102.335C108.054 102.696 108.13 102.565 108.314 102.626C110.447 103.319 111.801 102.687 113.811 102.671C115.922 102.656 117.53 104.369 118.388 106.171C119.446 108.393 118.913 109.336 117.793 111.33C116.056 114.419 112.974 117.585 110.291 119.903C107.615 122.217 104.638 124.645 100.869 124.106C98.9092 123.826 98.3519 122.498 97.0514 121.228C96.0265 120.229 93.8865 117.924 92.8181 117.248C91.6736 116.524 91.0678 117.567 90.6806 118.546C89.8025 120.762 90.6084 120.573 91.6886 121.972C93.7479 124.639 90.6416 127.856 88.3808 129.158L85.6833 130.455L84.037 130.817L84.0413 130.823C83.0466 130.587 82.1552 130.729 81.1339 130.446C79.9732 130.125 78.9953 129.535 78.1201 128.726C76.6281 127.345 71.9694 122.594 71.2476 120.978C71.1258 120.707 70.9993 120.282 71.0239 119.992C71.0397 119.813 72.7409 117.569 73.0028 117.018C73.1366 116.733 73.5204 116.052 73.081 115.899C72.5283 115.71 70.4628 117.107 69.7077 117.352C65.4595 118.728 61.2868 114.849 57.0259 114.662C56.0837 114.62 53.5825 115.112 55.3894 113.726C58.0767 111.669 62.1433 110.689 65.1686 109.052C65.6982 108.765 68.6174 107.105 68.3192 106.463C68.2364 106.285 66.6525 105.422 66.3189 105.155C65.9532 104.862 64.4242 103.444 65.1584 103.001C67.9851 102.739 70.8586 102.661 73.5349 101.611C73.8513 101.264 71.5959 99.1333 71.2615 98.8336C70.8463 98.4633 70.194 97.8638 69.7539 97.5741C69.2751 97.2572 67.5832 96.6473 67.3682 96.2688C66.9976 95.6103 67.9176 93.1227 68.5945 92.7316C70.1943 91.804 71.4346 93.6195 72.3584 93.2201C75.4213 91.1588 78.3726 88.6477 81.5184 86.7252C83.5446 85.4876 85.1182 84.8566 87.4594 85.7823C87.8859 85.9505 88.2394 86.4259 88.777 86.3406C89.1541 86.2839 89.6242 85.889 90.0525 85.7523C91.8309 85.1748 93.7054 85.1688 95.4726 84.332C97.1626 83.5317 98.265 81.9477 99.8135 80.9361ZM103.958 109.545L103.955 109.546C102.707 109.971 101.305 111.725 100.325 112.632C99.8709 113.052 97.5594 114.887 97.4557 115.175C97.316 115.563 98.1843 116.508 98.4539 116.842C98.8131 117.283 100.323 118.984 100.755 119.072C101.091 119.142 101.541 119.017 101.851 118.877C103.253 118.242 105.683 113.881 106.15 112.37C106.288 111.924 106.461 111.323 106.408 110.86C106.271 109.701 104.966 109.2 103.958 109.545ZM82.5357 121.826C84.0738 119.887 86.7421 114.705 81.6598 117.154C81.2806 117.336 78.9025 118.942 78.8196 119.131C78.5779 119.695 81.235 121.985 81.6103 122.561L81.6131 122.56C81.89 122.672 82.3667 122.04 82.5357 121.826ZM98.0368 105.023C96.7498 105.289 95.5932 105.746 94.1946 106.011C91.806 106.464 88.6373 107.688 86.3022 108.548C85.784 108.737 82.427 109.995 82.331 110.187C82.2041 110.444 82.4165 110.44 82.5916 110.476C83.5609 110.686 85.2789 110.19 86.2834 109.95C86.6035 109.873 86.8538 109.67 87.1389 109.598C89.8626 108.898 92.8102 109.471 93.3712 112.618L93.3718 112.621C93.5442 112.616 93.667 112.533 93.8097 112.453C94.7152 111.94 98.0115 107.529 98.682 106.439C98.762 106.309 99.2087 105.452 99.2311 105.375C99.3768 104.865 98.3247 104.963 98.0368 105.023ZM89.7483 90.7005C89.5915 90.7704 88.3654 93.123 88.0015 93.5662C87.2788 94.4485 85.9252 95.1554 85.6806 96.3221C85.6109 96.645 85.6851 96.9663 85.5905 97.2948C85.2185 98.5813 82.0627 100.447 80.939 101.516C80.8526 101.6 80.4939 101.768 80.8152 101.89L80.8187 101.892C80.9539 101.941 83.3097 101.774 83.6846 101.734C86.3291 101.448 91.7555 100.68 93.9566 99.4333C96.6701 97.8973 94.6658 94.1711 93.0563 92.5081C92.5477 91.9815 90.4513 90.3987 89.7483 90.7005ZM79.4304 92.2096C77.843 92.539 76.0456 94.7115 74.6363 95.5681C74.4915 95.9666 75.97 97.6454 76.3116 97.7995C76.5037 97.8847 76.5745 97.7574 76.7068 97.6596C78.0644 96.6278 79.3377 94.5276 80.7738 93.4361C80.9429 92.97 80.0029 92.0903 79.4332 92.209L79.4304 92.2096ZM100.278 87.5282C100.583 86.2209 100.203 86.2516 99.0761 86.6335C98.6006 86.7937 96.2162 87.8616 96.1905 88.2667C96.1682 88.5825 97.4416 89.8079 97.5795 90.269L98.0608 90.7302C98.9323 89.9886 100.014 88.6503 100.278 87.5282ZM89.597 56.1591C89.4783 54.3977 91.0594 54.2459 92.3794 54.3977C94.8043 54.6765 100.732 56.2645 101.715 58.6968C102.524 60.6995 100.795 62.1703 100.059 63.7923C100.77 63.7235 101.355 63.2551 102.005 63.0536C104.171 62.3777 107.526 62.4325 109.556 63.5085C111.212 64.3853 112.175 65.7708 110.289 67.0659C108.019 68.6224 104.853 69.0699 102.375 70.2333C101.372 70.7026 100.201 71.3201 100.917 72.5965C101.59 73.7943 104.011 71.8087 104.825 71.6985C106.596 71.4598 109.689 72.6757 110.459 74.3627C111.964 77.6656 107.519 77.015 105.616 77.3089C103.011 77.7114 99.9374 78.5351 97.5388 79.6123C96.1352 80.2417 94.8919 81.1989 93.5064 81.7915C90.4559 83.0906 86.8583 82.7946 83.638 83.7087C81.1303 84.4236 77.845 86.1737 75.8479 87.8567C73.602 89.7483 72.2465 92.3113 68.899 90.487C67.7686 89.8713 66.8845 89.1097 68.157 88.0804C70.0108 86.5794 72.8992 85.2109 74.5449 83.5527C75.8468 82.2386 74.6076 81.9615 73.3339 82.392C71.4419 83.0338 68.4285 85.3655 66.6381 85.3826C66.2757 85.387 65.1751 85.0427 64.7481 84.9172C62.9443 84.3969 57.6457 82.4651 61.0993 80.3538C63.6909 78.7693 67.0983 77.6925 69.867 76.3179C70.8704 75.8191 71.8616 75.307 72.7651 74.637C72.4059 73.5538 72.2086 72.418 71.9056 71.3224C71.1894 68.7495 70.2641 66.3405 70.4798 63.5988C70.6256 61.7596 70.966 60.8797 73.0649 60.8668C74.9711 60.8543 80.5503 63.8372 81.8358 65.2472C83.9855 67.6098 81.4891 69.0788 81.3579 71.5204C81.7263 71.4395 82.099 71.3765 82.4598 71.2612C83.7777 70.8373 85.583 70.0353 86.9039 69.4765C88.5153 68.7949 90.0966 68.0505 91.6428 67.236C91.5259 65.4088 91.0206 63.6604 90.6887 61.8674C90.6356 61.5812 90.7098 61.267 90.6486 60.9434C90.3763 59.481 89.6907 57.5528 89.597 56.1591ZM92.3363 75.1446C89.8751 73.5543 85.5565 76.3201 83.3169 77.585C82.9148 77.8109 80.3478 79.2692 80.2725 79.4331L80.2754 79.4324C80.1829 79.636 80.4709 79.7395 80.6157 79.8026C82.1469 80.4676 85.7786 80.4024 87.3569 79.9116C88.9349 79.4207 91.2428 77.7808 92.2475 76.4829C92.6527 75.9584 93.0194 75.5869 92.3363 75.1446Z" fill="url(#paint2_radial_5642_10585)"/>
</g>
<defs>
<filter id="filter0_ddi_5642_10585" x="0" y="0" width="182.533" height="183.604" filterUnits="userSpaceOnUse" color-interpolation-filters="sRGB">
<feFlood flood-opacity="0" result="BackgroundImageFix"/>
<feColorMatrix in="SourceAlpha" type="matrix" values="0 0 0 0 0 0 0 0 0 0 0 0 0 0 0 0 0 0 127 0" result="hardAlpha"/>
<feOffset/>
<feGaussianBlur stdDeviation="9"/>
<feComposite in2="hardAlpha" operator="out"/>
<feColorMatrix type="matrix" values="0 0 0 0 0.968627 0 0 0 0 0.917647 0 0 0 0 0.8 0 0 0 1 0"/>
<feBlend mode="normal" in2="BackgroundImageFix" result="effect1_dropShadow_5642_10585"/>
<feColorMatrix in="SourceAlpha" type="matrix" values="0 0 0 0 0 0 0 0 0 0 0 0 0 0 0 0 0 0 127 0" result="hardAlpha"/>
<feOffset/>
<feGaussianBlur stdDeviation="3"/>
<feComposite in2="hardAlpha" operator="out"/>
<feColorMatrix type="matrix" values="0 0 0 0 0.968627 0 0 0 0 0.917647 0 0 0 0 0.8 0 0 0 1 0"/>
<feBlend mode="normal" in2="effect1_dropShadow_5642_10585" result="effect2_dropShadow_5642_10585"/>
<feBlend mode="normal" in="SourceGraphic" in2="effect2_dropShadow_5642_10585" result="shape"/>
<feColorMatrix in="SourceAlpha" type="matrix" values="0 0 0 0 0 0 0 0 0 0 0 0 0 0 0 0 0 0 127 0" result="hardAlpha"/>
<feOffset/>
<feGaussianBlur stdDeviation="13.75"/>
<feComposite in2="hardAlpha" operator="arithmetic" k2="-1" k3="1"/>
<feColorMatrix type="matrix" values="0 0 0 0 0.968627 0 0 0 0 0.917647 0 0 0 0 0.8 0 0 0 1 0"/>
<feBlend mode="normal" in2="shape" result="effect3_innerShadow_5642_10585"/>
</filter>
<filter id="filter1_i_5642_10585" x="31.7441" y="32.9395" width="119.305" height="118.953" filterUnits="userSpaceOnUse" color-interpolation-filters="sRGB">
<feFlood flood-opacity="0" result="BackgroundImageFix"/>
<feBlend mode="normal" in="SourceGraphic" in2="BackgroundImageFix" result="shape"/>
<feColorMatrix in="SourceAlpha" type="matrix" values="0 0 0 0 0 0 0 0 0 0 0 0 0 0 0 0 0 0 127 0" result="hardAlpha"/>
<feOffset/>
<feGaussianBlur stdDeviation="2.25"/>
<feComposite in2="hardAlpha" operator="arithmetic" k2="-1" k3="1"/>
<feColorMatrix type="matrix" values="0 0 0 0 0.968627 0 0 0 0 0.917647 0 0 0 0 0.8 0 0 0 1 0"/>
<feBlend mode="normal" in2="shape" result="effect1_innerShadow_5642_10585"/>
</filter>
<filter id="filter2_di_5642_10585" x="50.75" y="50.3525" width="86.3477" height="84.4707" filterUnits="userSpaceOnUse" color-interpolation-filters="sRGB">
<feFlood flood-opacity="0" result="BackgroundImageFix"/>
<feColorMatrix in="SourceAlpha" type="matrix" values="0 0 0 0 0 0 0 0 0 0 0 0 0 0 0 0 0 0 127 0" result="hardAlpha"/>
<feOffset/>
<feGaussianBlur stdDeviation="2"/>
<feComposite in2="hardAlpha" operator="out"/>
<feColorMatrix type="matrix" values="0 0 0 0 0.752941 0 0 0 0 0.121569 0 0 0 0 0.121569 0 0 0 1 0"/>
<feBlend mode="normal" in2="BackgroundImageFix" result="effect1_dropShadow_5642_10585"/>
<feBlend mode="normal" in="SourceGraphic" in2="effect1_dropShadow_5642_10585" result="shape"/>
<feColorMatrix in="SourceAlpha" type="matrix" values="0 0 0 0 0 0 0 0 0 0 0 0 0 0 0 0 0 0 127 0" result="hardAlpha"/>
<feOffset/>
<feGaussianBlur stdDeviation="3.4"/>
<feComposite in2="hardAlpha" operator="arithmetic" k2="-1" k3="1"/>
<feColorMatrix type="matrix" values="0 0 0 0 0.968627 0 0 0 0 0.917647 0 0 0 0 0.8 0 0 0 1 0"/>
<feBlend mode="normal" in2="shape" result="effect2_innerShadow_5642_10585"/>
</filter>
<radialGradient id="paint0_radial_5642_10585" cx="0" cy="0" r="1" gradientUnits="userSpaceOnUse" gradientTransform="translate(91.4182 92.1852) rotate(77.6032) scale(120.652 120.652)">
<stop stop-color="#C01F1F"/>
<stop offset="0.639423" stop-color="#F7EACC"/>
</radialGradient>
<radialGradient id="paint1_radial_5642_10585" cx="0" cy="0" r="1" gradientUnits="userSpaceOnUse" gradientTransform="translate(91.5264 92.6882) rotate(67.8338) scale(60.7447 61.0285)">
<stop stop-color="#F7EACC"/>
<stop offset="1" stop-color="#C01F1F"/>
</radialGradient>
<radialGradient id="paint2_radial_5642_10585" cx="0" cy="0" r="1" gradientTransform="matrix(21.9759 82.0152 -62.6087 16.7978 83.5833 58.4228)" gradientUnits="userSpaceOnUse">
<stop stop-color="#C01F1F"/>
<stop offset="0.774267" stop-color="#EDC6AD"/>
<stop offset="1" stop-color="#F7EACC"/>
</radialGradient>
</defs>
</svg>
