<svg width="171" height="171" viewBox="0 0 171 171" fill="none" xmlns="http://www.w3.org/2000/svg">
<g filter="url(#filter0_ddi_5642_10582)">
<path d="M151.971 92.6477C147.856 129.527 108.969 155.456 77.7446 151.972C40.8654 147.857 14.3048 114.625 18.42 77.7455C22.5351 40.8662 55.7676 14.3057 92.6468 18.4208C120.469 21.5253 156.087 55.7685 151.971 92.6477Z" fill="url(#paint0_radial_5642_10582)"/>
</g>
<g filter="url(#filter1_di_5642_10582)">
<path d="M96.1256 77.9966C98.2667 77.4485 99.9001 77.5798 101.983 78.2945C103.955 78.9702 109.751 81.8901 106.133 84.1374L99.8968 86.9446C99.5508 87.3409 100.932 88.3443 100.101 89.3522C99.4706 90.1162 96.5228 90.9263 95.4907 91.5596C95.3224 91.6622 95.1852 91.671 95.2127 91.9285C97.3179 92.5511 99.4148 92.5363 101.301 91.3295C102.846 90.3392 104.075 88.2362 106.269 89.1463C108.243 89.9642 106.594 91.9613 106.256 93.2993C107.153 93.5887 107.96 92.9062 108.794 92.8868C109.862 92.8612 110.698 93.3487 111.622 93.792C114.261 95.063 119.645 98.2551 120.2 101.341C120.379 102.337 119.797 103.515 119.179 104.284C116.654 107.422 110.769 103.023 108.181 101.766C104.698 100.076 100.794 99.4246 96.9643 99.0652C96.864 99.382 96.9682 99.2906 97.1099 99.3979C98.7622 100.633 100.128 100.483 101.883 101.064C103.726 101.674 104.62 103.641 104.834 105.464C105.097 107.712 104.355 108.375 102.79 109.78C100.363 111.956 96.7426 113.802 93.7211 115.027C90.7058 116.249 87.3963 117.484 84.2742 115.898C82.6501 115.075 82.5573 113.755 81.8005 112.265C81.2036 111.092 80.0223 108.451 79.2917 107.546C78.5092 106.577 77.6736 107.307 77.0468 108.045C75.6267 109.715 76.3841 109.787 76.9107 111.325C77.915 114.257 74.2586 116.139 71.9047 116.604L69.1725 116.935L67.6322 116.763L67.6345 116.77C66.8382 116.269 66.0188 116.131 65.2131 115.583C64.2974 114.96 63.6206 114.156 63.0979 113.193C62.2072 111.549 59.5568 106.033 59.4062 104.413C59.3804 104.141 59.3962 103.734 59.5034 103.489C59.5679 103.339 61.715 101.886 62.1062 101.483C62.3071 101.275 62.8416 100.797 62.5049 100.534C62.0799 100.206 59.8669 100.81 59.1372 100.8C55.0312 100.741 52.5455 96.1289 48.8904 94.7062C48.0822 94.3912 45.7594 94.0789 47.7423 93.4068C50.691 92.4103 54.5223 92.7604 57.6409 92.2297C58.1872 92.1366 61.2194 91.5553 61.1499 90.9085C61.1315 90.7289 60.0071 89.5087 59.7954 89.1773C59.5638 88.8142 58.6515 87.1271 59.4211 86.958C61.9598 87.5668 64.4858 88.3481 67.1268 88.2257C67.5045 88.0155 66.1708 85.4946 65.9683 85.1348C65.7162 84.6894 65.3256 83.9745 65.0281 83.5923C64.705 83.1746 63.4124 82.1431 63.3372 81.7498C63.2093 81.0669 64.7463 79.1732 65.4514 79.033C67.1189 78.6984 67.6618 80.6458 68.5843 80.5715C71.8611 79.6827 75.1738 78.3689 78.4818 77.6256C80.6122 77.1472 82.1692 77.0634 83.934 78.5621C84.2556 78.8347 84.4227 79.3534 84.9161 79.4382C85.2613 79.5004 85.7874 79.2958 86.2007 79.3034C87.92 79.3266 89.554 79.8755 91.3403 79.6696C93.0488 79.4726 94.4777 78.4193 96.1256 77.9966ZM91.2704 104.134L91.2675 104.134C90.0543 104.135 88.315 105.248 87.1942 105.748C86.6744 105.979 84.1205 106.892 83.9437 107.112C83.7065 107.408 84.1835 108.489 84.3197 108.859C84.5017 109.35 85.313 111.277 85.6631 111.482C85.9351 111.643 86.3646 111.667 86.6757 111.637C88.0847 111.498 91.4912 108.419 92.3444 107.242C92.5962 106.894 92.9242 106.422 93.0153 106.003C93.2385 104.954 92.25 104.131 91.2704 104.134ZM68.9837 108.491C70.8966 107.258 74.7536 103.534 69.6032 104.163C69.2194 104.209 66.6742 104.905 66.5462 105.044C66.1681 105.464 67.8047 108.244 67.9613 108.857L67.9642 108.857C68.1721 109.036 68.773 108.628 68.9837 108.491ZM87.453 98.4441C86.2536 98.2955 85.1108 98.3519 83.8146 98.1688C81.6008 97.8567 78.4795 97.9841 76.1918 98.0425C75.6843 98.0539 72.3885 98.157 72.2488 98.2952C72.0626 98.4814 72.2484 98.5407 72.3899 98.6244C73.172 99.0934 74.8145 99.1702 75.7604 99.258C76.062 99.2857 76.3396 99.1841 76.6093 99.2053C79.1882 99.4013 81.5858 100.773 81.1431 103.679L81.1428 103.682C81.2944 103.728 81.4261 103.692 81.5742 103.664C82.515 103.484 86.6892 100.62 87.5957 99.8691C87.7032 99.7805 88.3452 99.165 88.3875 99.1046C88.6656 98.7039 87.722 98.4772 87.453 98.4441ZM84.4723 83.5216C84.3165 83.5345 82.5516 85.2222 82.1035 85.5006C81.2132 86.055 79.8252 86.2698 79.2671 87.2132C79.1108 87.4739 79.0801 87.7759 78.9004 88.034C78.1956 89.0441 74.8965 89.7355 73.602 90.3337C73.5015 90.3816 73.1399 90.4213 73.383 90.6227L73.3856 90.6259C73.4888 90.7084 75.5893 91.2587 75.9281 91.3351C78.3156 91.8678 83.268 92.8052 85.5533 92.3708C88.3704 91.8359 87.7276 87.9979 86.818 86.0738C86.5308 85.4647 85.1737 83.4667 84.4723 83.5216ZM75.0415 81.7834C73.5618 81.6005 71.3534 82.9609 69.8728 83.2898C69.6295 83.5948 70.4199 85.4932 70.6717 85.7284C70.8139 85.8595 70.9133 85.7693 71.0575 85.7233C72.5449 85.2263 74.2753 83.7747 75.8487 83.2491C76.1337 82.8932 75.5755 81.8489 75.0444 81.7837L75.0415 81.7834ZM94.5784 83.8749C95.231 82.8264 94.8917 82.7411 93.7971 82.7403C93.3357 82.7391 90.9437 82.963 90.8016 83.3081C90.6888 83.5766 91.4357 85.0211 91.419 85.4631L91.7013 86.0065C92.6794 85.6187 94.0164 84.7737 94.5784 83.8749ZM94.5585 53.3996C94.9762 51.831 96.3967 52.1667 97.5011 52.6893C99.5302 53.6495 104.223 56.7861 104.359 59.195C104.471 61.1783 102.529 61.9463 101.408 63.1412C102.048 63.2922 102.697 63.057 103.323 63.0738C105.409 63.1262 108.314 64.1661 109.763 65.7036C110.946 66.957 111.374 68.449 109.349 69.019C106.912 69.7027 104.022 69.1546 101.52 69.4346C100.508 69.5465 99.307 69.7384 99.5526 71.0614C99.7838 72.3033 102.48 71.2905 103.221 71.4354C104.834 71.7516 107.167 73.7257 107.339 75.4224C107.672 78.7432 103.994 76.8625 102.25 76.5555C99.8618 76.1352 96.9423 75.9428 94.535 76.1712C93.1268 76.304 91.7611 76.7697 90.3795 76.8759C87.339 77.1047 84.2938 75.7825 81.2194 75.6258C78.8243 75.5065 75.4455 76.0583 73.2087 76.933C70.6935 77.9157 68.7558 79.7471 66.3807 77.1685C65.5784 76.2978 65.0333 75.3737 66.4464 74.8539C68.5045 74.0953 71.424 73.7579 73.3474 72.8008C74.87 72.0417 73.873 71.4333 72.6365 71.4313C70.7993 71.4305 67.4856 72.5694 65.9215 72.0548C65.6047 71.9514 64.7484 71.3262 64.4136 71.0906C62.997 70.104 58.954 66.8541 62.5868 66.0375C65.312 65.4245 68.5969 65.4951 71.4142 65.1172C72.4355 64.9796 73.4506 64.8262 74.4357 64.51C74.4433 63.4606 74.607 62.4134 74.6672 61.3698C74.8047 58.9177 74.7114 56.5462 75.7103 54.2227C76.3813 52.6643 76.938 51.9989 78.7695 52.6086C80.4329 53.1613 84.408 57.4091 85.1106 59.0174C86.2836 61.7105 83.6761 62.2512 82.8396 64.3384C83.1844 64.3769 83.5274 64.4329 83.8758 64.4393C85.1486 64.46 86.9569 64.2946 88.2723 64.1988C89.8772 64.082 91.4746 63.9023 93.0619 63.6504C93.5007 62.0247 93.5781 60.3526 93.8195 58.6931C93.858 58.4282 94.0166 58.1766 94.0589 57.8767C94.2544 56.5227 94.2277 54.6408 94.5585 53.3996ZM91.3273 70.742C89.6546 68.6292 85.075 69.7597 82.7507 70.1987C82.3332 70.2765 79.6668 70.7866 79.5528 70.907L79.5567 70.9074C79.4157 71.0573 79.6348 71.2332 79.7423 71.331C80.8786 72.3632 84.0613 73.3806 85.5808 73.4201C87.1001 73.4594 89.5945 72.714 90.8533 71.881C91.3613 71.5443 91.7909 71.329 91.3273 70.742Z" fill="url(#paint1_radial_5642_10582)"/>
</g>
<g filter="url(#filter2_i_5642_10582)">
<path d="M131.982 62.993L131.804 61.2505C139.279 74.9744 139.416 92.6837 132.858 106.861C118.694 137.477 80.8828 147.376 53.7033 126.856C21.6912 102.691 26.1538 54.0143 62.7028 36.6827C81.6139 27.7154 104.854 31.5405 120.413 45.2909C121.745 46.4697 123.49 47.9046 124.311 49.4291C120.941 47.2955 117.849 44.3929 114.199 42.7065C113.943 42.5886 112.945 42.0753 112.818 42.5296C113.696 42.9864 116.544 44.7836 116.822 45.5917C116.911 45.8508 116.528 46.0165 116.424 46.0059C116.066 45.974 114.222 44.5711 113.639 44.2345C110.403 42.369 107.119 40.7399 103.689 39.263C102.659 38.8198 101.436 38.0612 100.303 37.6944C99.6585 37.4854 99.0379 37.5319 98.3936 37.4141C98.2099 37.8217 98.8771 37.8097 99.1705 37.9113C100.247 38.284 101.676 39.0177 102.639 39.2149C103.222 39.6973 104.713 40.0028 104.298 40.7768L101.126 39.8261C99.5961 39.3678 98.0354 38.8226 96.4885 38.4365C93.8893 37.7876 91.2649 37.5802 88.6302 37.1486C88.4973 37.5692 89.6279 37.7461 89.9062 37.8068C91.1057 38.0659 92.3561 38.1169 93.5836 38.3662C96.5879 38.9724 99.3313 40.0839 102.199 40.6812C106.591 42.5487 110.911 44.9898 114.243 48.4137L113.649 48.63C113.952 48.7299 114.264 48.8669 114.497 49.094C115.702 50.2801 117.43 52.177 118.378 53.5505C118.553 53.8036 119.48 55.0845 119.09 55.314C117.692 53.9424 116.424 52.3976 114.95 51.1009C109.206 46.0428 101.576 41.9693 94.0495 40.3658C64.2351 34.0122 36.2119 60.0394 40.1944 90.3507C44.4762 122.928 81.2459 140.646 109.193 122.939C123.477 113.889 131.136 96.9132 129.723 80.1735C130.061 79.8392 130.151 80.3083 130.295 80.4794C130.776 81.045 131.116 81.6689 131.327 82.3795C131.811 81.9434 131.614 81.0091 131.564 80.4103C131.386 78.3376 130.683 75.6558 130.032 73.6646C129.691 72.6186 128.639 71.1295 129.098 70.2802C130.269 72.5092 131.637 74.777 132.494 77.1467C132.728 77.7938 132.535 78.7296 133.199 79.2205C133.404 78.5228 133.32 77.5333 132.811 76.9775C132.912 76.7637 132.881 76.2713 133.151 76.2838C133.539 77.1294 133.916 77.7576 134.671 78.328C134.858 76.761 134.619 75.1213 134.418 73.5565C133.967 70.0524 133.14 66.3283 131.983 62.9978L131.982 62.993ZM87.6803 37.6549L86.7004 37.1652L83.8029 37.2909C85.051 37.7834 86.3973 37.4232 87.6803 37.6549Z" fill="url(#paint2_radial_5642_10582)"/>
</g>
<defs>
<filter id="filter0_ddi_5642_10582" x="0" y="0" width="170.299" height="170.286" filterUnits="userSpaceOnUse" color-interpolation-filters="sRGB">
<feFlood flood-opacity="0" result="BackgroundImageFix"/>
<feColorMatrix in="SourceAlpha" type="matrix" values="0 0 0 0 0 0 0 0 0 0 0 0 0 0 0 0 0 0 127 0" result="hardAlpha"/>
<feOffset/>
<feGaussianBlur stdDeviation="9"/>
<feComposite in2="hardAlpha" operator="out"/>
<feColorMatrix type="matrix" values="0 0 0 0 0.968627 0 0 0 0 0.917647 0 0 0 0 0.8 0 0 0 1 0"/>
<feBlend mode="normal" in2="BackgroundImageFix" result="effect1_dropShadow_5642_10582"/>
<feColorMatrix in="SourceAlpha" type="matrix" values="0 0 0 0 0 0 0 0 0 0 0 0 0 0 0 0 0 0 127 0" result="hardAlpha"/>
<feOffset/>
<feGaussianBlur stdDeviation="3"/>
<feComposite in2="hardAlpha" operator="out"/>
<feColorMatrix type="matrix" values="0 0 0 0 0.968627 0 0 0 0 0.917647 0 0 0 0 0.8 0 0 0 1 0"/>
<feBlend mode="normal" in2="effect1_dropShadow_5642_10582" result="effect2_dropShadow_5642_10582"/>
<feBlend mode="normal" in="SourceGraphic" in2="effect2_dropShadow_5642_10582" result="shape"/>
<feColorMatrix in="SourceAlpha" type="matrix" values="0 0 0 0 0 0 0 0 0 0 0 0 0 0 0 0 0 0 127 0" result="hardAlpha"/>
<feOffset/>
<feGaussianBlur stdDeviation="13.75"/>
<feComposite in2="hardAlpha" operator="arithmetic" k2="-1" k3="1"/>
<feColorMatrix type="matrix" values="0 0 0 0 0.968627 0 0 0 0 0.917647 0 0 0 0 0.8 0 0 0 1 0"/>
<feBlend mode="normal" in2="shape" result="effect3_innerShadow_5642_10582"/>
</filter>
<filter id="filter1_di_5642_10582" x="42.9609" y="48.2539" width="81.2715" height="72.6816" filterUnits="userSpaceOnUse" color-interpolation-filters="sRGB">
<feFlood flood-opacity="0" result="BackgroundImageFix"/>
<feColorMatrix in="SourceAlpha" type="matrix" values="0 0 0 0 0 0 0 0 0 0 0 0 0 0 0 0 0 0 127 0" result="hardAlpha"/>
<feOffset/>
<feGaussianBlur stdDeviation="2"/>
<feComposite in2="hardAlpha" operator="out"/>
<feColorMatrix type="matrix" values="0 0 0 0 0.752941 0 0 0 0 0.121569 0 0 0 0 0.121569 0 0 0 1 0"/>
<feBlend mode="normal" in2="BackgroundImageFix" result="effect1_dropShadow_5642_10582"/>
<feBlend mode="normal" in="SourceGraphic" in2="effect1_dropShadow_5642_10582" result="shape"/>
<feColorMatrix in="SourceAlpha" type="matrix" values="0 0 0 0 0 0 0 0 0 0 0 0 0 0 0 0 0 0 127 0" result="hardAlpha"/>
<feOffset/>
<feGaussianBlur stdDeviation="3.4"/>
<feComposite in2="hardAlpha" operator="arithmetic" k2="-1" k3="1"/>
<feColorMatrix type="matrix" values="0 0 0 0 0.968627 0 0 0 0 0.917647 0 0 0 0 0.8 0 0 0 1 0"/>
<feBlend mode="normal" in2="shape" result="effect2_innerShadow_5642_10582"/>
</filter>
<filter id="filter2_i_5642_10582" x="32.2461" y="31.8369" width="105.357" height="105.807" filterUnits="userSpaceOnUse" color-interpolation-filters="sRGB">
<feFlood flood-opacity="0" result="BackgroundImageFix"/>
<feBlend mode="normal" in="SourceGraphic" in2="BackgroundImageFix" result="shape"/>
<feColorMatrix in="SourceAlpha" type="matrix" values="0 0 0 0 0 0 0 0 0 0 0 0 0 0 0 0 0 0 127 0" result="hardAlpha"/>
<feOffset/>
<feGaussianBlur stdDeviation="2.25"/>
<feComposite in2="hardAlpha" operator="arithmetic" k2="-1" k3="1"/>
<feColorMatrix type="matrix" values="0 0 0 0 0.968627 0 0 0 0 0.917647 0 0 0 0 0.8 0 0 0 1 0"/>
<feBlend mode="normal" in2="shape" result="effect1_innerShadow_5642_10582"/>
</filter>
<radialGradient id="paint0_radial_5642_10582" cx="0" cy="0" r="1" gradientUnits="userSpaceOnUse" gradientTransform="translate(85.4874 85.3084) rotate(96.367) scale(110.955 110.955)">
<stop stop-color="#C01F1F"/>
<stop offset="0.639423" stop-color="#F7EACC"/>
</radialGradient>
<radialGradient id="paint1_radial_5642_10582" cx="0" cy="0" r="1" gradientTransform="matrix(-5.12559 77.9146 -59.4859 -3.89393 88.6519 53.5922)" gradientUnits="userSpaceOnUse">
<stop stop-color="#C01F1F"/>
<stop offset="0.774267" stop-color="#EDC6AD"/>
<stop offset="1" stop-color="#F7EACC"/>
</radialGradient>
<radialGradient id="paint2_radial_5642_10582" cx="0" cy="0" r="1" gradientUnits="userSpaceOnUse" gradientTransform="translate(84.9961 84.4241) rotate(-56.2362) scale(58.2807 58.553)">
<stop stop-color="#F7EACC"/>
<stop offset="0.809152" stop-color="#D05A51"/>
<stop offset="1" stop-color="#C01F1F"/>
</radialGradient>
</defs>
</svg>
